<svg width="24" height="24" viewBox="0 0 24 24" fill="none" xmlns="http://www.w3.org/2000/svg">
<path d="M20.1451 8.02086V19.6698C20.1451 20.4694 19.6473 20.9923 18.8425 20.9923H14.6362C15.3908 20.9923 15.8756 20.5325 15.933 19.8158L18.4277 19.8159C18.7347 19.8159 18.884 19.6851 18.884 19.4006V8.28231C18.884 7.99781 18.7347 7.85941 18.4277 7.85941H15.9387V6.69067H18.8425C19.6473 6.69067 20.1451 7.20585 20.1451 8.02086ZM17.4238 15.7406V16.8863C17.4238 17.0324 17.3159 17.1247 17.15 17.1247H15.9387V15.4946H17.15C17.3159 15.4946 17.4238 15.5869 17.4238 15.7406ZM17.4238 12.9495V14.0952C17.4238 14.2413 17.3159 14.3413 17.15 14.3413L15.9387 14.3412V12.7035H17.15C17.3159 12.7035 17.4238 12.8035 17.4238 12.9495ZM17.4238 10.1584V11.3041C17.4238 11.4502 17.3159 11.5501 17.15 11.5501H15.9387V9.91239H17.15C17.3159 9.91239 17.4238 10.0123 17.4238 10.1584Z" fill="#AEAEB2" fill-opacity="0.85"/>
<path d="M5.30256 20.9923H14.6362C15.4409 20.9923 15.9387 20.4695 15.9387 19.6698V4.32251C15.9387 3.51516 15.4409 3 14.6362 3H5.30256C4.49779 3 4 3.51516 4 4.32251V19.6698C4 20.4695 4.49779 20.9923 5.30256 20.9923ZM5.71738 19.8159C5.41871 19.8159 5.26107 19.6852 5.26107 19.4007V4.59163C5.26107 4.30713 5.41871 4.16873 5.71738 4.16873H14.2213C14.5283 4.16873 14.6777 4.30713 14.6777 4.59163V19.4007C14.6777 19.6852 14.5283 19.8159 14.2213 19.8159H5.71738ZM7.38499 8.4054H8.99452C9.20195 8.4054 9.33469 8.28237 9.33469 8.09014V6.6369C9.33469 6.45236 9.20195 6.32166 8.99452 6.32166H7.38499C7.17759 6.32166 7.05313 6.45236 7.05313 6.6369V8.09014C7.05313 8.28237 7.17759 8.4054 7.38499 8.4054ZM10.9359 8.4054H12.5454C12.7529 8.4054 12.8856 8.28237 12.8856 8.09014V6.6369C12.8856 6.45236 12.7529 6.32166 12.5454 6.32166H10.9359C10.7368 6.32166 10.604 6.45236 10.604 6.6369V8.09014C10.604 8.28237 10.7368 8.4054 10.9359 8.4054ZM7.38499 11.4503H8.99452C9.20195 11.4503 9.33469 11.3272 9.33469 11.135V9.68175C9.33469 9.49722 9.20195 9.36651 8.99452 9.36651H7.38499C7.17759 9.36651 7.05313 9.49722 7.05313 9.68175V11.135C7.05313 11.3272 7.17759 11.4503 7.38499 11.4503ZM10.9359 11.4503H12.5454C12.7529 11.4503 12.8856 11.3272 12.8856 11.135V9.68175C12.8856 9.49722 12.7529 9.36651 12.5454 9.36651H10.9359C10.7368 9.36651 10.604 9.49722 10.604 9.68175V11.135C10.604 11.3272 10.7368 11.4503 10.9359 11.4503ZM7.38499 14.4951H8.99452C9.20195 14.4951 9.33469 14.3644 9.33469 14.1798V12.7266C9.33469 12.5344 9.20195 12.4114 8.99452 12.4114H7.38499C7.17759 12.4114 7.05313 12.5344 7.05313 12.7266V14.1798C7.05313 14.3644 7.17759 14.4951 7.38499 14.4951ZM10.9359 14.4951H12.5454C12.7529 14.4951 12.8856 14.3644 12.8856 14.1798V12.7266C12.8856 12.5344 12.7529 12.4114 12.5454 12.4114H10.9359C10.7368 12.4114 10.604 12.5344 10.604 12.7266V14.1798C10.604 14.3644 10.7368 14.4951 10.9359 14.4951ZM7.53433 20.3772H8.5631V17.9244C8.5631 17.7706 8.63778 17.6937 8.82028 17.6937H11.1267C11.301 17.6937 11.3839 17.7706 11.3839 17.9244V20.3772H12.4127V17.6553C12.4127 17.0325 12.1223 16.7326 11.4669 16.7326H8.48013C7.82469 16.7326 7.53433 17.0325 7.53433 17.6553V20.3772Z" fill="#AEAEB2" fill-opacity="0.85"/>
</svg>
