<svg width="40" height="24" viewBox="0 0 40 24" fill="none" xmlns="http://www.w3.org/2000/svg">
<g clip-path="url(#clip0_40_29)">
<path d="M7.12115 17.4563H8.33068V16.1118H7.12115C6.20765 16.1118 5.79319 15.6525 5.79319 14.6504V13.6315C5.79319 12.3956 6.72361 11.4603 8.35607 11.2682L11.7394 10.859C12.2469 10.7922 12.5937 10.6753 12.949 10.4665L16.087 8.51239C17.9563 7.35995 19.1405 7.08437 22.3377 7.08437H23.6234C25.8395 7.08437 27.5988 7.89442 29.7811 9.78173C30.1786 10.1241 30.3901 10.216 30.8976 10.3747L31.7942 10.6586C32.7583 10.9676 33.2066 11.4603 33.2066 12.3371V14.6504C33.2066 15.6525 32.7922 16.1118 31.8787 16.1118H30.6523V17.4563H31.8787C33.7311 17.4563 34.5686 16.5878 34.5686 14.6504V12.3371C34.5686 10.7838 33.8072 9.81514 32.2002 9.29738L30.8553 8.85476C29.1467 7.39336 26.7953 5.73987 23.6234 5.73987H22.3377C18.8867 5.73987 17.4319 6.08226 15.3596 7.36831L11.934 9.48944L8.1869 9.94042C5.84394 10.2243 4.4314 11.6607 4.4314 13.6315V14.7004C4.4314 16.6045 5.28569 17.4563 7.12115 17.4563ZM12.7713 17.4563H26.3301V16.1118H12.7713V17.4563ZM10.6567 19.2601C12.34 19.2601 13.6595 17.9573 13.6595 16.2955C13.6595 14.6253 12.34 13.3225 10.6567 13.3225C8.96507 13.3225 7.64557 14.6253 7.64557 16.2955C7.64557 17.9573 8.96507 19.2601 10.6567 19.2601ZM10.6567 17.9991C9.68402 17.9991 8.92279 17.2475 8.92279 16.2955C8.92279 15.3351 9.68402 14.5836 10.6567 14.5836C11.621 14.5836 12.3822 15.3351 12.3822 16.2955C12.3822 17.2475 11.621 17.9991 10.6567 17.9991ZM28.3432 19.2601C30.0348 19.2601 31.3543 17.9573 31.3543 16.2955C31.3543 14.6253 30.0348 13.3225 28.3432 13.3225C26.6515 13.3225 25.332 14.6253 25.332 16.2955C25.332 17.9573 26.6515 19.2601 28.3432 19.2601ZM28.3432 17.9991C27.3789 17.9991 26.6092 17.2475 26.6092 16.2955C26.6092 15.3351 27.3789 14.5836 28.3432 14.5836C29.3074 14.5836 30.0771 15.3351 30.0771 16.2955C30.0771 17.2475 29.3074 17.9991 28.3432 17.9991Z" fill="#AEAEB2"/>
</g>
<defs>
<clipPath id="clip0_40_29">
<rect width="40" height="24" fill="white"/>
</clipPath>
</defs>
</svg>
