<svg width="24" height="24" viewBox="0 0 24 24" fill="none" xmlns="http://www.w3.org/2000/svg">
<g clip-path="url(#clip0_40_29)">
<path d="M9.618 21.0191H15.1126V14.0866C15.1126 13.6486 14.8269 13.3629 14.3889 13.3629H10.3512C9.90368 13.3629 9.618 13.6486 9.618 14.0866V21.0191ZM5.89464 22H18.7788C20.131 22 20.9214 21.2286 20.9214 19.8955V9.37292L19.3882 8.32543V19.5051C19.3882 20.124 19.0549 20.4668 18.455 20.4668H6.21841C5.60896 20.4668 5.27568 20.124 5.27568 19.5051V8.33494L3.74252 9.37292V19.8955C3.74252 21.2286 4.53291 22 5.89464 22ZM1 11.4012C1 11.7917 1.30472 12.1631 1.81895 12.1631C2.08558 12.1631 2.3046 12.0202 2.50458 11.8584L12.0368 3.8593C12.2463 3.66885 12.5034 3.66885 12.7128 3.8593L22.245 11.8584C22.4355 12.0202 22.6545 12.1631 22.9212 12.1631C23.3688 12.1631 23.7305 11.8869 23.7305 11.4298C23.7305 11.1441 23.6354 10.9537 23.4354 10.7823L13.5223 2.44995C12.8176 1.85002 11.9415 1.85002 11.2274 2.44995L1.30472 10.7823C1.09523 10.9537 1 11.1822 1 11.4012ZM18.5312 7.10653L20.9214 9.12533V4.72586C20.9214 4.30686 20.6547 4.04023 20.2358 4.04023H19.2168C18.8073 4.04023 18.5312 4.30686 18.5312 4.72586V7.10653Z" fill="#1B86FF"/>
</g>
<defs>
<clipPath id="clip0_40_29">
<rect width="24" height="24" fill="white"/>
</clipPath>
</defs>
</svg>
