<svg width="24" height="24" viewBox="0 0 24 24" fill="none" xmlns="http://www.w3.org/2000/svg">
<path d="M5.81446 18.8291C5.99465 18.8291 6.18204 18.7642 6.41269 18.6345L10.0814 16.6597L14.0672 18.894C14.3266 19.0381 14.6077 19.1103 14.8744 19.1103C15.1267 19.1103 15.3789 19.0454 15.5952 18.9229L19.3647 16.7822C19.7972 16.5443 19.9918 16.1984 19.9918 15.7155V6.00682C19.9918 5.47346 19.6963 5.17795 19.1774 5.17795C18.9971 5.17795 18.8097 5.23561 18.5719 5.36535L14.7519 7.49159L10.8382 5.09146C10.6147 4.96172 10.3624 4.88965 10.1102 4.88965C9.85072 4.88965 9.59124 4.96172 9.3678 5.09146L5.61985 7.22491C5.19461 7.46997 5 7.81593 5 8.29884V17.9931C5 18.5264 5.29551 18.8291 5.81446 18.8291ZM9.61286 15.5136L6.36223 17.3011C6.3262 17.3155 6.29016 17.3371 6.25412 17.3371C6.19646 17.3371 6.16043 17.2939 6.16043 17.2219V8.57994C6.16043 8.40695 6.22529 8.28443 6.39827 8.18352L9.35339 6.4537C9.44709 6.40324 9.52637 6.36 9.61286 6.30955V15.5136ZM10.7733 15.629V6.46091C10.8454 6.50415 10.9319 6.54739 11.0039 6.59064L14.2185 8.55111V17.5606C14.1176 17.5029 14.0095 17.4525 13.9013 17.3949L10.7733 15.629ZM15.3789 17.6904V8.47903L18.6296 6.70596C18.6656 6.68434 18.7017 6.66993 18.7305 6.66993C18.7953 6.66993 18.8314 6.71317 18.8314 6.78525V15.4271C18.8314 15.6074 18.7593 15.7299 18.5935 15.8308L15.7033 17.5101C15.5952 17.575 15.4871 17.6399 15.3789 17.6904Z" fill="#AEAEB2" fill-opacity="0.95"/>
</svg>
