<svg width="36" height="24" viewBox="0 0 36 24" fill="none" xmlns="http://www.w3.org/2000/svg">
<g clip-path="url(#clip0_40_29)">
<path d="M8.68891 16.2728L14.9435 11.4863C17.2505 9.71827 18.5831 9.17671 19.8989 9.17671C21.5396 9.17671 22.2309 10.0767 22.2309 11.0881C22.2309 12.219 21.2815 13.1349 19.3826 13.1349C17.6836 13.1349 16.1512 12.4341 14.9602 11.1518L13.7942 12.004C15.1851 13.5411 17.1672 14.3853 19.3493 14.3853C21.9977 14.3853 23.5718 12.9756 23.5718 11.1837C23.5718 9.28821 22.3475 7.95818 19.9906 7.92632C18.3499 7.91042 16.7092 8.57143 14.4938 10.2598L7.90601 15.2932L8.68891 16.2728ZM8.48069 20C10.9459 20 12.9364 18.0886 12.9364 15.7312C12.9364 13.3659 10.9459 11.4465 8.48069 11.4465C5.99882 11.4465 4 13.3659 4 15.7312C4 18.0966 5.99882 20 8.48069 20ZM8.47235 18.7656C6.69841 18.7656 5.28258 17.4117 5.28258 15.7233C5.28258 14.0349 6.69841 12.6809 8.47235 12.6809C10.238 12.6809 11.6538 14.0349 11.6538 15.7233C11.6538 17.4117 10.238 18.7656 8.47235 18.7656ZM9.79658 9.6227H13.636C13.9941 9.6227 14.2856 9.35192 14.2856 9.00945C14.2856 8.67498 13.9858 8.38827 13.636 8.38827H9.79658C9.44678 8.38827 9.1553 8.67498 9.1553 9.00945C9.1553 9.35192 9.43844 9.6227 9.79658 9.6227ZM27.4944 20C29.9597 20 31.9502 18.0886 31.9502 15.7312C31.9502 13.3659 29.9597 11.4465 27.4944 11.4465C25.0126 11.4465 23.0138 13.3659 23.0138 15.7312C23.0138 18.0966 25.0126 20 27.4944 20ZM27.4861 18.7656C25.7122 18.7656 24.2963 17.4117 24.2963 15.7233C24.2963 14.0349 25.7122 12.6809 27.4861 12.6809C29.2518 12.6809 30.6675 14.0349 30.6675 15.7233C30.6675 17.4117 29.2518 18.7656 27.4861 18.7656ZM27.4695 16.7586C28.0691 16.7586 28.5522 16.2967 28.5522 15.7233C28.5522 15.1419 28.0775 14.6799 27.4695 14.6799C26.8615 14.6799 26.4284 15.1339 26.4201 15.7233C26.4118 16.2967 26.8532 16.7586 27.4695 16.7586ZM26.8865 15.779L28.0941 15.3808L23.5551 4.5336C23.3886 4.15132 23.0887 4 22.6057 4H20.2154C19.849 4 19.5658 4.27875 19.5658 4.62121C19.5658 4.96366 19.849 5.23445 20.2154 5.23445H22.3475C22.4225 5.23445 22.4558 5.25037 22.4808 5.30612L26.8865 15.779ZM27.4944 9.53511C27.7943 9.56697 27.9359 9.33599 27.8776 9.05726L27.4112 6.92286C27.3529 6.6441 27.1363 6.50871 26.8615 6.65206C26.645 6.76358 26.4451 6.93877 26.3035 7.14586C25.8038 7.84671 26.0203 8.83426 26.7532 9.28821C26.9614 9.42359 27.2279 9.51916 27.4944 9.53511ZM8.44737 16.7666C9.04702 16.7666 9.53007 16.2967 9.53007 15.7233C9.53007 15.1419 9.05536 14.6879 8.44737 14.6879C7.83939 14.6879 7.39799 15.1339 7.38968 15.7233C7.38134 16.2967 7.83107 16.7666 8.44737 16.7666ZM15.1518 17.3957H17.4088C17.7919 17.3957 17.9584 17.3081 18.2249 17.0294L21.5646 13.5729L19.7407 13.565L17.3754 16.0498C17.3005 16.1215 17.2255 16.1613 17.0756 16.1613H15.1518C14.7936 16.1613 14.5105 16.4321 14.5105 16.7745C14.5105 17.117 14.7936 17.3957 15.1518 17.3957Z" fill="#AEAEB2" fill-opacity="0.85"/>
</g>
<defs>
<clipPath id="clip0_40_29">
<rect width="28" height="16" fill="white" transform="translate(4 4)"/>
</clipPath>
</defs>
</svg>
