<svg width="24" height="24" viewBox="0 0 24 24" fill="none" xmlns="http://www.w3.org/2000/svg">
<path d="M6.2741 19.9579H17.7259C19.2382 19.9579 19.958 19.5282 19.958 18.5829C19.958 16.3313 16.9424 13.0742 12.0046 13.0742C7.0576 13.0742 4.04205 16.3313 4.04205 18.5829C4.04205 19.5282 4.76178 19.9579 6.2741 19.9579ZM5.84591 18.6603C5.60904 18.6603 5.50883 18.6001 5.50883 18.4196C5.50883 17.0102 7.82287 14.3719 12.0046 14.3719C16.1771 14.3719 18.4911 17.0102 18.4911 18.4196C18.4911 18.6001 18.4001 18.6603 18.1632 18.6603H5.84591ZM12.0046 12.0086C14.1728 12.0086 15.9403 10.1866 15.9403 7.96942C15.9403 5.76937 14.182 4.04199 12.0046 4.04199C9.84538 4.04199 8.06886 5.80375 8.06886 7.9866C8.07797 10.1952 9.83627 12.0086 12.0046 12.0086ZM12.0046 10.7109C10.6744 10.7109 9.53563 9.50773 9.53563 7.9866C9.53563 6.49126 10.6562 5.33968 12.0046 5.33968C13.362 5.33968 14.4735 6.47407 14.4735 7.96942C14.4735 9.49055 13.3437 10.7109 12.0046 10.7109Z" fill="#AEAEB2" fill-opacity="0.95"/>
</svg>
