<svg width="148" height="116" viewBox="0 0 148 116" fill="none" xmlns="http://www.w3.org/2000/svg">
<path fill-rule="evenodd" clip-rule="evenodd" d="M32.4462 53.6852L31.7308 52.8559C31.2868 52.3403 30.5024 50.287 30.4987 48.9384C30.4945 47.5898 31.9328 47.6427 31.9328 47.6427C31.9328 47.6427 34.027 50.1834 34.5509 51.2592C35.0748 52.3349 34.7637 53.5366 32.4462 53.6852Z" fill="#3E3C59"/>
<path fill-rule="evenodd" clip-rule="evenodd" d="M34.7102 52.5145C34.6362 52.749 34.4903 52.9649 34.2566 53.1452C34.1705 53.2121 34.0722 53.2744 33.9614 53.3314C33.8126 53.3525 33.6575 53.3545 33.4977 53.3302H33.4957C33.2523 53.2934 32.999 53.194 32.7406 53.0103C32.5934 52.9046 32.4445 52.7713 32.2953 52.6053C32.1657 52.4617 32.0361 52.2924 31.9064 52.0972C31.4733 51.4408 31.0447 50.4769 30.6475 49.0949C30.6032 48.9397 30.5618 48.7907 30.5234 48.6445C30.7128 47.5973 31.9328 47.6427 31.9328 47.6427C31.9328 47.6427 32.3438 48.1418 32.8476 48.7915C32.9734 48.9533 33.1047 49.1246 33.2369 49.2988C33.6412 49.8346 34.053 50.4084 34.3302 50.8629C34.4192 51.0086 34.4945 51.1428 34.551 51.2592C34.6254 51.4123 34.6831 51.5667 34.7203 51.7219L34.7211 51.7252C34.7863 51.9968 34.7889 52.266 34.7102 52.5145Z" fill="white"/>
<path fill-rule="evenodd" clip-rule="evenodd" d="M34.7103 52.5145C34.6362 52.749 34.4903 52.9649 34.2566 53.1453C34.1839 53.2026 34.1027 53.2555 34.0124 53.3038C33.8949 53.3145 33.7737 53.3112 33.6499 53.2922H33.6483C33.4049 53.2542 33.1516 53.156 32.8932 52.9711C32.746 52.8662 32.5972 52.732 32.4479 52.5673C32.3183 52.4225 32.1887 52.2544 32.0591 52.0592C31.6259 51.4028 31.1973 50.439 30.8001 49.0557C30.7558 48.9013 30.7144 48.7515 30.6756 48.6057C30.7792 48.034 31.1907 47.7876 31.5427 47.6832C31.7643 47.6365 31.9328 47.6427 31.9328 47.6427C31.9328 47.6427 32.3438 48.1418 32.8476 48.7915C32.9734 48.9533 33.1047 49.1246 33.2369 49.2988C33.6412 49.8346 34.053 50.4084 34.3302 50.8629C34.4193 51.0086 34.4945 51.1428 34.551 51.2592C34.6254 51.4123 34.6831 51.5667 34.7203 51.7219L34.7211 51.7252C34.7863 51.9969 34.7889 52.266 34.7103 52.5145Z" fill="#C2BFD8"/>
<path fill-rule="evenodd" clip-rule="evenodd" d="M65.3267 95.3024C65.3288 95.2157 65.3288 95.1315 65.3288 95.0456C65.3138 89.799 61.5538 87.6834 56.9308 90.3179C52.307 92.9544 48.5712 99.3424 48.5863 104.589C48.5863 104.653 48.5871 104.715 48.5884 104.777C48.5867 104.863 48.5859 104.949 48.5863 105.033C48.6013 110.281 52.3617 112.395 56.9843 109.761C61.6081 107.126 65.3439 100.737 65.3288 95.4898C65.3288 95.4262 65.3276 95.3639 65.3267 95.3024Z" fill="#3D3757"/>
<path fill-rule="evenodd" clip-rule="evenodd" d="M64.0306 96.0359C64.0314 95.9628 64.0327 95.891 64.0327 95.8192C64.0197 91.3849 60.8417 89.5971 56.935 91.8237C53.0274 94.0512 49.8698 99.4501 49.8828 103.884C49.8828 103.938 49.8836 103.991 49.8849 104.043C49.8836 104.116 49.8828 104.188 49.8828 104.26C49.8953 108.695 53.0734 110.482 56.9814 108.255C60.8881 106.028 64.0456 100.629 64.0327 96.1944C64.0327 96.1416 64.0314 96.0887 64.0306 96.0359Z" fill="#4D4873"/>
<path fill-rule="evenodd" clip-rule="evenodd" d="M62.8779 96.6881C62.8787 96.6278 62.88 96.5676 62.88 96.5073C62.8691 92.795 60.2096 91.2987 56.9383 93.1624C53.6683 95.0266 51.0247 99.5463 51.0355 103.258C51.0364 103.302 51.0364 103.346 51.0376 103.391C51.0364 103.451 51.0355 103.511 51.0355 103.573C51.046 107.284 53.7072 108.781 56.9768 106.916C60.248 105.052 62.8904 100.532 62.88 96.821C62.8787 96.7769 62.8787 96.7323 62.8779 96.6881Z" fill="white"/>
<path fill-rule="evenodd" clip-rule="evenodd" d="M62.6283 96.8297C62.6295 96.7715 62.6295 96.7133 62.6295 96.6563C62.6199 93.1001 60.0711 91.6673 56.9395 93.4531C53.8067 95.2392 51.2751 99.5678 51.2859 103.122C51.2859 103.165 51.2859 103.207 51.2868 103.25C51.2859 103.307 51.2859 103.366 51.2859 103.424C51.2956 106.979 53.8439 108.412 56.9759 106.627C60.1088 104.841 62.64 100.512 62.6295 96.9564C62.6295 96.9139 62.6295 96.8718 62.6283 96.8297Z" fill="#C2BFD8"/>
<path fill-rule="evenodd" clip-rule="evenodd" d="M59.4515 92.6848C58.6939 92.6923 57.8406 92.9387 56.9396 93.4531C53.8067 95.2392 51.2751 99.5678 51.286 103.122C51.286 103.165 51.286 103.207 51.2868 103.25C51.286 103.307 51.2847 103.366 51.286 103.424C51.2868 103.735 51.3073 104.03 51.3458 104.308C52.2685 104.812 53.5324 104.726 54.9251 103.933C57.739 102.329 60.0122 98.4413 60.0038 95.2475C60.0026 95.2095 60.0026 95.1715 60.0017 95.1335C60.0026 95.0815 60.0038 95.0287 60.0038 94.9771C60.0005 94.0417 59.8015 93.2694 59.4515 92.6848Z" fill="#1B1918"/>
<path fill-rule="evenodd" clip-rule="evenodd" d="M53.3978 96.8854C53.2242 97.1434 53.0595 97.4076 52.9031 97.6772L60.1643 103.693C60.3475 103.445 60.5239 103.19 60.692 102.928L53.3978 96.8854Z" fill="white"/>
<path fill-rule="evenodd" clip-rule="evenodd" d="M52.9032 97.6772C52.8217 97.8175 52.7439 97.9591 52.6678 98.102L59.8722 104.071C59.9717 103.947 60.0691 103.821 60.1644 103.693L52.9032 97.6772Z" fill="#8F8BAA"/>
<path fill-rule="evenodd" clip-rule="evenodd" d="M57.4049 93.2091C57.2511 93.283 57.0955 93.3635 56.9396 93.4531C56.7819 93.5418 56.626 93.6392 56.4717 93.7408V106.888C56.6385 106.809 56.8066 106.723 56.9759 106.627C57.1202 106.544 57.2628 106.457 57.4049 106.364V93.2091Z" fill="white"/>
<path fill-rule="evenodd" clip-rule="evenodd" d="M56.4717 93.7408C56.3099 93.8485 56.1493 93.9625 55.9921 94.083V107.091C56.1493 107.032 56.3099 106.964 56.4717 106.888V93.7408Z" fill="#8F8BAA"/>
<path fill-rule="evenodd" clip-rule="evenodd" d="M51.625 100.705C51.5372 101.03 51.4658 101.355 51.411 101.677L62.1638 99.8055C62.2654 99.479 62.3532 99.1513 62.423 98.8256L51.625 100.705Z" fill="white"/>
<path fill-rule="evenodd" clip-rule="evenodd" d="M51.411 101.677C51.3834 101.843 51.3595 102.008 51.3403 102.171L61.9894 100.317C62.0513 100.147 62.1094 99.9764 62.1637 99.8055L51.411 101.677Z" fill="#8F8BAA"/>
<path fill-rule="evenodd" clip-rule="evenodd" d="M61.2293 93.2281C60.978 93.0444 60.6983 92.9057 60.3943 92.814L52.3542 106.564C52.5779 106.79 52.8325 106.972 53.113 107.107L61.2293 93.2281Z" fill="white"/>
<path fill-rule="evenodd" clip-rule="evenodd" d="M61.5956 93.5505C61.481 93.4312 61.3589 93.3234 61.2293 93.2281L53.1131 107.107C53.2586 107.176 53.4095 107.234 53.568 107.279L61.5956 93.5505Z" fill="#8F8BAA"/>
<path fill-rule="evenodd" clip-rule="evenodd" d="M47.8931 108.544C48.1147 108.657 48.3409 108.772 47.8931 108.544V108.544ZM60.9864 89.1946C59.5573 87.0514 56.7916 86.6225 53.6182 88.4306C48.9952 91.0658 45.259 97.4543 45.2745 102.702C45.2745 102.764 45.2753 102.827 45.2766 102.889C45.2749 102.975 45.2741 103.06 45.2745 103.146C45.282 105.849 46.2842 107.722 47.886 108.541C47.8479 108.521 47.8099 108.501 47.7727 108.48L50.9904 110.315C50.9189 110.272 50.8491 110.228 50.7805 110.182L50.7784 110.181C50.6885 110.12 50.602 110.056 50.5163 109.987L50.5142 109.985C50.4724 109.952 50.4305 109.917 50.39 109.881L50.3866 109.879C50.3461 109.843 50.3055 109.808 50.2658 109.77L50.2637 109.768C50.224 109.73 50.1855 109.692 50.1471 109.653L50.1458 109.651C50.1073 109.612 50.0701 109.573 50.0325 109.532L50.0313 109.53L50.0304 109.529C49.9928 109.487 49.9564 109.446 49.92 109.403L49.9192 109.401C49.8828 109.358 49.8473 109.314 49.813 109.27L49.8122 109.268C48.9387 108.141 48.5913 106.759 48.5863 105.033C48.5859 104.949 48.5867 104.863 48.5884 104.777C48.5871 104.715 48.5863 104.653 48.5863 104.589C48.5712 99.3424 52.307 92.9544 56.9308 90.3179C58.4004 89.4807 59.7835 89.1236 60.9864 89.1946Z" fill="#312D4A"/>
<path fill-rule="evenodd" clip-rule="evenodd" d="M57.9092 99.5009C57.9092 99.4914 57.9092 99.4819 57.9092 99.4716C57.9071 98.8755 57.4802 98.6344 56.9546 98.9345C56.4291 99.2338 56.0039 99.9608 56.006 100.557V100.578C56.006 100.587 56.006 100.598 56.006 100.608C56.0085 101.203 56.4354 101.444 56.9609 101.144C57.4865 100.845 57.9113 100.119 57.9092 99.522V99.5009Z" fill="#BEB7D5"/>
<path fill-rule="evenodd" clip-rule="evenodd" d="M57.1248 98.8545C57.07 98.8743 57.0123 98.9019 56.9546 98.9345C56.4291 99.2338 56.0039 99.9608 56.006 100.557V100.578C56.006 100.589 56.006 100.598 56.006 100.608C56.006 100.671 56.0114 100.73 56.021 100.786C56.0758 100.766 56.1335 100.74 56.1912 100.706C56.7167 100.407 57.1419 99.6805 57.1394 99.0836V99.0625C57.1394 99.053 57.1394 99.0423 57.1394 99.0328C57.1394 98.9696 57.1344 98.9102 57.1248 98.8545Z" fill="#1B1918"/>
<path fill-rule="evenodd" clip-rule="evenodd" d="M134.253 54.8455C134.255 54.7589 134.256 54.6746 134.255 54.5888C134.241 49.3422 130.48 47.2266 125.857 49.8619C121.233 52.4976 117.497 58.8856 117.512 64.1326C117.512 64.1958 117.514 64.2581 117.514 64.3204C117.514 64.4063 117.512 64.4917 117.512 64.5764C117.527 69.8242 121.287 71.9398 125.912 69.3041C130.534 66.6688 134.271 60.2804 134.255 55.0325C134.255 54.9702 134.255 54.907 134.253 54.8455Z" fill="#3D3757"/>
<path fill-rule="evenodd" clip-rule="evenodd" d="M132.956 55.5791C132.959 55.506 132.959 55.4342 132.959 55.3624C132.946 50.9281 129.768 49.1403 125.861 51.3669C121.953 53.5944 118.796 58.9933 118.81 63.4276C118.81 63.4817 118.81 63.5345 118.811 63.5861C118.81 63.6592 118.808 63.731 118.81 63.8028C118.821 68.2379 121.999 70.0249 125.907 67.7983C129.814 65.5708 132.971 60.1719 132.959 55.7376C132.959 55.6848 132.957 55.6319 132.956 55.5791Z" fill="#4D4873"/>
<path fill-rule="evenodd" clip-rule="evenodd" d="M131.803 56.2313C131.806 56.171 131.806 56.1108 131.806 56.0505C131.795 52.3378 129.135 50.8418 125.864 52.7056C122.594 54.571 119.952 59.0895 119.962 62.8009C119.962 62.8463 119.962 62.8897 119.964 62.9343C119.962 62.9945 119.962 63.0544 119.962 63.1159C119.973 66.8273 122.633 68.3237 125.903 66.4595C129.174 64.5954 131.816 60.0757 131.806 56.3642C131.806 56.32 131.805 56.2755 131.803 56.2313Z" fill="white"/>
<path fill-rule="evenodd" clip-rule="evenodd" d="M131.554 56.3729C131.555 56.3147 131.556 56.2565 131.556 56.1995C131.545 52.6433 128.998 51.2105 125.865 52.9962C122.732 54.7824 120.201 59.111 120.212 62.6656C120.212 62.7081 120.213 62.7502 120.213 62.7927C120.212 62.8505 120.212 62.9087 120.212 62.9669C120.222 66.5219 122.77 67.9547 125.902 66.1698C129.035 64.384 131.566 60.0554 131.556 56.4996C131.555 56.4571 131.555 56.415 131.554 56.3729Z" fill="#C2BFD8"/>
<path fill-rule="evenodd" clip-rule="evenodd" d="M128.378 52.228C127.619 52.2355 126.767 52.4819 125.865 52.9962C122.732 54.7824 120.201 59.111 120.212 62.6656C120.212 62.7081 120.213 62.7502 120.213 62.7927C120.212 62.8505 120.212 62.9087 120.212 62.9669C120.213 63.2786 120.233 63.5733 120.272 63.8515C121.194 64.3555 122.458 64.2697 123.852 63.4763C126.665 61.8722 128.939 57.9845 128.93 54.7907C128.93 54.7527 128.929 54.7147 128.929 54.6767C128.93 54.6247 128.93 54.5731 128.93 54.5211C128.926 53.5849 128.728 52.8125 128.378 52.228Z" fill="#1B1918"/>
<path fill-rule="evenodd" clip-rule="evenodd" d="M122.325 56.4286C122.15 56.6866 121.985 56.9508 121.829 57.2204L129.09 63.2364C129.274 62.9879 129.45 62.7332 129.618 62.4711L122.325 56.4286Z" fill="white"/>
<path fill-rule="evenodd" clip-rule="evenodd" d="M121.829 57.2204C121.748 57.3607 121.669 57.5023 121.594 57.6451L128.799 63.6138C128.898 63.4899 128.995 63.3644 129.09 63.2365L121.829 57.2204Z" fill="#8F8BAA"/>
<path fill-rule="evenodd" clip-rule="evenodd" d="M126.331 52.7523C126.177 52.8261 126.022 52.9066 125.865 52.9962C125.708 53.085 125.553 53.1824 125.399 53.2839V66.4311C125.565 66.3526 125.733 66.2659 125.902 66.1698C126.046 66.0876 126.19 65.9997 126.331 65.9068V52.7523Z" fill="white"/>
<path fill-rule="evenodd" clip-rule="evenodd" d="M125.399 53.284C125.236 53.3917 125.077 53.5056 124.918 53.6262V66.6337C125.077 66.5747 125.236 66.507 125.399 66.4311V53.284Z" fill="#8F8BAA"/>
<path fill-rule="evenodd" clip-rule="evenodd" d="M120.552 60.2491C120.463 60.5735 120.392 60.8976 120.337 61.22L131.09 59.3488C131.193 59.0218 131.279 58.6945 131.349 58.3688L120.552 60.2491Z" fill="white"/>
<path fill-rule="evenodd" clip-rule="evenodd" d="M120.337 61.2199C120.309 61.3859 120.286 61.551 120.266 61.7145L130.916 59.8602C130.979 59.6897 131.036 59.5196 131.09 59.3487L120.337 61.2199Z" fill="#8F8BAA"/>
<path fill-rule="evenodd" clip-rule="evenodd" d="M130.155 52.7713C129.904 52.5876 129.624 52.4489 129.32 52.3572L121.28 66.1074C121.505 66.3336 121.759 66.5153 122.04 66.6498L130.155 52.7713Z" fill="white"/>
<path fill-rule="evenodd" clip-rule="evenodd" d="M130.521 53.0936C130.408 52.9744 130.286 52.8662 130.155 52.7713L122.04 66.6498C122.185 66.7196 122.336 66.7774 122.494 66.822L130.521 53.0936Z" fill="#8F8BAA"/>
<path fill-rule="evenodd" clip-rule="evenodd" d="M116.819 68.0868C117.042 68.1999 117.267 68.3151 116.819 68.0868V68.0868ZM129.912 48.7378C128.483 46.5946 125.718 46.1657 122.545 47.9737C117.921 50.609 114.186 56.9974 114.201 62.2449C114.201 62.3076 114.202 62.37 114.203 62.4323C114.201 62.5178 114.201 62.6032 114.201 62.6891C114.208 65.3921 115.21 67.2645 116.812 68.0835C116.774 68.0645 116.736 68.0447 116.699 68.0236L119.916 69.8581C119.844 69.8156 119.775 69.7714 119.706 69.7248L119.704 69.7239C119.615 69.6637 119.528 69.5993 119.442 69.5303L119.44 69.5295C119.398 69.4956 119.357 69.4606 119.316 69.4246L119.313 69.4226C119.272 69.3867 119.232 69.3508 119.193 69.3128H119.192L119.19 69.3107C119.15 69.2736 119.112 69.2356 119.074 69.1964L119.072 69.1943C119.033 69.1551 118.996 69.1163 118.959 69.075L118.957 69.0729L118.956 69.0717C118.919 69.0304 118.882 68.9891 118.847 68.9458L118.845 68.9437C118.81 68.9016 118.773 68.8571 118.739 68.8129L118.738 68.8108C117.864 67.6843 117.518 66.3019 117.512 64.5764C117.512 64.4917 117.514 64.4063 117.514 64.3204C117.514 64.2581 117.512 64.1958 117.512 64.1326C117.497 58.8856 121.233 52.4976 125.857 49.8619C127.326 49.0239 128.709 48.6668 129.912 48.7378Z" fill="#312D4A"/>
<path fill-rule="evenodd" clip-rule="evenodd" d="M126.835 59.0441C126.835 59.0346 126.835 59.0251 126.835 59.0156C126.834 58.4187 126.406 58.1789 125.88 58.4777C125.355 58.777 124.931 59.5039 124.932 60.1V60.1211C124.932 60.1306 124.932 60.1413 124.932 60.1508C124.934 60.7465 125.361 60.9875 125.887 60.6874C126.412 60.3886 126.837 59.6625 126.835 59.0651V59.0441Z" fill="#BEB7D5"/>
<path fill-rule="evenodd" clip-rule="evenodd" d="M126.052 58.3977C125.996 58.4175 125.939 58.4451 125.88 58.4777C125.355 58.777 124.931 59.504 124.932 60.1V60.1211C124.932 60.1306 124.932 60.1413 124.932 60.1508C124.932 60.214 124.937 60.2742 124.947 60.3291C125.003 60.3093 125.059 60.2829 125.117 60.249C125.643 59.9498 126.068 59.2237 126.065 58.6268V58.6057C126.065 58.5962 126.065 58.5867 126.065 58.576C126.065 58.5128 126.061 58.4534 126.052 58.3977Z" fill="#1B1918"/>
<path fill-rule="evenodd" clip-rule="evenodd" d="M147.743 38.3263C147.81 38.9393 147.833 39.8132 147.834 40.6978V40.8745C147.832 42.4468 147.766 43.9994 147.76 44.1248C147.75 44.3259 147.535 48.1228 136.396 56.1454C136.262 56.2416 136.114 56.344 135.966 56.4497C136.055 55.7946 136.101 55.1502 136.099 54.5211C136.09 51.5688 135.053 49.4776 133.374 48.4629V48.4608L133.074 48.297C131.339 47.4177 128.997 47.6068 126.422 49.0738C121.095 52.1108 116.791 59.4709 116.808 65.5167C116.811 66.5631 116.944 67.5014 117.189 68.3237C96.3186 81.0192 68.8802 97.0018 67.4365 97.8419L66.1261 98.589C66.5927 97.0357 66.8478 95.477 66.8432 93.9975C66.826 87.9517 62.4936 85.515 57.1662 88.5511C51.8391 91.588 47.5352 98.9482 47.5527 104.994C47.5569 106.473 47.8203 107.736 48.2911 108.755L36.4073 115.53C36.3931 115.496 36.1314 114.877 36.5532 114.018C35.7007 112.559 33.9242 109.052 34.4648 105.933C35.1146 102.187 36.1816 100.512 36.3425 100.276C36.3492 100.261 36.3563 100.25 36.3634 100.246C36.5495 99.9343 40.0833 94.0058 47.4369 87.8419C54.7913 81.6776 63.6781 75.8193 64.146 75.5105C64.9274 74.5099 79.7772 55.4891 89.6022 47.7991C97.435 41.6679 108.423 36.0237 117.462 31.9185C117.661 31.8731 121.434 30.998 127.567 30.8456C133.701 30.6958 134.504 31.3435 134.547 31.3773C134.654 31.1606 136.693 27.0487 138.948 24.4494C140.079 23.1474 142.138 21.8095 143.913 20.797C145.598 19.8364 146.629 18.7829 146.775 21.578C146.708 21.7377 146.633 21.9078 146.551 22.0874C145.939 23.4116 145.21 24.9934 144.661 26.1885C144.613 26.6661 144.589 27.1713 144.596 27.6997C145.01 27.6659 145.49 27.8529 145.776 28.7334C145.498 27.8739 145.033 27.6745 144.596 27.7166C144.602 28.0411 144.619 28.3738 144.651 28.7152C144.837 30.7515 144.837 32.2207 144.784 33.2076L146.011 32.508C146.011 32.4667 146.012 32.4246 146.012 32.3833C145.989 36.0956 146.004 38.0634 146.005 38.167C146.02 38.1521 146.293 37.8731 146.635 37.6778C147.088 37.4198 147.636 37.3344 147.743 38.3263Z" fill="#E9E8E7"/>
<path fill-rule="evenodd" clip-rule="evenodd" d="M137.457 55.369C137.115 55.6237 136.761 55.8813 136.396 56.1455C136.262 56.2416 136.114 56.344 135.966 56.4497C136.055 55.7946 136.101 55.1502 136.099 54.5211C136.09 51.5688 135.053 49.4776 133.374 48.4629V48.4609L133.074 48.297C131.339 47.4177 128.997 47.6068 126.422 49.0739C123.077 50.981 120.137 54.5921 118.415 58.5116C117.376 60.8567 116.771 63.3145 116.777 65.5877C116.78 66.616 116.909 67.5407 117.144 68.3502C116.638 68.6585 116.126 68.9694 115.612 69.281C115.431 68.4851 115.333 67.6038 115.33 66.6432C115.31 59.691 120.26 51.2262 126.387 47.7339C132.512 44.2421 137.496 47.0446 137.515 53.9981C137.516 54.4493 137.497 54.9071 137.457 55.369Z" fill="#DCD9EC"/>
<path fill-rule="evenodd" clip-rule="evenodd" d="M67.7454 97.6623L67.4364 97.8419L66.1261 98.5891C66.5927 97.0357 66.8477 95.477 66.8432 93.9975C66.826 87.9517 62.4936 85.515 57.1661 88.5511C51.8391 91.5881 47.5351 98.9482 47.5527 104.994C47.5569 106.473 47.8203 107.736 48.2911 108.755L46.6726 109.678C46.3093 108.643 46.1094 107.429 46.1056 106.05C46.0856 99.0972 51.0355 90.6328 57.162 87.1402C63.2876 83.6488 68.271 86.4512 68.2906 93.4048C68.2915 93.9129 68.2668 94.4297 68.2166 94.9515C68.1899 95.2306 68.1556 95.5129 68.1138 95.7948C68.0239 96.4132 67.901 97.0365 67.7454 97.6623Z" fill="#DCD9EC"/>
<path fill-rule="evenodd" clip-rule="evenodd" d="M116.809 65.6637C116.823 66.6507 116.956 67.5407 117.189 68.3237C96.3186 81.0193 68.8802 97.0019 67.4365 97.8419L66.1261 98.5891C66.4539 97.4997 66.6764 96.4078 66.7792 95.3437L116.809 65.6637ZM144.603 49.1762C142.923 50.9863 140.346 53.2997 136.396 56.1455C136.262 56.2416 136.114 56.344 135.966 56.4497C136.055 55.7946 136.101 55.1502 136.099 54.5211C136.099 54.4208 136.097 54.3217 136.094 54.2235L144.603 49.1762Z" fill="#CCCCC9"/>
<path fill-rule="evenodd" clip-rule="evenodd" d="M116.837 66.3275C116.889 67.0532 117.009 67.7202 117.189 68.3237C96.3186 81.0192 68.8802 97.0019 67.4365 97.8419L66.1261 98.5891C66.3787 97.7478 66.5693 96.9065 66.6902 96.076L116.837 66.3275ZM142.942 50.8419C141.347 52.3444 139.223 54.1079 136.396 56.1455C136.262 56.2416 136.114 56.344 135.966 56.4497C136.037 55.9279 136.081 55.4111 136.094 54.9038L142.942 50.8419Z" fill="#DCD9EC"/>
<mask id="mask0_6_5187" style="mask-type:luminance" maskUnits="userSpaceOnUse" x="0" y="0" width="146" height="116">
<path d="M0.787003 0.680634H145.819V115.55H0.787003V0.680634Z" fill="white"/>
</mask>
<g mask="url(#mask0_6_5187)">
<mask id="mask1_6_5187" style="mask-type:luminance" maskUnits="userSpaceOnUse" x="0" y="0" width="146" height="116">
<path fill-rule="evenodd" clip-rule="evenodd" d="M2.93646 96.4503C18.0062 87.8609 26.6559 82.9301 33.8084 78.8529C33.8606 78.8236 33.9133 78.793 33.9656 78.7633L2.93646 96.4503ZM102.108 12.4507C102.108 12.4507 105.034 7.61063 105.368 7.26306C105.702 6.91549 107.48 7.17142 108.702 7.88473C109.925 8.59804 135.878 23.5222 135.878 23.5222C135.878 23.5222 136.732 24.8985 136.732 25.4244C136.732 25.4603 136.717 25.5156 136.692 25.5862C136.343 26.5583 133.788 30.5625 133.788 30.5625L102.108 12.4507ZM112.982 0.9733L112.502 0.698792C112.012 0.698792 111.315 1.22056 110.442 1.7184C108.666 2.73057 106.608 4.06844 105.478 5.36957C103.222 7.96894 101.183 12.082 101.075 12.2987C101.033 12.2637 100.23 11.6168 94.0964 11.7671C87.9632 11.9194 84.1903 12.7933 83.9912 12.8395C74.9523 16.9439 63.9641 22.5893 56.1313 28.7193C46.3063 36.4105 31.457 55.4301 30.6751 56.4319C30.2077 56.7403 21.32 62.5991 13.966 68.7621C6.61242 74.926 3.0782 80.8545 2.89256 81.1674C2.88503 81.1707 2.87834 81.181 2.87165 81.1971L2.85409 81.2223L2.86747 81.3693C2.62288 83.785 2.45229 84.7307 1.03116 86.6444C1.01862 86.7141 1.00607 86.7839 0.99395 86.8537C0.453342 89.9732 2.22945 93.4795 3.08238 94.9391C2.92768 95.2541 2.86496 95.536 2.84824 95.7696L2.93646 96.4503L36.4073 115.53C36.3931 115.496 36.1314 114.877 36.5532 114.018C35.7007 112.559 33.9242 109.052 34.4648 105.933C35.1145 102.187 36.1815 100.512 36.3425 100.276C36.3492 100.261 36.3563 100.25 36.3634 100.246C36.5495 99.9343 40.0833 94.0058 47.4369 87.8419C54.7913 81.6776 63.6781 75.8193 64.146 75.5105C64.9274 74.5099 79.7772 55.4891 89.6022 47.7991C94.2624 44.1513 99.6312 40.9376 105.134 37.98C112.242 34.1596 119.71 31.0413 127.567 30.8456C133.701 30.6958 134.504 31.3435 134.547 31.3773C134.654 31.1606 136.693 27.0487 138.948 24.4494C140.079 23.1474 142.138 21.8095 143.913 20.797C144.656 20.3734 145.273 19.9317 145.742 19.81L112.982 0.9733Z" fill="white"/>
</mask>
<g mask="url(#mask1_6_5187)">
<path d="M0.453323 0.698822V115.53H145.742V0.698822H0.453323Z" fill="url(#paint0_linear_6_5187)"/>
</g>
</g>
<path d="M56.279 70.6304C56.2392 70.7287 56.5691 70.8789 57.1612 71.1303C56.5884 70.7448 56.3208 70.5714 56.279 70.6304ZM80.2141 55.1977C74.7478 54.8162 67.7617 52.4489 61.6169 48.95C56.0051 45.7546 51.0869 41.6109 48.6507 37.1631C40.6507 45.4355 32.5169 55.8528 31.9483 56.5809L31.9474 56.5818L31.9186 56.6189L31.911 56.6243C34.2629 61.0255 39.143 65.1469 44.7272 68.3258C50.5367 71.6343 57.0955 73.9179 62.3628 74.4381L60.6021 73.4341C57.5968 71.721 55.6338 70.5809 55.763 70.346L55.7664 70.3398C55.8454 70.2044 57.1846 70.8649 60.2919 72.5949C60.4888 72.7006 60.6899 72.8116 60.8952 72.9289L61.2431 73.1266C61.956 73.527 62.7462 73.9741 63.6183 74.4698C64.5879 73.6009 68.6799 68.7464 72.6511 64.0331C75.7475 60.3588 78.7712 56.77 80.2141 55.1977ZM80.9579 54.687L80.9889 54.7052L81.3167 54.8922L81.0553 55.1605C79.865 56.3845 76.5298 60.3419 73.1047 64.4051C69.3117 68.9078 65.4078 73.5386 64.1397 74.7774L64.8237 75.167L63.7296 75.1183L63.6589 75.165L63.564 75.1109C58.025 74.8521 50.7796 72.4451 44.4328 68.8319C38.6697 65.5497 33.6366 61.2666 31.2743 56.6825L31.2107 56.5599L31.1304 56.4381L31.3738 56.2767L31.5088 56.188C32.284 55.1956 40.5068 44.6912 48.5085 36.4654L48.7974 36.1695L48.9856 36.5352C51.2935 41.0149 56.2392 45.2155 61.91 48.4439C68.1995 52.0253 75.3675 54.4059 80.8233 54.6491L80.8948 54.6524L80.9579 54.687Z" fill="#100F0D"/>
<path fill-rule="evenodd" clip-rule="evenodd" d="M37.979 97.8514C39.6995 95.4993 42.8131 91.7168 47.4369 87.8419C52.355 83.7193 57.9585 79.7342 61.2711 77.4539L51.6016 71.9419C50.4531 71.4886 49.3025 70.9887 48.164 70.4475C44.6694 68.7852 41.2912 66.732 38.4213 64.4294L27.8002 58.3741C24.4876 60.6548 18.8838 64.6408 13.966 68.7621C9.34221 72.6383 6.2286 76.4203 4.50768 78.7728C3.49211 80.1614 2.96154 81.051 2.89255 81.1674C2.88502 81.1707 2.87833 81.181 2.87164 81.1971L2.86746 81.2021C5.39197 83.9868 9.20633 87.3164 13.535 90.4087C20.93 95.6925 29.8247 100.282 36.3425 100.276C36.3492 100.261 36.3563 100.25 36.3634 100.246C36.4324 100.13 36.963 99.24 37.979 97.8514Z" fill="#DCD9EC"/>
<path fill-rule="evenodd" clip-rule="evenodd" d="M13.535 90.4087C9.20637 87.3164 5.39201 83.9868 2.8675 81.2021L2.85412 81.2223L2.8675 81.3693C2.62291 83.785 2.45232 84.7307 1.03119 86.6456C3.1794 88.7274 5.81973 90.9697 8.73015 93.148C9.27995 93.56 9.83979 93.969 10.4076 94.3748C18.1843 99.9302 27.4909 104.779 34.4891 105.053L34.4916 105.054H34.5075C34.5485 105.055 34.5903 105.058 34.6312 105.06L34.6329 105.05C35.2525 105.022 37.7791 104.794 39.5807 102.999C41.6483 100.937 41.7369 97.3581 41.7369 97.3581C41.7369 97.3581 40.3693 98.8722 39.2137 99.4873C38.1588 100.047 36.9362 100.218 35.7927 100.265C29.3305 100.025 20.7243 95.5455 13.535 90.4087Z" fill="#C2BFD8"/>
<path fill-rule="evenodd" clip-rule="evenodd" d="M111.126 8.21538L139.173 24.2029C140.337 22.9802 142.249 21.746 143.913 20.797C144.656 20.3734 145.273 19.9317 145.742 19.81L112.982 0.9733L112.502 0.698792C112.012 0.698792 111.315 1.22056 110.442 1.7184C108.779 2.66617 106.866 3.90043 105.702 5.12313L111.126 8.21538Z" fill="#F5F6F5"/>
<path fill-rule="evenodd" clip-rule="evenodd" d="M116.042 46.1455L65.5696 74.9157C79.9574 57.3694 96.9876 38.742 119.4 33.6642V40.2805H119.471L116.042 46.1455Z" fill="#1B1918"/>
<path fill-rule="evenodd" clip-rule="evenodd" d="M66.4761 73.8135C80.6724 56.5958 97.4563 38.6351 119.4 33.6642V39.8165L116.042 45.5601L66.4761 73.8135Z" fill="#3E3C59"/>
<path fill-rule="evenodd" clip-rule="evenodd" d="M91.3595 48.0604C91.9056 47.6196 92.4558 47.1861 93.0089 46.7585C93.407 47.4285 93.7059 48.4819 93.7059 50.1401V58.131L93.6971 58.2102C93.6971 58.2115 93.693 58.2441 93.6854 58.3035L90.6157 60.0534L90.6124 60.048C91.0748 59.8433 91.2901 58.3721 91.3348 58.0204V50.1401C91.3348 48.7936 91.3491 48.2664 91.3595 48.0604Z" fill="#8F8BAA"/>
<path fill-rule="evenodd" clip-rule="evenodd" d="M101.209 12.0333C101.135 12.1782 101.089 12.2703 101.075 12.2988C101.067 12.2901 101.019 12.2521 100.883 12.1993L112.532 18.8399L112.699 18.9348L114.322 19.8595L134.354 31.2791C134.49 31.3319 134.537 31.3699 134.547 31.3773L134.549 31.3711C134.301 31.0413 131.932 28.1711 120.092 21.1086C117.248 19.4116 114.727 18.0189 112.529 16.8795C104.965 12.9592 101.209 12.0333 101.209 12.0333Z" fill="#DCD9EC"/>
<mask id="mask2_6_5187" style="mask-type:luminance" maskUnits="userSpaceOnUse" x="2" y="12" width="117" height="88">
<path d="M2.82068 12.7276H118.311V99.1702H2.82068V12.7276Z" fill="white"/>
</mask>
<g mask="url(#mask2_6_5187)">
<mask id="mask3_6_5187" style="mask-type:luminance" maskUnits="userSpaceOnUse" x="2" y="12" width="117" height="88">
<path fill-rule="evenodd" clip-rule="evenodd" d="M64.2158 75.423C65.2238 74.1326 73.6699 63.3714 81.8882 54.9248C82.6019 54.1917 83.3148 53.4751 84.0201 52.784C85.9672 50.8753 87.8637 49.1605 89.6022 47.7991C93.1385 45.0305 97.0837 42.5125 101.185 40.1661L101.187 40.1653C102.489 39.419 103.809 38.69 105.134 37.98L105.14 37.9767C105.457 37.8066 105.775 37.6373 106.093 37.4693L106.11 37.4611C108.881 36.006 111.706 34.671 114.587 33.587C115.815 33.1251 117.053 32.7086 118.302 32.3474L117.524 31.9044L112.202 28.8708L84.0535 12.8251C84.0222 12.8321 84.0021 12.8366 83.9912 12.8395C82.9468 13.313 81.8773 13.8075 80.789 14.321C72.4562 18.2546 63.0597 23.2973 56.1313 28.7193C54.3929 30.0807 52.4963 31.7967 50.5497 33.7042C49.8431 34.3953 49.1315 35.1119 48.4173 35.8462C39.9641 44.5339 31.2684 55.672 30.6751 56.4319C30.6463 56.4509 30.5844 56.4909 30.4924 56.5524C30.0948 56.8154 29.1331 57.4569 27.8002 58.3741C24.4876 60.6548 18.8838 64.6408 13.966 68.7621C9.34221 72.6382 6.2286 76.4203 4.50768 78.7728C3.49211 80.1614 2.96154 81.051 2.89255 81.1674C2.88502 81.1707 2.87833 81.181 2.87164 81.1971L2.86746 81.2021C5.39197 83.9868 9.20633 87.3164 13.535 90.4087C18.714 94.1094 24.6281 97.4687 29.9468 99.1479C30.5865 97.3114 31.8713 95.1843 34.3645 93.1311C40.6531 87.9505 63.1346 75.9967 64.2158 75.423ZM62.3887 74.734C59.1262 74.4178 55.3712 73.43 51.6016 71.9419C50.4531 71.4886 49.3025 70.9887 48.164 70.4475C44.6694 68.7852 41.2912 66.732 38.4213 64.4294C35.7358 62.2738 33.4961 59.901 32.0243 57.4251C31.8517 57.1345 31.6894 56.8431 31.5381 56.5504L31.5502 56.5376L31.5381 56.5194L31.7137 56.4034C32.2823 55.6753 40.6164 45 48.7217 36.6673C52.8777 44.7325 65.4358 51.8771 75.5472 54.183C77.4078 54.6069 79.1843 54.8678 80.8103 54.9397L80.8425 54.9586C78.1838 57.6913 64.8622 74.0182 63.6472 74.8215C63.2843 74.6155 62.9356 74.4178 62.6015 74.2275L62.581 74.2254C62.9218 74.4199 63.2705 74.6188 63.6271 74.8215C63.2232 74.8038 62.8093 74.7741 62.3887 74.734Z" fill="white"/>
</mask>
<g mask="url(#mask3_6_5187)">
<path d="M2.86746 12.8251V99.1479H118.302V12.8251H2.86746Z" fill="url(#paint1_linear_6_5187)"/>
</g>
</g>
<path fill-rule="evenodd" clip-rule="evenodd" d="M120.273 33.4706C123.505 32.7945 126.848 32.4002 130.31 32.3305C131.692 32.302 133.093 32.3263 134.515 32.4056L134.12 34.5022L133.836 36.0015L129.276 38.6025L126.331 40.2805L94.2089 58.5909L91.2642 60.2701L65.5696 74.9157C65.879 74.5384 66.1905 74.1598 66.5029 73.7817C71.6138 67.5828 77.0621 61.2876 82.9661 55.5391H82.9648C83.6928 54.8299 84.4269 54.1294 85.1699 53.4392C95.3349 43.9705 106.843 36.2838 120.273 33.4706ZM63.9629 75.631L63.8956 75.5931C63.3713 75.8721 62.303 76.4438 60.8656 77.2224C54.1287 80.8715 39.2864 89.0762 34.3645 93.1311C33.6964 93.6813 33.1148 94.2374 32.6097 94.7909C31.8814 95.5889 31.3107 96.3835 30.8654 97.1529C30.4665 97.8431 30.168 98.5131 29.9468 99.148C32.011 99.8002 33.9857 100.199 35.7927 100.265C35.952 100.259 36.1134 100.249 36.2752 100.238C36.3078 100.234 36.3404 100.232 36.3735 100.229C36.4734 100.062 37.0015 99.1872 37.979 97.8514C39.3976 95.9125 41.7624 93.0019 45.1399 89.8675L64.1184 79.0762L67.066 77.3999L94.2248 61.9568L97.1728 60.2804L129.334 41.9924L132.282 40.3164L138.308 36.8894L141.257 35.2134L144.661 33.2774V29.2213C144.631 28.7259 144.605 28.2261 144.596 27.7167C144.618 27.7146 144.639 27.7134 144.661 27.7125V27.6964C144.639 27.6977 144.618 27.6989 144.596 27.6997C144.589 27.1714 144.613 26.6661 144.661 26.1885C145.21 24.9935 145.939 23.4116 146.551 22.0874C146.633 21.9078 146.708 21.7377 146.775 21.578C146.693 20.016 146.336 19.6556 145.742 19.81C145.273 19.9318 144.656 20.3735 143.913 20.797C142.249 21.746 140.337 22.9803 139.173 24.203C139.095 24.2843 139.02 24.3668 138.948 24.4494C136.711 27.0277 134.687 31.0929 134.549 31.3711L134.547 31.3773C134.537 31.3699 134.489 31.3319 134.354 31.2791C133.884 31.0962 132.361 30.7358 127.7 30.8428C127.656 30.8436 127.612 30.8448 127.567 30.8457C124.417 30.9241 121.329 31.4723 118.303 32.3474C116.139 32.9728 114.07 33.7402 112.038 34.6141C110.042 35.4723 108.084 36.4328 106.11 37.4611L101.185 40.1662L101.184 40.1674C97.1799 42.4572 93.3259 44.9121 89.8548 47.6027C89.7745 47.6642 89.6951 47.7265 89.6148 47.7888L89.6022 47.7991L89.6001 47.8004C87.8658 49.1581 85.9748 50.8691 84.0331 52.7713L84.0201 52.7841C83.3148 53.4751 82.6019 54.1917 81.8882 54.9248C73.6733 63.3685 65.2281 74.1272 64.2158 75.423C64.1857 75.4597 64.1631 75.4894 64.146 75.5105C64.1172 75.5295 64.0553 75.5708 63.9629 75.631Z" fill="#E9E8E7"/>
<path fill-rule="evenodd" clip-rule="evenodd" d="M43.2546 95.3288L37.3949 98.6696L146 36.7627C145.999 35.8137 146 34.3899 146.011 32.508L144.784 33.2077L45.1398 89.8675C41.7624 93.0019 39.3976 95.9125 37.979 97.8514C37.762 98.1474 37.5676 98.4211 37.3949 98.6696C36.7882 99.5401 36.4512 100.099 36.3735 100.229C37.3414 100.149 38.3356 99.9534 39.2136 99.4873C40.3693 98.8722 41.7369 97.3581 41.7369 97.3581C41.7369 97.3581 41.7361 97.399 41.7315 97.4753C41.989 96.9796 42.4569 96.2209 43.2546 95.3288Z" fill="#F5F6F5"/>
<path d="M86.8201 13.8983C79.4017 16.257 71.2123 20.6174 64.2885 25.2997C57.5357 29.8661 51.9975 34.7263 49.5646 38.3201C49.4513 38.1364 49.3422 37.9515 49.236 37.7666C51.804 34.1216 57.3024 29.3154 63.9545 24.8168C70.6935 20.2603 78.6278 16.0056 85.9074 13.5813C86.1971 13.6775 86.5024 13.7832 86.8201 13.8983Z" fill="#8F8BAA"/>
<path d="M117.022 31.1775C109.649 33.5627 101.519 37.8508 94.6006 42.451C88.0598 46.8006 82.6128 51.4177 79.9315 54.9533C79.7057 54.9409 79.4766 54.9261 79.2454 54.9071C81.9074 51.2633 87.5213 46.4625 94.2795 41.9692C101.132 37.4124 109.173 33.1577 116.514 30.7325L116.59 30.7581C116.742 30.9006 116.884 31.0401 117.022 31.1775Z" fill="#8F8BAA"/>
<path d="M60.0853 74.3291C60.0862 74.3378 60.4307 77.2034 59.6593 78.978C59.3006 79.7999 57.5817 80.6568 55.0865 81.9018C49.404 84.734 39.5782 89.6331 33.3363 99.9934C33.1323 99.9575 32.9266 99.9183 32.72 99.8762C39.0409 89.2475 49.0466 84.2572 54.8202 81.3796C57.2004 80.1933 58.8402 79.3751 59.1145 78.7464C59.824 77.1159 59.4987 74.4009 59.4975 74.3935L60.0853 74.3291Z" fill="#8F8BAA"/>
<path d="M33.8511 59.7079C33.8431 59.7067 30.9892 59.3475 29.1817 60.2796C26.3486 61.7409 18.2562 67.9568 12.2309 73.8569C8.22509 77.7784 5.14659 81.532 5.19426 83.5757C5.0082 83.3994 4.82633 83.2228 4.6478 83.0473C5.04625 80.7576 8.02482 77.1526 11.8141 73.4424C17.8753 67.5077 26.0401 61.2423 28.9087 59.7628C30.88 58.7461 33.9163 59.1287 33.9255 59.13L33.8511 59.7079Z" fill="#8F8BAA"/>
<path fill-rule="evenodd" clip-rule="evenodd" d="M102.274 12.3557C103.875 12.8849 107.288 14.1638 112.529 16.8795C114.727 18.0189 117.248 19.4116 120.092 21.1086C128.837 26.3251 132.415 29.2543 133.788 30.5625C133.788 30.5625 135.861 27.3142 136.528 25.9582L107.511 9.37039L102.274 12.3557Z" fill="#E9E8E7"/>
<path fill-rule="evenodd" clip-rule="evenodd" d="M102.274 12.3557L107.511 9.37039C107.511 9.37039 107.94 8.66121 108.488 7.7671C107.281 7.14378 105.683 6.93573 105.368 7.26307C105.067 7.57721 102.643 11.5673 102.183 12.326C102.213 12.3355 102.243 12.3462 102.274 12.3557Z" fill="#C2BFD8"/>
<path d="M109.693 10.6174C109.164 10.9394 108.694 11.2185 108.181 11.545C105.727 13.1111 103.717 14.3933 100.984 14.4164C100.859 14.3602 100.734 14.3053 100.61 14.2517C100.157 14.0527 99.7157 13.8637 99.2876 13.6841C102.788 14.2905 105.014 12.8705 107.862 11.0538C108.357 10.7388 108.521 10.6257 109.095 10.2748L109.693 10.6174Z" fill="#8F8BAA"/>
<path d="M126.113 29.0673C128.1 28.2863 129.425 27.8203 131.884 28.6413L136.45 25.914L136.528 25.9581C136.528 25.9581 136.269 26.437 136.049 26.8366L132.071 29.213L131.954 29.284L131.822 29.2374C129.588 28.4626 128.342 28.8275 126.583 29.5098C126.434 29.3641 126.277 29.2163 126.113 29.0673Z" fill="#8F8BAA"/>
<path fill-rule="evenodd" clip-rule="evenodd" d="M119.4 33.6642V40.4019L116.042 46.1455L133.836 36.0015L134.515 32.4056C134.515 32.4056 125.278 31.9722 119.4 33.6642Z" fill="#CCCCC9"/>
<path d="M116.338 45.8062V51.6427L116.333 51.6745L113.272 68.4641L113.248 68.5941L113.135 68.6618L68.1823 95.6599L67.7316 95.9302V78.8962L65.4454 74.9862L65.9572 74.6956L68.2839 78.6754L68.3245 78.7452V94.8916L112.714 68.2317L115.745 51.6026V45.8062H116.338Z" fill="#8F8BAA"/>
<path d="M93.0252 59.3719L93.9956 64.0385L94.0023 64.0711V80.0715H93.4094V64.1207L92.447 59.4891L93.0252 59.3719Z" fill="#8F8BAA"/>
<path fill-rule="evenodd" clip-rule="evenodd" d="M88.8551 64.6829L89.2886 64.4261C89.6181 64.2309 89.8878 64.4327 89.8878 64.8753V64.8765C89.8878 65.3194 89.6181 65.8412 89.2886 66.0369L88.8551 66.2944C88.5252 66.4901 88.2555 66.287 88.2555 65.8445C88.2555 65.4007 88.5252 64.8786 88.8551 64.6829Z" fill="#8F8BAA"/>
<path fill-rule="evenodd" clip-rule="evenodd" d="M88.8551 64.6829L89.2886 64.4261C89.4404 64.3353 89.5805 64.3299 89.6867 64.3947C89.7444 64.4835 89.7786 64.6111 89.7786 64.7687C89.7786 65.2113 89.509 65.7347 89.1791 65.9299L88.7468 66.1867C88.5937 66.2767 88.4545 66.282 88.3487 66.2185C88.2898 66.1285 88.2555 66.0018 88.2555 65.8445C88.2555 65.4007 88.5252 64.8785 88.8551 64.6829Z" fill="#BEB7D5"/>
<path fill-rule="evenodd" clip-rule="evenodd" d="M87.9741 65.6847L90.1704 64.382C90.3042 64.3027 90.4133 64.384 90.4133 64.5648C90.4133 64.7444 90.3042 64.9557 90.1704 65.0358L87.9741 66.3378C87.8403 66.417 87.7299 66.3357 87.7299 66.1561C87.7299 65.9753 87.8403 65.764 87.9741 65.6847Z" fill="#8F8BAA"/>
<path fill-rule="evenodd" clip-rule="evenodd" d="M110.079 52.5855L110.511 52.3283C110.842 52.1331 111.112 52.3349 111.112 52.7787C111.112 53.2216 110.842 53.7434 110.511 53.9399L110.079 54.1971C109.749 54.3923 109.479 54.1896 109.479 53.7467C109.479 53.3029 109.749 52.7808 110.079 52.5855Z" fill="#8F8BAA"/>
<path fill-rule="evenodd" clip-rule="evenodd" d="M110.079 52.5855L110.511 52.3283C110.664 52.2375 110.803 52.2322 110.91 52.297C110.968 52.3857 111.002 52.5133 111.002 52.671C111.002 53.1139 110.733 53.6369 110.403 53.8322L109.97 54.0889C109.817 54.1789 109.679 54.1843 109.572 54.1207C109.514 54.0311 109.479 53.904 109.479 53.7467C109.479 53.3029 109.749 52.7808 110.079 52.5855Z" fill="#BEB7D5"/>
<path fill-rule="evenodd" clip-rule="evenodd" d="M109.197 53.587L111.393 52.2842C111.527 52.2049 111.636 52.2862 111.636 52.467C111.636 52.6466 111.527 52.858 111.393 52.9385L109.197 54.24C109.063 54.3205 108.954 54.2379 108.954 54.0584C108.954 53.8776 109.063 53.6662 109.197 53.587Z" fill="#8F8BAA"/>
<path fill-rule="evenodd" clip-rule="evenodd" d="M144.662 29.2312L140.958 31.3773C140.958 31.3773 141.072 33.2213 139.458 36.2364L144.784 33.2077V33.2044C144.859 31.8211 144.742 30.5381 144.662 29.2312Z" fill="#E33450"/>
<path d="M144.661 29.5693L141.254 31.5441C141.24 32.0865 141.078 33.8343 139.72 36.3726C137.578 40.3734 136.36 40.9979 133.37 42.5315V42.5323C132.616 42.9183 131.748 43.3641 130.747 43.923L128.695 46.6916C128.358 46.8027 128.016 46.9348 127.669 47.0871L130.307 43.528L130.345 43.478L130.4 43.4466C131.465 42.8493 132.34 42.4014 133.097 42.0126H133.098C135.97 40.5393 137.141 39.9391 139.196 36.1001C140.772 33.1569 140.663 31.3951 140.663 31.3901L140.654 31.2155L140.809 31.1259L144.661 28.894V29.5693Z" fill="#8F8BAA"/>
<path fill-rule="evenodd" clip-rule="evenodd" d="M46.6103 109.494C46.4063 108.868 46.2608 108.18 46.1801 107.433L36.187 113.361C36.3195 113.611 36.4441 113.831 36.5532 114.018C36.1874 114.763 36.3358 115.328 36.3906 115.486C38.8875 114.027 42.4305 111.952 46.6103 109.494Z" fill="#DCD9EC"/>
<path fill-rule="evenodd" clip-rule="evenodd" d="M36.299 115.467L7.69532 99.1628C6.26624 98.0681 4.95925 96.9511 3.9282 95.8848C3.61964 95.5657 3.33575 95.252 3.08029 94.9432C-0.0416894 101.323 30.3281 114.578 36.2643 115.611C36.2806 115.564 36.2923 115.515 36.299 115.467L36.4073 115.53C36.4056 115.526 36.3994 115.511 36.3906 115.486C36.3358 115.328 36.1874 114.763 36.5532 114.018C36.4441 113.831 36.3195 113.611 36.187 113.361C35.8098 112.655 35.3654 111.717 35.01 110.668C31.9683 110.92 28.0515 110.019 23.9353 108.42L36.299 115.467Z" fill="#DCD9EC"/>
<path fill-rule="evenodd" clip-rule="evenodd" d="M17.7586 105.591C27.3796 110.636 37.7252 113.155 40.3697 107.433C40.3697 107.433 38.8863 108.52 34.4301 108.203C27.8124 107.733 20.7694 105.133 14.5083 101.59C11.1087 99.6669 7.822 97.5818 5.22809 95.1439C3.57031 93.5851 2.2838 92.147 1.35728 91.0143C1.84521 92.6774 2.60741 94.1263 3.08238 94.9391L3.08029 94.9432C6.17676 98.684 13.5086 103.363 17.7586 105.591Z" fill="#C2BFD8"/>
<path fill-rule="evenodd" clip-rule="evenodd" d="M6.23863 84.5491L6.4527 91.3874C7.18982 91.9761 7.94993 92.5643 8.73011 93.148C9.27992 93.56 9.83976 93.9691 10.4075 94.3748C14.2888 97.1476 18.5509 99.7441 22.7173 101.683L28.4311 98.6312C23.5222 96.8339 18.2269 93.7606 13.535 90.4087C10.8415 88.4842 8.34713 86.469 6.23863 84.5491Z" fill="#464648"/>
<path fill-rule="evenodd" clip-rule="evenodd" d="M25.1566 100.38L28.2204 103.854C30.433 104.55 32.5499 104.977 34.489 105.053L34.4916 105.054H34.5074L34.6312 105.06L34.6329 105.05C35.1434 105.027 36.9487 104.868 38.5764 103.808C39.5682 102.885 40.3822 101.774 41.0282 100.699C41.5901 99.2697 41.708 97.8799 41.7314 97.4753L41.7369 97.3581C41.7369 97.3581 40.3693 98.8722 39.2136 99.4873C38.3356 99.9533 37.3413 100.149 36.3734 100.229C36.1782 100.246 35.9842 100.257 35.7927 100.265C35.0037 100.237 34.1826 100.144 33.3363 99.9934C33.1319 99.9587 32.9266 99.9195 32.72 99.8761C31.819 99.6925 30.8921 99.4472 29.9468 99.148C29.4463 98.9907 28.9408 98.8173 28.4311 98.6312L25.1566 100.38Z" fill="#E9E8E7"/>
<path fill-rule="evenodd" clip-rule="evenodd" d="M39.0121 103.379C39.8095 102.551 40.4793 101.612 41.0282 100.699C41.5902 99.2697 41.7081 97.8798 41.7315 97.4753L41.7357 97.382C41.6445 97.4741 41.5412 97.5756 41.4283 97.6834C40.9588 98.163 40.0331 99.0509 39.2137 99.4873C38.3356 99.9533 37.3414 100.149 36.3735 100.229C36.1782 100.246 35.9842 100.257 35.7927 100.265C35.0038 100.236 34.1826 100.144 33.3364 99.9934C33.1319 99.9587 32.9266 99.9195 32.7201 99.8761C31.8191 99.6924 30.8921 99.4472 29.9468 99.148C29.4463 98.9907 28.9408 98.8173 28.4312 98.6311L25.6838 100.099L28.6352 103.444C30.8474 104.14 32.9643 104.568 34.9038 104.644L34.9059 104.645H34.9218L35.0456 104.65L35.0477 104.641C35.5582 104.617 37.3635 104.459 38.9912 103.399L39.0121 103.379Z" fill="#8F8BAA"/>
<path fill-rule="evenodd" clip-rule="evenodd" d="M41.0345 100.682C41.591 99.259 41.7085 97.879 41.7315 97.4753L41.7357 97.382C41.6445 97.4741 41.5412 97.5756 41.4284 97.6834C40.9588 98.163 40.0331 99.0509 39.2137 99.4873C38.3356 99.9533 37.3414 100.149 36.3735 100.229C36.1782 100.246 35.9842 100.257 35.7927 100.265C35.0038 100.236 34.1826 100.144 33.3364 99.9934C33.1319 99.9587 32.9266 99.9195 32.7201 99.8761C31.8191 99.6924 30.8921 99.4472 29.9468 99.148C29.4463 98.9907 28.9409 98.8173 28.4312 98.6311L25.8427 100.014L28.728 103.285C30.9406 103.982 33.0571 104.409 34.9967 104.485L34.9992 104.486H35.0151L35.1388 104.491L35.1405 104.482C35.651 104.458 37.4564 104.3 39.0841 103.24L39.105 103.221C39.8609 102.435 40.5023 101.551 41.0345 100.682Z" fill="#E9E8E7"/>
<path fill-rule="evenodd" clip-rule="evenodd" d="M41.4283 97.6834C40.9588 98.163 40.0331 99.0509 39.2136 99.4873C38.3356 99.9533 37.3414 100.149 36.3735 100.229C36.1782 100.246 35.9842 100.257 35.7927 100.265C35.0038 100.236 34.1826 100.144 33.3364 99.9934C33.1319 99.9587 32.9266 99.9195 32.7201 99.8761C31.8191 99.6924 30.8921 99.4472 29.9468 99.148C29.5437 99.0212 29.1373 98.8838 28.7284 98.7381C30.9206 99.8633 33.5642 100.761 36.0335 100.807C38.1404 100.847 40.1201 100.268 41.5847 98.6852C41.685 98.1176 41.7202 97.6759 41.7315 97.4753V97.4732L41.7356 97.382C41.6445 97.4741 41.5412 97.5756 41.4283 97.6834Z" fill="white"/>
<path fill-rule="evenodd" clip-rule="evenodd" d="M38.5401 102.674L38.6228 100.492C37.9898 100.675 37.325 100.774 36.6427 100.801L38.5401 102.674Z" fill="#C2BFD8"/>
<path fill-rule="evenodd" clip-rule="evenodd" d="M34.6785 103.206L34.773 100.714C33.6014 100.567 32.4153 100.258 31.2776 99.8489L34.6785 103.206Z" fill="#C2BFD8"/>
<path fill-rule="evenodd" clip-rule="evenodd" d="M6.45269 91.3874C4.46544 89.7998 2.65004 88.2105 1.09093 86.7026C1.05957 86.7534 1.02738 86.8029 0.99393 86.8537C0.928288 87.233 0.89693 87.6169 0.893585 88.0025C2.84028 89.8526 5.15657 91.8163 7.69195 93.7395C7.85125 93.8601 8.01138 93.9814 8.17235 94.102C8.72216 94.5131 9.282 94.923 9.84978 95.328C17.6265 100.884 26.9331 105.732 33.9313 106.007L33.9338 106.009L33.9497 106.007L34.0734 106.013L34.0755 106.004C34.1654 106 34.2955 105.992 34.4577 105.975C35.4135 105.877 37.4831 105.488 39.023 103.952C39.5276 103.449 39.9143 102.856 40.2104 102.246C40.0243 102.512 39.8153 102.764 39.5807 102.999C39.2638 103.315 38.9243 103.582 38.5764 103.808C36.9487 104.868 35.1434 105.027 34.6329 105.05L34.6312 105.06L34.5074 105.054H34.4915L34.489 105.053C32.5499 104.977 30.433 104.55 28.2204 103.854C26.4343 103.29 24.5854 102.553 22.7173 101.683C18.5509 99.744 14.2888 97.1476 10.4075 94.3748C9.83975 93.969 9.27991 93.56 8.7301 93.148C7.94992 92.5643 7.18981 91.9761 6.45269 91.3874Z" fill="#DCD9EC"/>
<path fill-rule="evenodd" clip-rule="evenodd" d="M34.4301 108.203C36.8283 108.303 39.5385 104.804 40.3797 101.992C40.3258 102.078 40.2693 102.163 40.2104 102.246C39.9143 102.856 39.5276 103.449 39.023 103.952C37.4831 105.488 35.4135 105.877 34.4577 105.975C34.3356 106.707 34.3406 107.46 34.4301 108.203Z" fill="#CCCCC9"/>
<path fill-rule="evenodd" clip-rule="evenodd" d="M3.5766 88.9841L6.37372 88.8636L6.23867 84.5491C5.87868 84.2213 5.5304 83.8968 5.19425 83.5757C5.00819 83.3994 4.82631 83.2228 4.64778 83.0473C4.00098 82.4133 3.40518 81.7949 2.8675 81.2021L2.85412 81.2223L2.8675 81.3693C2.75294 82.502 2.65427 83.3115 2.43602 84.0479C2.42849 84.0735 2.42097 84.0979 2.41344 84.1222C2.40633 84.1462 2.39839 84.1705 2.39044 84.1949C2.3825 84.2192 2.37456 84.2436 2.36661 84.2679C2.35867 84.2923 2.35031 84.3167 2.34153 84.3398C2.29093 84.4847 2.23491 84.6283 2.17219 84.7707C2.16174 84.7951 2.15087 84.8194 2.14042 84.843C2.12955 84.8669 2.11826 84.8913 2.10739 84.9148C2.0961 84.9387 2.08439 84.9631 2.0731 84.9874C2.0614 85.011 2.04969 85.0349 2.03756 85.0593C2.02544 85.0836 2.01331 85.108 2.00077 85.1323C1.98823 85.1567 1.97568 85.1811 1.96272 85.2054C1.9113 85.3037 1.85653 85.4019 1.79799 85.5022C1.78336 85.5274 1.76872 85.553 1.75325 85.5782C1.7382 85.6038 1.72273 85.6289 1.70726 85.6545C1.69179 85.6797 1.6759 85.7049 1.66002 85.7313C1.57932 85.8605 1.49278 85.9934 1.39912 86.1301C1.37989 86.1573 1.36107 86.185 1.34184 86.2122C1.32261 86.2407 1.30337 86.2684 1.28331 86.2968C1.26324 86.3253 1.24359 86.353 1.2231 86.3815C1.20261 86.4112 1.18171 86.4397 1.1608 86.4681C1.1399 86.4975 1.11857 86.5264 1.09683 86.5557C1.07509 86.5854 1.05335 86.6151 1.03119 86.6456C1.05084 86.6646 1.07091 86.6836 1.09098 86.7026C1.86029 87.4465 2.69231 88.2106 3.5766 88.9841Z" fill="#E9E8E7"/>
<path fill-rule="evenodd" clip-rule="evenodd" d="M6.3603 88.4388L3.70785 88.6134L3.67148 88.6155L3.64472 88.5911C3.63887 88.5858 1.97732 87.0428 1.26404 86.3245L1.28327 86.2968C1.30334 86.2683 1.32257 86.2407 1.34181 86.2122L1.36062 86.1858C1.99656 86.8285 3.51427 88.2423 3.73336 88.4463L6.35528 88.2729L6.3603 88.4388Z" fill="#8F8BAA"/>
<path fill-rule="evenodd" clip-rule="evenodd" d="M3.33659 85.0931L6.24199 84.658L6.23865 84.5491C5.87866 84.2213 5.53038 83.8969 5.19423 83.5757C5.00817 83.3994 4.8263 83.2228 4.64777 83.0473C4.36596 82.7703 4.09336 82.4979 3.83121 82.2275C3.86006 83.8758 3.33659 85.0931 3.33659 85.0931Z" fill="#BEB7D5"/>
<path fill-rule="evenodd" clip-rule="evenodd" d="M14.5083 101.59C12.3137 100.348 10.1663 99.0402 8.2217 97.6128L7.83244 97.3907C7.4273 97.1591 6.90509 97.2978 6.67095 97.6982C6.56475 97.8799 6.5359 98.0858 6.57395 98.2782C6.93686 98.5734 7.3119 98.8689 7.6953 99.1628C7.84917 99.2813 8.00428 99.3985 8.16107 99.5158L20.3948 106.49C20.5031 106.552 20.6206 106.587 20.738 106.598C21.0591 106.628 21.3848 106.475 21.5563 106.182C21.79 105.782 21.6499 105.267 21.2448 105.036L20.1941 104.437C18.2516 103.59 16.3463 102.631 14.5083 101.59Z" fill="#464648"/>
<path fill-rule="evenodd" clip-rule="evenodd" d="M36.9968 110.294L35.148 108.244C34.9176 108.235 34.6784 108.221 34.4301 108.203C31.7183 108.011 28.935 107.46 26.1634 106.634L23.1095 107.95L22.9406 108.023C23.2734 108.159 23.605 108.292 23.9353 108.42C28.0515 110.019 31.9683 110.92 35.01 110.668C35.7233 110.608 36.3885 110.486 36.9968 110.294Z" fill="#E9E8E7"/>
<path fill-rule="evenodd" clip-rule="evenodd" d="M34.4301 108.203C31.7183 108.011 28.935 107.46 26.1634 106.634L23.1095 107.95L22.9406 108.023C22.9594 108.03 22.9787 108.038 22.9975 108.046C23.0531 108.029 23.115 108.011 23.1827 107.991C23.6121 107.867 24.2974 107.685 25.3639 107.433C27.7028 106.88 29.2356 108.206 33.4467 108.673C33.8335 108.715 34.1868 108.737 34.5095 108.741C34.8984 108.747 35.2429 108.726 35.5481 108.687L35.148 108.244C34.9176 108.235 34.6784 108.221 34.4301 108.203Z" fill="white"/>
<path d="M90.1278 49.2576C81.4225 56.5153 73.6838 65.3033 66.5907 73.9056L66.1872 74.3955L115.934 46.0386L119.266 40.3408C119.257 40.3226 119.253 40.3028 119.253 40.2805V33.8492C108.38 36.3503 98.7771 42.0485 90.1278 49.2576ZM66.3615 73.7214C73.4647 65.1068 81.2159 56.3052 89.9371 49.0346C98.6667 41.7579 108.37 36.0134 119.367 33.5226C119.448 33.5045 119.527 33.5532 119.545 33.6312C119.547 33.6432 119.548 33.6535 119.548 33.6642H119.549V40.1558C119.591 40.181 119.62 40.2277 119.62 40.2805C119.62 40.311 119.61 40.3395 119.594 40.3631L116.17 46.2186C116.155 46.245 116.133 46.2648 116.107 46.2763L65.6424 75.0424C65.5717 75.0824 65.4818 75.0581 65.4413 74.9887C65.4103 74.9347 65.4175 74.869 65.4551 74.8236L65.9066 74.2729L66.3615 73.7214Z" fill="white"/>
<path d="M56.2789 70.6304C56.2392 70.7287 56.5691 70.8789 57.1611 71.1303C56.5883 70.7448 56.3207 70.5714 56.2789 70.6304ZM80.2141 55.1977C74.7478 54.8163 67.7617 52.4489 61.6169 48.95C56.0051 45.7546 51.0869 41.6109 48.6506 37.1631C40.6506 45.4355 32.5169 55.8528 31.9482 56.581L31.9474 56.5818C31.9361 56.5966 31.9232 56.6094 31.9098 56.6222C34.2612 61.0247 39.1421 65.146 44.7272 68.3258C50.5367 71.6344 57.0955 73.9179 62.3628 74.4381L60.6021 73.4341C57.5968 71.721 55.6338 70.5809 55.763 70.346L55.7663 70.3398L55.7676 70.3378C55.8479 70.2036 56.0231 70.1549 56.1635 70.23C56.2639 70.2837 56.3195 70.3885 56.3174 70.4942C56.9767 70.7856 58.2536 71.461 60.2919 72.5949C60.4888 72.7006 60.6899 72.8116 60.8952 72.9289L61.2431 73.1266C61.9559 73.527 62.7462 73.9741 63.6183 74.4698C64.5879 73.6009 68.6799 68.7464 72.651 64.0331C75.7475 60.3589 78.7712 56.77 80.2141 55.1977ZM80.9579 54.687L80.9751 54.6965C81.001 54.7106 81.0252 54.7275 81.047 54.7473C81.1645 54.8596 81.1686 55.0445 81.0553 55.1605C79.865 56.3845 76.5298 60.3419 73.1047 64.4051C68.8781 69.4214 64.5152 74.5986 63.8111 75.0647C63.7617 75.0973 63.7019 75.1142 63.6417 75.1134H63.6141C58.0688 74.867 50.7988 72.4566 44.4328 68.8319C38.6697 65.5498 33.6365 61.2666 31.2743 56.6825H31.2747C31.2504 56.6359 31.24 56.5843 31.2429 56.5335C31.2387 56.434 31.2847 56.3358 31.3738 56.2767L31.5088 56.188C32.2836 55.1956 40.4972 44.704 48.4947 36.4803C48.5194 36.4506 48.5503 36.4254 48.5871 36.4072C48.733 36.3334 48.9119 36.3916 48.9855 36.5352C51.2935 41.0149 56.2392 45.2155 61.91 48.4439C68.1995 52.0253 75.3674 54.4059 80.8233 54.6491C80.8693 54.6511 80.9153 54.6639 80.9579 54.687Z" fill="white"/>
<path fill-rule="evenodd" clip-rule="evenodd" d="M66.8478 73.0989C66.8478 73.0989 65.56 74.3303 65.634 74.7497C65.7076 75.1691 66.0697 75.3161 66.4581 74.8777C66.8478 74.4389 67.1538 73.5778 67.8387 73.5778C68.524 73.5778 70.6634 74.119 71.9884 73.7891C73.3125 73.4605 72.9048 72.0971 72.9048 72.0971C72.9048 72.0971 69.8949 70.7212 68.7088 70.4855C67.5243 70.2498 66.4217 70.8451 66.8478 73.0989Z" fill="#3E3C59"/>
<path fill-rule="evenodd" clip-rule="evenodd" d="M67.4373 70.6432C67.2253 70.772 67.051 70.9656 66.9301 71.2327C66.8862 71.3322 66.8499 71.4412 66.821 71.5613C66.8369 71.7095 66.8733 71.8585 66.9364 72.0055V72.0063C67.0338 72.2304 67.1935 72.4492 67.4386 72.6498C67.5778 72.765 67.7454 72.8752 67.9449 72.9764C68.118 73.0643 68.3162 73.1477 68.5398 73.2228C69.2903 73.4754 70.3423 73.6476 71.7981 73.6855C71.9608 73.6897 72.118 73.693 72.2702 73.693C73.2506 73.2533 72.9048 72.0971 72.9048 72.0971C72.9048 72.0971 72.3141 71.8267 71.5519 71.5056C71.3625 71.4251 71.1622 71.3417 70.9577 71.2591C70.3314 71.0044 69.6679 70.7518 69.1519 70.5987C68.9872 70.5504 68.8375 70.5111 68.7088 70.4855C68.5411 70.4517 68.3739 70.436 68.2133 70.4381H68.2104C67.9265 70.4422 67.6622 70.507 67.4373 70.6432Z" fill="white"/>
<path fill-rule="evenodd" clip-rule="evenodd" d="M67.4373 70.6432C67.2253 70.772 67.0509 70.9656 66.9301 71.2327C66.8925 71.3165 66.8615 71.4073 66.8348 71.5064C66.854 71.6207 66.887 71.7359 66.9364 71.8498V71.8511C67.0338 72.0752 67.1935 72.2928 67.4385 72.4946C67.5777 72.6098 67.7454 72.7188 67.9448 72.8211C68.1179 72.9087 68.3161 72.9912 68.5398 73.0672C69.2903 73.3198 70.3422 73.4911 71.7981 73.5303C71.9607 73.5345 72.1179 73.5365 72.2701 73.5378C72.8061 73.2979 72.9466 72.8434 72.9625 72.481C72.9529 72.2569 72.9048 72.0971 72.9048 72.0971C72.9048 72.0971 72.314 71.8267 71.5518 71.5056C71.3624 71.4251 71.1621 71.3417 70.9577 71.2591C70.3314 71.0044 69.6678 70.7518 69.1519 70.5987C68.9872 70.5504 68.8375 70.5111 68.7087 70.4855C68.5411 70.4517 68.3738 70.436 68.2133 70.4381H68.2103C67.9264 70.4422 67.6622 70.507 67.4373 70.6432Z" fill="#C2BFD8"/>
<path fill-rule="evenodd" clip-rule="evenodd" d="M80.8425 54.9587L80.8103 54.9397C70.3389 54.4736 53.6415 46.2152 48.7217 36.6673C40.6164 45 32.2823 55.6753 31.7137 56.4034C31.6857 56.4212 31.6263 56.4604 31.5381 56.5194L31.5502 56.5376L31.5381 56.5504C36.4579 66.0971 53.1557 74.3555 63.6271 74.8215C55.5949 70.2436 51.5686 67.9506 63.6472 74.8215C64.8622 74.0182 78.1838 57.6914 80.8425 54.9587Z" fill="#100F0D"/>
<path fill-rule="evenodd" clip-rule="evenodd" d="M62.5789 74.2246C55.4988 70.1887 52.3103 68.3733 62.5994 74.2267C62.8754 74.249 63.1476 74.2667 63.4151 74.2783C55.6112 69.8304 51.7003 67.603 63.4344 74.2783C64.6147 73.4973 77.5562 57.6356 80.1401 54.981L80.1092 54.9632C69.9367 54.5095 53.7135 46.4869 48.9341 37.2118C41.06 45.3063 32.9634 55.6773 32.4107 56.3845C32.3835 56.4022 32.3262 56.4402 32.2405 56.4976L32.2522 56.5145L32.2405 56.5269C36.8911 65.5518 52.3755 73.3908 62.5789 74.2246Z" fill="#3E3C59"/>
<path d="M86.1312 13.2697C88.1004 13.9314 90.709 15.0315 93.5977 16.3945C96.9492 17.9768 100.675 19.9124 104.21 21.9289L104.226 21.9384C107.39 23.7423 110.404 25.6118 112.869 27.3489C115.075 28.9043 116.845 30.3606 117.9 31.578C118.599 31.3782 119.298 31.1978 119.995 31.038C120.73 30.87 121.466 30.7231 122.207 30.6005C122.956 30.477 123.712 30.3755 124.474 30.3016C125.213 30.2298 125.958 30.1823 126.707 30.1621C126.242 29.6655 125.67 29.142 125.004 28.5959C124.192 27.9293 123.239 27.2275 122.175 26.4981C121.05 25.727 119.798 24.9237 118.451 24.0993C117.103 23.2729 115.668 22.4275 114.176 21.5726C113.028 20.9134 111.864 20.2653 110.705 19.6387C109.522 18.9997 108.331 18.3739 107.154 17.7749C105.969 17.1714 104.803 16.5956 103.678 16.0597C102.549 15.5219 101.47 15.0261 100.462 14.5844C99.8826 14.331 99.3069 14.0858 98.7366 13.8521C98.1947 13.6292 97.6725 13.4228 97.1729 13.235C96.6858 13.0521 96.2338 12.8903 95.822 12.7528C95.4248 12.6199 95.0535 12.5056 94.7153 12.4127C93.892 12.4317 93.0228 12.4717 92.1301 12.532C91.2784 12.5902 90.408 12.6674 89.5421 12.7656C88.7907 12.8503 88.0482 12.9497 87.3265 13.0637C86.9243 13.1272 86.525 13.1958 86.1312 13.2697ZM85.0019 13.6705L84.6645 13.4781L84.6528 13.4707L84.3392 13.292C84.2334 13.2317 84.197 13.0988 84.2581 12.9931C84.2898 12.9378 84.3425 12.9019 84.4015 12.8895V12.8882L84.7686 12.8057C85.4844 12.6443 86.2336 12.5015 86.9979 12.3768C87.8073 12.2447 88.6323 12.1328 89.4589 12.0395C90.331 11.9413 91.2099 11.8633 92.0724 11.8042C92.9609 11.744 93.8406 11.7048 94.6885 11.6837L94.7044 11.6825L94.7249 11.6804H94.7311L94.7504 11.6792C94.7838 11.6763 94.8148 11.6804 94.8436 11.6911L94.852 11.694C95.2195 11.7935 95.6184 11.9149 96.0436 12.0565C96.4868 12.2034 96.9521 12.3694 97.4359 12.5522C97.9284 12.7372 98.4548 12.9452 99.0096 13.1735C99.5498 13.3956 100.136 13.6449 100.759 13.9186C101.799 14.3739 102.887 14.873 104.003 15.4042C105.135 15.9433 106.305 16.5204 107.492 17.126C108.664 17.7221 109.859 18.3508 111.058 18.9984C112.237 19.6358 113.407 20.2868 114.546 20.9406C116.05 21.803 117.493 22.6529 118.842 23.4789C120.192 24.3066 121.453 25.1148 122.594 25.8971C123.737 26.6801 124.756 27.4368 125.622 28.1563C126.492 28.8791 127.203 29.5672 127.725 30.2095L127.884 30.4052C127.96 30.4993 127.945 30.6376 127.85 30.7127C127.817 30.74 127.777 30.7548 127.737 30.7602L127.495 30.7982L126.964 30.8816L126.954 30.8836C126.939 30.8857 126.924 30.8869 126.909 30.8869L126.785 30.889C126.037 30.908 125.291 30.9546 124.548 31.0277C123.807 31.0995 123.068 31.1978 122.329 31.3212C121.594 31.443 120.861 31.5887 120.129 31.7567C119.394 31.9259 118.668 32.115 117.952 32.3222L117.892 32.34C117.831 32.3569 117.769 32.3474 117.719 32.3189L117.665 32.2884L117.653 32.2809L117.48 32.1827H117.479L117.457 32.1699C117.434 32.1571 117.415 32.1402 117.399 32.1212L117.397 32.1204L117.382 32.1022L117.372 32.0906C116.364 30.9113 114.625 29.4814 112.443 27.9437C109.997 26.2195 107.003 24.3635 103.861 22.5712C103.847 22.5662 103.835 22.5588 103.823 22.5501C100.3 20.5423 96.5938 18.617 93.2661 17.0455C89.9919 15.5004 87.0849 14.2992 85.0809 13.7039L85.065 13.6998C85.0445 13.6936 85.0253 13.6849 85.0073 13.6734L85.0019 13.6705Z" fill="white"/>
<path d="M85.2556 13.2222C89.3396 14.4416 97.0858 18.1204 104.1 22.1179H104.099C110.097 25.5375 115.564 29.194 117.76 31.7525L117.868 31.8149C119.313 31.3996 120.771 31.0611 122.243 30.8163C123.737 30.5686 125.247 30.4176 126.773 30.3796L126.89 30.3767L127.158 30.3342C126.131 29.1412 124.437 27.7823 122.3 26.3177C120.038 24.7672 117.281 23.0995 114.287 21.3823C111.977 20.0585 109.58 18.7639 107.254 17.5792C104.888 16.3734 102.597 15.282 100.551 14.3846C99.3645 13.8649 98.2536 13.4083 97.2518 13.0298C96.2969 12.6707 95.4515 12.3863 94.7428 12.1931H94.7311C93.0913 12.2319 91.2976 12.3462 89.5173 12.5468C88.0531 12.7128 86.6019 12.9357 85.2556 13.2222ZM85.113 13.4802L84.776 13.2878L84.4495 13.1016L84.8166 13.0195C86.2787 12.6905 87.8754 12.4383 89.4835 12.2575C91.2642 12.0564 93.0645 11.9413 94.7152 11.9025L94.7428 11.8992L94.7675 11.8971L94.7942 11.9045C95.5242 12.1031 96.388 12.3916 97.3568 12.7574C98.351 13.1314 99.4674 13.5912 100.671 14.1183C102.728 15.0199 105.024 16.1146 107.39 17.3204C109.721 18.5072 112.123 19.8038 114.435 21.1301C117.433 22.8494 120.198 24.5212 122.468 26.0774C124.746 27.6386 126.527 29.0842 127.552 30.347L127.711 30.5422L127.46 30.5827L126.927 30.6661L126.918 30.6681H126.907L126.78 30.6702C125.27 30.7082 123.774 30.8584 122.292 31.1045C120.809 31.3509 119.341 31.6923 117.889 32.1117L117.829 32.1298L117.774 32.0981L117.59 31.9932L117.568 31.9796L117.551 31.9606C115.391 29.4285 109.94 25.7839 103.952 22.3705H103.951C96.9403 18.3751 89.2017 14.6996 85.1452 13.4938L85.1281 13.4897L85.113 13.4802Z" fill="#100F0D"/>
<path fill-rule="evenodd" clip-rule="evenodd" d="M84.8496 13.1619L85.187 13.3543C92.7296 15.5957 112.952 26.3416 117.664 31.8665L117.848 31.9722C120.765 31.1288 123.741 30.6004 126.776 30.5257C126.819 30.5245 126.862 30.5232 126.904 30.5224L127.437 30.4378C125.405 27.9354 120.353 24.6933 114.361 21.2568C109.7 18.5831 104.681 16.0354 100.61 14.2517C98.2569 13.2201 96.2212 12.4432 94.7557 12.0449L94.7269 12.0469C91.5982 12.1212 87.9206 12.4696 84.8496 13.1619Z" fill="#3E3C59"/>
<path fill-rule="evenodd" clip-rule="evenodd" d="M134.255 54.7168L136.056 55.6212C136.075 55.3805 136.088 55.1407 136.094 54.9038C136.098 54.7758 136.099 54.6482 136.099 54.5211L136.094 54.2235C136.02 51.428 134.997 49.4425 133.374 48.4629V48.4609L133.074 48.297C132 47.7517 130.692 47.6175 129.239 47.9428C129.488 48.1735 129.713 48.4386 129.912 48.7378C132.493 48.8877 134.245 51.0099 134.255 54.5888C134.256 54.6313 134.255 54.6747 134.255 54.7168Z" fill="#312D4A"/>
<path fill-rule="evenodd" clip-rule="evenodd" d="M65.1812 97.394L66.2783 98.0545C66.456 97.392 66.5948 96.7303 66.6901 96.076C66.7257 95.8308 66.7554 95.5868 66.7792 95.3437C66.8231 94.8892 66.8444 94.4401 66.8432 93.9975C66.8285 88.7274 63.5347 86.1998 59.1613 87.6483C59.8934 87.9633 60.5135 88.4843 60.9864 89.1947C63.5661 89.3445 65.3192 91.4667 65.3288 95.0456C65.3288 95.1315 65.3288 95.2157 65.3267 95.3024L65.3288 95.4898C65.3309 96.1111 65.2795 96.748 65.1812 97.394Z" fill="#312D4A"/>
<mask id="mask4_6_5187" style="mask-type:luminance" maskUnits="userSpaceOnUse" x="105" y="0" width="41" height="21">
<path d="M105.681 0.680634H145.819V20.2306H105.681V0.680634Z" fill="white"/>
</mask>
<g mask="url(#mask4_6_5187)">
<mask id="mask5_6_5187" style="mask-type:luminance" maskUnits="userSpaceOnUse" x="105" y="0" width="41" height="21">
<path fill-rule="evenodd" clip-rule="evenodd" d="M112.21 1.43536L112.69 1.7111L142.132 18.6402L144.88 20.22C145.207 20.0268 145.494 19.8737 145.742 19.8101L142.132 17.7346L112.982 0.973438L112.502 0.698929C112.012 0.698929 111.315 1.2207 110.442 1.71853C108.779 2.66631 106.866 3.90057 105.702 5.12327L106.001 5.29334C107.16 4.263 108.744 3.25702 110.15 2.4562C111.023 1.95837 111.72 1.43536 112.21 1.43536Z" fill="white"/>
</mask>
<g mask="url(#mask5_6_5187)">
<path d="M105.702 0.698929V20.22H145.742V0.698929H105.702Z" fill="url(#paint2_linear_6_5187)"/>
</g>
</g>
<path fill-rule="evenodd" clip-rule="evenodd" d="M111.813 2.11469L112.292 2.38961C116.059 4.55596 140.927 19.2614 144.879 20.2211L142.132 18.6422L141.736 18.4139L112.584 1.65277L112.207 1.43523C111.717 1.43729 111.021 1.95948 110.149 2.45607C108.744 3.25689 107.16 4.26287 106.001 5.29321C106.518 4.94027 111.22 2.11469 111.813 2.11469Z" fill="#3E3C59"/>
<path fill-rule="evenodd" clip-rule="evenodd" d="M61.2176 73.0176C57.5675 68.088 52.7556 60.0629 51.4252 50.6639C50.7591 45.9639 50.7709 42.7965 51.1145 40.666C51.1233 40.6144 51.1317 40.5624 51.1405 40.5121C50.2583 39.4372 49.5124 38.3338 48.9341 37.2118C48.8798 37.2675 48.825 37.3236 48.7715 37.3798C40.9488 45.4491 32.9596 55.6815 32.4107 56.3845L32.2405 56.4976L32.2522 56.5145L32.2405 56.5269C32.6937 57.4061 33.2494 58.2751 33.8933 59.1254C33.9029 59.1382 33.9117 59.1498 33.9213 59.1626C39.748 66.8323 52.7021 73.1444 61.8686 74.1557C61.9463 74.1644 62.0237 74.1726 62.1006 74.1813C61.9969 74.048 61.892 73.9117 61.785 73.7722L61.7733 73.7553C61.6298 73.5691 61.4852 73.3772 61.3384 73.1803C61.302 73.1307 61.2648 73.082 61.2285 73.0325C55.4708 69.7504 53.2113 68.4633 61.2176 73.0176ZM57.1469 71.125L57.1235 71.1146C57.0282 71.0606 56.9396 71.0098 56.8559 70.9623C56.6118 70.8228 56.4182 70.7118 56.2781 70.6325L56.2769 70.6317C56.1054 70.5343 56.0181 70.4835 56.0231 70.4868C56.0252 70.4876 56.0477 70.5004 56.0929 70.526C56.1347 70.5491 56.1966 70.585 56.279 70.6304C56.4633 70.7361 56.7489 70.8988 57.1469 71.125Z" fill="#3D3757"/>
<defs>
<linearGradient id="paint0_linear_6_5187" x1="0.453237" y1="58.1143" x2="145.742" y2="58.1143" gradientUnits="userSpaceOnUse">
<stop stop-color="#CCCCC9"/>
<stop offset="0.015625" stop-color="#CDCCCA"/>
<stop offset="0.03125" stop-color="#CDCCCB"/>
<stop offset="0.046875" stop-color="#CECDCC"/>
<stop offset="0.0625" stop-color="#CFCECD"/>
<stop offset="0.078125" stop-color="#D0CFCD"/>
<stop offset="0.09375" stop-color="#D0D0CE"/>
<stop offset="0.109375" stop-color="#D1D0CF"/>
<stop offset="0.125" stop-color="#D1D1CF"/>
<stop offset="0.140625" stop-color="#D2D2D0"/>
<stop offset="0.15625" stop-color="#D3D2D0"/>
<stop offset="0.171875" stop-color="#D3D2D1"/>
<stop offset="0.1875" stop-color="#D4D3D1"/>
<stop offset="0.203125" stop-color="#D4D4D2"/>
<stop offset="0.21875" stop-color="#D5D4D3"/>
<stop offset="0.234375" stop-color="#D5D5D3"/>
<stop offset="0.25" stop-color="#D6D6D4"/>
<stop offset="0.265625" stop-color="#D7D7D5"/>
<stop offset="0.28125" stop-color="#D8D7D5"/>
<stop offset="0.296875" stop-color="#D8D8D6"/>
<stop offset="0.3125" stop-color="#D9D8D7"/>
<stop offset="0.328125" stop-color="#DAD9D7"/>
<stop offset="0.34375" stop-color="#DAD9D8"/>
<stop offset="0.359375" stop-color="#DBDAD8"/>
<stop offset="0.375" stop-color="#DCDBD9"/>
<stop offset="0.390625" stop-color="#DDDBD9"/>
<stop offset="0.40625" stop-color="#DDDCDA"/>
<stop offset="0.421875" stop-color="#DEDDDB"/>
<stop offset="0.4375" stop-color="#DEDEDC"/>
<stop offset="0.453125" stop-color="#DFDEDC"/>
<stop offset="0.46875" stop-color="#E0DFDD"/>
<stop offset="0.484375" stop-color="#E0DFDE"/>
<stop offset="0.5" stop-color="#E1E0DE"/>
<stop offset="0.515625" stop-color="#E2E1DF"/>
<stop offset="0.53125" stop-color="#E2E2E0"/>
<stop offset="0.546875" stop-color="#E3E2E0"/>
<stop offset="0.5625" stop-color="#E3E3E1"/>
<stop offset="0.59375" stop-color="#E4E4E2"/>
<stop offset="0.609375" stop-color="#E5E5E3"/>
<stop offset="0.625" stop-color="#E6E5E4"/>
<stop offset="0.640625" stop-color="#E6E6E4"/>
<stop offset="0.65625" stop-color="#E7E7E5"/>
<stop offset="0.671875" stop-color="#E7E7E6"/>
<stop offset="0.6875" stop-color="#E8E8E6"/>
<stop offset="0.703125" stop-color="#E9E9E7"/>
<stop offset="0.71875" stop-color="#E9E9E8"/>
<stop offset="0.734375" stop-color="#EAEAE9"/>
<stop offset="0.75" stop-color="#EBEBEA"/>
<stop offset="0.765625" stop-color="#EBEBEA"/>
<stop offset="0.78125" stop-color="#ECECEB"/>
<stop offset="0.796875" stop-color="#ECECEB"/>
<stop offset="0.8125" stop-color="#EDEDEC"/>
<stop offset="0.828125" stop-color="#EDEEED"/>
<stop offset="0.84375" stop-color="#EEEEEE"/>
<stop offset="0.859375" stop-color="#EFEFEE"/>
<stop offset="0.875" stop-color="#EFF0EF"/>
<stop offset="0.890625" stop-color="#F0F0F0"/>
<stop offset="0.90625" stop-color="#F1F1F1"/>
<stop offset="0.921875" stop-color="#F2F2F2"/>
<stop offset="0.9375" stop-color="#F3F3F2"/>
<stop offset="0.953125" stop-color="#F4F3F3"/>
<stop offset="0.96875" stop-color="#F4F4F4"/>
<stop offset="0.984375" stop-color="#F5F5F4"/>
<stop offset="1" stop-color="#F5F5F5"/>
</linearGradient>
<linearGradient id="paint1_linear_6_5187" x1="2.86762" y1="55.9859" x2="118.302" y2="55.9859" gradientUnits="userSpaceOnUse">
<stop stop-color="#CCCCC9"/>
<stop offset="0.015625" stop-color="#CDCCCA"/>
<stop offset="0.03125" stop-color="#CECDCB"/>
<stop offset="0.046875" stop-color="#CFCECC"/>
<stop offset="0.0625" stop-color="#CFCECD"/>
<stop offset="0.078125" stop-color="#D0CFCD"/>
<stop offset="0.09375" stop-color="#D0D0CE"/>
<stop offset="0.109375" stop-color="#D1D1CF"/>
<stop offset="0.125" stop-color="#D1D1CF"/>
<stop offset="0.140625" stop-color="#D2D2D0"/>
<stop offset="0.15625" stop-color="#D3D2D0"/>
<stop offset="0.171875" stop-color="#D3D3D1"/>
<stop offset="0.1875" stop-color="#D4D3D2"/>
<stop offset="0.203125" stop-color="#D4D4D2"/>
<stop offset="0.21875" stop-color="#D5D4D3"/>
<stop offset="0.234375" stop-color="#D5D5D3"/>
<stop offset="0.25" stop-color="#D6D6D4"/>
<stop offset="0.265625" stop-color="#D7D7D5"/>
<stop offset="0.28125" stop-color="#D8D7D5"/>
<stop offset="0.296875" stop-color="#D8D8D6"/>
<stop offset="0.3125" stop-color="#D9D8D7"/>
<stop offset="0.328125" stop-color="#DAD9D7"/>
<stop offset="0.34375" stop-color="#DAD9D8"/>
<stop offset="0.359375" stop-color="#DBDAD8"/>
<stop offset="0.375" stop-color="#DCDBD9"/>
<stop offset="0.390625" stop-color="#DDDBD9"/>
<stop offset="0.40625" stop-color="#DDDCDA"/>
<stop offset="0.421875" stop-color="#DEDDDB"/>
<stop offset="0.4375" stop-color="#DEDEDC"/>
<stop offset="0.453125" stop-color="#DFDEDC"/>
<stop offset="0.46875" stop-color="#E0DFDD"/>
<stop offset="0.484375" stop-color="#E0DFDE"/>
<stop offset="0.5" stop-color="#E1E0DE"/>
<stop offset="0.515625" stop-color="#E2E1DF"/>
<stop offset="0.53125" stop-color="#E2E2E0"/>
<stop offset="0.546875" stop-color="#E3E2E0"/>
<stop offset="0.5625" stop-color="#E3E3E1"/>
<stop offset="0.59375" stop-color="#E4E4E2"/>
<stop offset="0.609375" stop-color="#E5E5E4"/>
<stop offset="0.625" stop-color="#E6E6E4"/>
<stop offset="0.640625" stop-color="#E6E6E4"/>
<stop offset="0.65625" stop-color="#E7E7E5"/>
<stop offset="0.671875" stop-color="#E7E7E6"/>
<stop offset="0.6875" stop-color="#E8E8E6"/>
<stop offset="0.703125" stop-color="#E9E9E7"/>
<stop offset="0.71875" stop-color="#E9E9E8"/>
<stop offset="0.734375" stop-color="#EAEAE9"/>
<stop offset="0.75" stop-color="#EBEBEA"/>
<stop offset="0.765625" stop-color="#EBEBEA"/>
<stop offset="0.78125" stop-color="#ECECEB"/>
<stop offset="0.796875" stop-color="#ECECEB"/>
<stop offset="0.8125" stop-color="#EDEDEC"/>
<stop offset="0.828125" stop-color="#EDEEED"/>
<stop offset="0.84375" stop-color="#EEEEEE"/>
<stop offset="0.859375" stop-color="#EFEFEE"/>
<stop offset="0.875" stop-color="#EFF0EF"/>
<stop offset="0.890625" stop-color="#F0F0F0"/>
<stop offset="0.90625" stop-color="#F1F1F1"/>
<stop offset="0.921875" stop-color="#F2F2F2"/>
<stop offset="0.9375" stop-color="#F3F3F2"/>
<stop offset="0.953125" stop-color="#F4F3F3"/>
<stop offset="0.96875" stop-color="#F4F4F4"/>
<stop offset="0.984375" stop-color="#F5F5F4"/>
<stop offset="1" stop-color="#F5F5F5"/>
</linearGradient>
<linearGradient id="paint2_linear_6_5187" x1="105.702" y1="10.4589" x2="145.742" y2="10.4589" gradientUnits="userSpaceOnUse">
<stop stop-color="#CCCCC9"/>
<stop offset="0.015625" stop-color="#CDCCCA"/>
<stop offset="0.03125" stop-color="#CECDCB"/>
<stop offset="0.046875" stop-color="#CFCECC"/>
<stop offset="0.0625" stop-color="#CFCECD"/>
<stop offset="0.078125" stop-color="#D0CFCD"/>
<stop offset="0.09375" stop-color="#D0D0CE"/>
<stop offset="0.109375" stop-color="#D1D1CF"/>
<stop offset="0.125" stop-color="#D1D1CF"/>
<stop offset="0.140625" stop-color="#D2D2D0"/>
<stop offset="0.15625" stop-color="#D3D2D0"/>
<stop offset="0.171875" stop-color="#D3D3D1"/>
<stop offset="0.1875" stop-color="#D4D3D2"/>
<stop offset="0.203125" stop-color="#D4D4D2"/>
<stop offset="0.21875" stop-color="#D5D4D3"/>
<stop offset="0.234375" stop-color="#D5D5D3"/>
<stop offset="0.25" stop-color="#D6D6D4"/>
<stop offset="0.265625" stop-color="#D7D7D5"/>
<stop offset="0.28125" stop-color="#D8D7D5"/>
<stop offset="0.296875" stop-color="#D8D8D6"/>
<stop offset="0.3125" stop-color="#D9D8D7"/>
<stop offset="0.328125" stop-color="#DAD9D7"/>
<stop offset="0.34375" stop-color="#DAD9D8"/>
<stop offset="0.359375" stop-color="#DBDAD8"/>
<stop offset="0.375" stop-color="#DCDBD9"/>
<stop offset="0.390625" stop-color="#DDDBD9"/>
<stop offset="0.40625" stop-color="#DDDCDA"/>
<stop offset="0.421875" stop-color="#DEDDDB"/>
<stop offset="0.4375" stop-color="#DEDEDC"/>
<stop offset="0.453125" stop-color="#DFDEDC"/>
<stop offset="0.46875" stop-color="#E0DFDD"/>
<stop offset="0.484375" stop-color="#E0DFDE"/>
<stop offset="0.5" stop-color="#E1E0DE"/>
<stop offset="0.515625" stop-color="#E2E1DF"/>
<stop offset="0.53125" stop-color="#E2E2E0"/>
<stop offset="0.546875" stop-color="#E3E2E0"/>
<stop offset="0.5625" stop-color="#E3E3E1"/>
<stop offset="0.59375" stop-color="#E4E4E2"/>
<stop offset="0.609375" stop-color="#E5E5E4"/>
<stop offset="0.625" stop-color="#E6E6E4"/>
<stop offset="0.640625" stop-color="#E6E6E4"/>
<stop offset="0.65625" stop-color="#E7E7E5"/>
<stop offset="0.671875" stop-color="#E7E7E6"/>
<stop offset="0.6875" stop-color="#E8E8E6"/>
<stop offset="0.703125" stop-color="#E9E9E7"/>
<stop offset="0.71875" stop-color="#E9E9E8"/>
<stop offset="0.734375" stop-color="#EAEAE9"/>
<stop offset="0.75" stop-color="#EBEBEA"/>
<stop offset="0.765625" stop-color="#EBEBEA"/>
<stop offset="0.78125" stop-color="#ECECEB"/>
<stop offset="0.796875" stop-color="#ECECEB"/>
<stop offset="0.8125" stop-color="#EDEDEC"/>
<stop offset="0.828125" stop-color="#EDEEED"/>
<stop offset="0.84375" stop-color="#EEEEEE"/>
<stop offset="0.859375" stop-color="#EFEFEE"/>
<stop offset="0.875" stop-color="#EFF0EF"/>
<stop offset="0.890625" stop-color="#F0F0F0"/>
<stop offset="0.90625" stop-color="#F1F1F1"/>
<stop offset="0.921875" stop-color="#F2F2F2"/>
<stop offset="0.9375" stop-color="#F3F3F2"/>
<stop offset="0.953125" stop-color="#F4F3F3"/>
<stop offset="0.96875" stop-color="#F4F4F4"/>
<stop offset="0.984375" stop-color="#F5F5F4"/>
<stop offset="1" stop-color="#F5F5F5"/>
</linearGradient>
</defs>
</svg>
