<svg width="49" height="22" viewBox="0 0 49 22" fill="none" xmlns="http://www.w3.org/2000/svg">
<path d="M4.52813 18.9482H6.47761V16.7812H4.52813C3.05579 16.7812 2.38778 16.0409 2.38778 14.4258V12.7836C2.38778 10.7916 3.88739 9.28409 6.51853 8.97453L11.9717 8.31498C12.7896 8.20731 13.3486 8.01891 13.9212 7.6824L18.9789 4.53282C21.9918 2.67537 23.9004 2.2312 29.0536 2.2312H31.1258C34.6976 2.2312 37.5332 3.53679 41.0505 6.5787C41.6912 7.13053 42.032 7.2786 42.85 7.53436L44.2952 7.99195C45.8491 8.48998 46.5716 9.28409 46.5716 10.6974V14.4258C46.5716 16.0409 45.9037 16.7812 44.4313 16.7812H42.4547V18.9482H44.4313C47.417 18.9482 48.7668 17.5484 48.7668 14.4258V10.6974C48.7668 8.19387 47.5396 6.63254 44.9496 5.79803L42.7819 5.08464C40.028 2.72921 36.2381 0.0641785 31.1258 0.0641785H29.0536C23.4914 0.0641785 21.1465 0.616028 17.8065 2.68883L12.2852 6.10758L6.24587 6.83445C2.46958 7.29204 0.192892 9.60712 0.192892 12.7836V14.5065C0.192892 17.5753 1.56981 18.9482 4.52813 18.9482ZM13.6349 18.9482H35.4883V16.7812H13.6349V18.9482ZM10.2267 21.8555C12.9396 21.8555 15.0663 19.7558 15.0663 17.0773C15.0663 14.3854 12.9396 12.2856 10.2267 12.2856C7.50009 12.2856 5.37337 14.3854 5.37337 17.0773C5.37337 19.7558 7.50009 21.8555 10.2267 21.8555ZM10.2267 19.8231C8.65886 19.8231 7.43195 18.6117 7.43195 17.0773C7.43195 15.5294 8.65886 14.3181 10.2267 14.3181C11.7808 14.3181 13.0078 15.5294 13.0078 17.0773C13.0078 18.6117 11.7808 19.8231 10.2267 19.8231ZM38.7329 21.8555C41.4595 21.8555 43.5862 19.7558 43.5862 17.0773C43.5862 14.3854 41.4595 12.2856 38.7329 12.2856C36.0064 12.2856 33.8797 14.3854 33.8797 17.0773C33.8797 19.7558 36.0064 21.8555 38.7329 21.8555ZM38.7329 19.8231C37.1788 19.8231 35.9382 18.6117 35.9382 17.0773C35.9382 15.5294 37.1788 14.3181 38.7329 14.3181C40.287 14.3181 41.5276 15.5294 41.5276 17.0773C41.5276 18.6117 40.287 19.8231 38.7329 19.8231Z" fill="#1B86FF"/>
</svg>
