<svg width="22" height="10" viewBox="0 0 22 10" fill="none" xmlns="http://www.w3.org/2000/svg">
<path d="M2.00426 8.67666H2.93345V7.54807H2.00426C1.40461 7.54807 1.12726 7.231 1.12726 6.55728V5.82603C1.12726 4.95448 1.75951 4.30943 2.90712 4.17312L5.33088 3.87595C5.69709 3.82778 5.96204 3.73699 6.2265 3.57889L8.47912 2.15706C9.81134 1.32405 10.6348 1.12862 12.9263 1.12862H13.8587C15.4212 1.12862 16.659 1.70829 18.2181 3.07328C18.5115 3.32988 18.677 3.40369 19.054 3.5235L19.6882 3.72712C20.3402 3.93796 20.6502 4.29426 20.6502 4.9015V6.55728C20.6502 7.231 20.3729 7.54807 19.7732 7.54807H18.8353V8.67666H19.7732C21.1346 8.67666 21.7775 8.00065 21.7775 6.55728V4.87549C21.7775 3.7134 21.2028 2.99116 20.0245 2.59729L19.0759 2.27603C17.8645 1.22351 16.1484 0 13.8587 0H12.9263C10.4306 0 9.3779 0.250096 7.87647 1.19569L5.43455 2.73144L2.7652 3.05655C1.0432 3.26667 0 4.34772 0 5.82603V6.59556C0 8.01274 0.652811 8.67666 2.00426 8.67666ZM6.12512 8.67666H15.6824V7.54807H6.12512V8.67666ZM4.60013 9.99013C5.84982 9.99013 6.83015 9.00865 6.83015 7.75744C6.83015 6.50019 5.84982 5.51874 4.60013 5.51874C3.34441 5.51874 2.3641 6.50019 2.3641 7.75744C2.3641 9.00865 3.34441 9.99013 4.60013 9.99013ZM4.60013 8.92499C3.94214 8.92499 3.42691 8.4102 3.42691 7.75744C3.42691 7.09863 3.94214 6.5828 4.60013 6.5828C5.2521 6.5828 5.76624 7.09863 5.76624 7.75744C5.76624 8.4102 5.2521 8.92499 4.60013 8.92499ZM17.1774 9.99013C18.4331 9.99013 19.4134 9.00865 19.4134 7.75744C19.4134 6.50019 18.4331 5.51874 17.1774 5.51874C15.9228 5.51874 14.9425 6.50019 14.9425 7.75744C14.9425 9.00865 15.9228 9.99013 17.1774 9.99013ZM17.1774 8.92499C16.5254 8.92499 16.0063 8.4102 16.0063 7.75744C16.0063 7.09863 16.5254 6.5828 17.1774 6.5828C17.8304 6.5828 18.3506 7.09863 18.3506 7.75744C18.3506 8.4102 17.8304 8.92499 17.1774 8.92499Z" fill="black"/>
</svg>
