<svg width="22" height="14" viewBox="0 0 22 14" fill="none" xmlns="http://www.w3.org/2000/svg">
<path d="M18 11H20C20.6 11 21 10.6 21 10V7C21 6.1 20.3 5.3 19.5 5.1C17.7 4.6 15 4 15 4C15 4 13.7 2.6 12.8 1.7C12.3 1.3 11.7 1 11 1H4C3.4 1 2.9 1.4 2.6 1.9L1.2 4.8C1.06758 5.18623 1 5.5917 1 6V10C1 10.6 1.4 11 2 11H4M18 11C18 12.1046 17.1046 13 16 13C14.8954 13 14 12.1046 14 11M18 11C18 9.89543 17.1046 9 16 9C14.8954 9 14 9.89543 14 11M4 11C4 12.1046 4.89543 13 6 13C7.10457 13 8 12.1046 8 11M4 11C4 9.89543 4.89543 9 6 9C7.10457 9 8 9.89543 8 11M8 11H14" stroke="white" stroke-width="2" stroke-linecap="round" stroke-linejoin="round"/>
</svg>
