<svg width="13" height="13" viewBox="0 0 13 13" fill="none" xmlns="http://www.w3.org/2000/svg">
<path d="M1.29543 8.63787C1.3763 8.84187 1.39431 9.0654 1.34713 9.27972L0.76138 11.0892C0.742507 11.181 0.747386 11.276 0.775557 11.3654C0.803727 11.4547 0.854254 11.5354 0.922347 11.5998C0.990439 11.6641 1.07384 11.71 1.16464 11.7331C1.25544 11.7561 1.35063 11.7556 1.44118 11.7316L3.31833 11.1827C3.52057 11.1426 3.73002 11.1601 3.92278 11.2333C5.09724 11.7818 6.42767 11.8978 7.67935 11.5609C8.93103 11.2241 10.0235 10.456 10.7641 9.39212C11.5046 8.32827 11.8456 7.03706 11.7269 5.7463C11.6082 4.45553 11.0374 3.24817 10.1153 2.33723C9.19311 1.42628 7.97886 0.870302 6.68673 0.767375C5.39461 0.664447 4.10765 1.02119 3.05292 1.77466C1.99819 2.52813 1.24347 3.62991 0.921921 4.8856C0.600371 6.14129 0.732653 7.47021 1.29543 8.63787Z" stroke="black" stroke-width="1.5" stroke-linecap="round" stroke-linejoin="round"/>
</svg>
