<svg width="177" height="304" viewBox="0 0 177 304" fill="none" xmlns="http://www.w3.org/2000/svg">
<path d="M69.5 -2.89381e-05C69.4 -2.89381e-05 69.3 3.99997 69.2 8.99997L69 18L34.5 18.3L0 18.5L0.2 148.8L0.5 279L35.1 279.3L69.7 279.5L69.4 291.3L69.1 303L79.2 303.3L89.4 303.6L90 299.2C90.4 296.7 90.5 291.2 90.3 286.9L90 279.1L100.4 277.8C139.3 273.2 167.6 250.4 174.9 217.6C176.8 209.3 177.1 192 175.6 184C173.3 172 167.8 160.5 160.4 152.2C155.1 146.1 142.8 138.1 134.7 135.4C127.3 132.9 127.3 133 136.5 127.5C142.7 123.8 155 110.4 158.3 103.8C163 94.5 164.5 88.2 164.5 77.1C164.5 41.9 143 21.5 103 18.9C98.1 18.6 93.2 18.2 92.2 18.1C90.6 17.9 90.3 16.7 90.2 9.09997L90 0.299971L79.7 0.199971C74.1 0.0999711 69.5 -2.89381e-05 69.5 -2.89381e-05ZM68.8 85.7L68.6 123L52.5 123.2L36.5 123.4V85.9V48.5H52.8H69L68.8 85.7ZM107 51C109.8 51.8 114.1 53.7 116.6 55.3C125.4 60.9 128.6 68.2 128.6 82.5C128.5 99.1 123.9 109.3 113.5 115.7C106.1 120.2 89.9 123.7 90.1 120.7C90.2 120.1 90.3 103.5 90.4 83.9L90.5 48.3L96.3 48.9C99.4 49.3 104.3 50.2 107 51ZM69 201V248.5H52.8H36.5V201V153.5H52.8H69V201ZM106.3 155.1C115.9 157.1 123.4 160.7 129.7 166.4C138.1 173.9 140.5 181.3 140.6 198.8C140.6 221.8 132.2 235.6 113.7 243C107.4 245.5 91.7 248.8 90.3 247.8C89.3 247.3 89.3 155 90.2 154.1C91.3 153 98.4 153.5 106.3 155.1Z" fill="black"/>
</svg>
