<svg width="9" height="14" viewBox="0 0 9 14" fill="none" xmlns="http://www.w3.org/2000/svg">
<path d="M4.37734 12.5094C6.73131 12.5094 8.77573 11.4454 8.77573 9.35976C8.77573 7.46599 7.18582 6.78933 5.27998 6.37594L3.99087 6.09149C2.74473 5.82007 1.81187 5.36233 1.81187 4.38265C1.81187 3.2914 3.07117 2.72942 4.38029 2.72942C5.65531 2.72942 6.60321 3.25657 6.97977 4.26623C7.13914 4.59996 7.39078 4.81353 7.80033 4.81353C8.22564 4.81353 8.54479 4.56948 8.54479 4.17045C8.54479 3.58782 8.10553 2.90382 7.54684 2.47244C6.71077 1.77302 5.56963 1.45657 4.37063 1.45657C2.19176 1.45657 0.183164 2.50466 0.183164 4.51176C0.183164 6.2849 1.77132 7.07349 3.55365 7.44606L4.84706 7.72035C6.19177 8.0058 7.15495 8.39747 7.15495 9.50006C7.15495 10.7609 5.82652 11.2427 4.39923 11.2427C3.00846 11.2427 1.90814 10.7452 1.56438 9.63852C1.41895 9.28563 1.17348 9.09247 0.779098 9.09247C0.31489 9.09247 0 9.36575 0 9.76175C0 10.3401 0.413187 10.9917 0.882502 11.4011C1.79858 12.1909 3.11294 12.5094 4.37734 12.5094ZM4.37277 13.9949C4.60602 13.9949 4.79469 13.8151 4.79469 13.599V0.390825C4.79469 0.179864 4.60602 0 4.37277 0C4.13831 0 3.94965 0.179864 3.94965 0.390825V13.599C3.94965 13.8151 4.13831 13.9949 4.37277 13.9949Z" fill="black"/>
</svg>
