<svg width="49" height="51" viewBox="0 0 49 51" fill="none" xmlns="http://www.w3.org/2000/svg">
<path d="M37.3277 19.0267L10.8451 3.63663L19.3572 7.09305L45.8402 22.4834L37.3277 19.0267Z" fill="#6A7A98"/>
<path d="M28.8629 32.2881L2.38007 16.898L10.8451 3.63663L37.3277 19.0267L28.8629 32.2881Z" fill="#7E8EAF"/>
<path d="M28.9024 50.6244L2.41961 35.2343L2.38007 16.898L28.8629 32.2881L28.9024 50.6244Z" fill="#AEC0E7"/>
<path d="M37.3277 19.0267L45.8402 22.4834L45.8797 40.8227L28.9024 50.6244L28.8629 32.2881L37.3277 19.0267Z" fill="#8090B2"/>
<path d="M37.3212 16.7175L10.8386 1.32733L21.7363 5.7527L48.2192 21.1427L37.3212 16.7175Z" fill="#9799A0"/>
<path d="M37.3202 16.2876L10.8372 0.897583L21.7352 5.32285L48.2178 20.7129L37.3202 16.2876Z" fill="#30231E"/>
<path d="M37.3212 16.7175L48.2192 21.1428L48.2258 23.4551L45.8402 22.4864L37.3277 19.0267L28.8629 32.2852L26.4905 36.0038L26.4839 33.6915L37.3212 16.7175Z" fill="#B7B8C0"/>
<path d="M26.484 33.6915L0.001297 18.3014L10.8386 1.32733L37.3212 16.7175L26.484 33.6915Z" fill="#B3B5BB"/>
<path d="M26.4829 33.2616L0 17.8716L10.8372 0.897583L37.3201 16.2876L26.4829 33.2616Z" fill="#4C352D"/>
<path d="M37.3202 16.2876L48.2178 20.7129L48.2192 21.1427L37.3212 16.7175L26.4839 33.6914L26.4829 33.2616L37.3202 16.2876Z" fill="#382923"/>
<path d="M18.8156 44.2639L19.1097 44.0929L20.3554 44.8122L20.061 44.9832L18.8156 44.2639Z" fill="#471A14"/>
<path d="M18.8251 40.864L19.1196 40.693L19.1097 44.0929L18.8156 44.2639L18.8251 40.864Z" fill="#3D1914"/>
<path d="M20.1565 41.5338L20.147 44.9339L18.9015 44.2146L18.911 40.8148L20.1565 41.5338Z" fill="#F5C8B3"/>
<path d="M20.061 44.9832L20.0705 41.5831L18.8251 40.864L18.8156 44.2639L20.061 44.9832ZM18.6776 40.6085L20.2191 41.4985L20.2085 45.2387L18.667 44.3487L18.6776 40.6085Z" fill="#762219"/>
<path d="M21.3079 45.7028L21.6022 45.5318L22.8477 46.2508L22.5533 46.4218L21.3079 45.7028Z" fill="#471A14"/>
<path d="M21.3174 42.303L21.6118 42.132L21.6022 45.5318L21.3079 45.7028L21.3174 42.303Z" fill="#3D1914"/>
<path d="M22.6491 42.9727L22.6392 46.3726L21.3938 45.6535L21.4033 42.2537L22.6491 42.9727Z" fill="#F5C8B3"/>
<path d="M22.5533 46.4219L22.5631 43.022L21.3174 42.303L21.3079 45.7028L22.5533 46.4219ZM21.1699 42.0471L22.7115 42.9374L22.701 46.6776L21.1593 45.7876L21.1699 42.0471Z" fill="#762219"/>
<path d="M21.3235 40.1792L21.6178 40.0082L22.8632 40.7275L22.5689 40.8985L21.3235 40.1792Z" fill="#471A14"/>
<path d="M21.3333 36.7794L21.6274 36.6084L21.6178 40.0082L21.3235 40.1793L21.3333 36.7794Z" fill="#3D1914"/>
<path d="M22.6647 37.4492L22.6551 40.8493L21.4093 40.13L21.4192 36.7301L22.6647 37.4492Z" fill="#F5C8B3"/>
<path d="M22.5689 40.8985L22.5787 37.4984L21.3333 36.7793L21.3235 40.1792L22.5689 40.8985ZM21.1855 36.5238L22.7273 37.4139L22.7166 41.1541L21.1749 40.264L21.1855 36.5238Z" fill="#762219"/>
<path d="M18.6815 39.2295L18.9756 39.0588L18.9729 40.0328L18.6788 40.2038L18.6815 39.2295Z" fill="#833C2C"/>
<path d="M18.6788 40.2038L18.9729 40.0328L23.0069 42.3618L22.7128 42.5328L18.6788 40.2038Z" fill="#984431"/>
<path d="M18.8289 39.4854L19.1234 39.3144L19.1215 39.9483L18.8273 40.1193L18.8289 39.4854Z" fill="#3D1914"/>
<path d="M20.2191 41.4985L20.5136 41.3275L20.5029 45.0677L20.2085 45.2387L20.2191 41.4985Z" fill="#3D1914"/>
<path d="M18.6776 40.6085L18.9717 40.4375L20.5136 41.3275L20.2191 41.4985L18.6776 40.6085Z" fill="#471A14"/>
<path d="M18.6826 38.8251L18.977 38.6541L20.5185 39.5442L20.2244 39.7152L18.6826 38.8251Z" fill="#984431"/>
<path d="M21.1699 42.0473L21.464 41.8763L23.0058 42.7664L22.7115 42.9374L21.1699 42.0473Z" fill="#471A14"/>
<path d="M22.7115 42.9374L23.0058 42.7664L22.9952 46.5066L22.701 46.6776L22.7115 42.9374Z" fill="#3D1914"/>
<path d="M18.8273 40.1193L19.1215 39.9483L22.8594 42.1063L22.5651 42.2773L18.8273 40.1193Z" fill="#471A14"/>
<path d="M18.6932 35.0849L18.9874 34.9139L18.977 38.6541L18.6826 38.8251L18.6932 35.0849Z" fill="#833C2C"/>
<path d="M18.14 34.0649L18.4342 33.8939L18.404 44.5447L18.1097 44.7157L18.14 34.0649Z" fill="#888A89"/>
<path d="M22.567 41.6432L22.8611 41.4722L22.8594 42.1062L22.5651 42.2772L22.567 41.6432Z" fill="#866D62"/>
<path d="M18.8289 39.4854L19.1234 39.3144L22.8611 41.4722L22.567 41.6433L18.8289 39.4854Z" fill="#9B7F72"/>
<path d="M22.5651 42.2772L22.567 41.6432L18.829 39.4854L18.8273 40.1193L22.5651 42.2772ZM18.6815 39.2295L22.7156 41.5587L22.7128 42.5328L18.6788 40.2038L18.6815 39.2295Z" fill="#762219"/>
<path d="M22.6568 41.591L22.6551 42.2247L18.917 40.0668L18.9189 39.4328L22.6568 41.591Z" fill="#F5C8B3"/>
<path d="M18.6815 39.2295L18.9756 39.0585L23.0097 41.3877L22.7156 41.5587L18.6815 39.2295Z" fill="#471A14"/>
<path d="M22.7155 41.5587L23.0097 41.3877L23.0069 42.3618L22.7128 42.5328L22.7155 41.5587Z" fill="#3D1914"/>
<path d="M20.0865 36.0595L20.3806 35.8885L20.371 39.2883L20.0766 39.4593L20.0865 36.0595Z" fill="#866D62"/>
<path d="M18.8407 35.3405L19.1352 35.1695L20.3806 35.8885L20.0865 36.0595L18.8407 35.3405Z" fill="#9B7F72"/>
<path d="M18.6932 35.0849L18.9873 34.9139L20.5292 35.804L20.2347 35.975L18.6932 35.0849Z" fill="#471A14"/>
<path d="M18.8312 38.7404L19.1255 38.5694L20.371 39.2883L20.0767 39.4593L18.8312 38.7404Z" fill="#471A14"/>
<path d="M18.8407 35.3405L19.1352 35.1695L19.1255 38.5693L18.8312 38.7403L18.8407 35.3405Z" fill="#3D1914"/>
<path d="M20.1724 35.9588L20.1626 39.3589L18.917 38.6399L18.9266 35.2398L20.1724 35.9588Z" fill="#F5C8B3"/>
<path d="M20.0767 39.4593L20.0865 36.0595L18.8407 35.3404L18.8312 38.7403L20.0767 39.4593ZM18.6932 35.0849L20.2347 35.975L20.2244 39.7152L18.6826 38.8251L18.6932 35.0849Z" fill="#762219"/>
<path d="M20.2347 35.975L20.5291 35.804L20.5185 39.5442L20.2243 39.7152L20.2347 35.975Z" fill="#3D1914"/>
<path d="M18.1474 31.4463L18.4415 31.2753L18.4358 33.3716L18.1414 33.5426L18.1474 31.4463Z" fill="#888A89"/>
<path d="M22.5788 37.4984L22.8729 37.3274L22.8633 40.7275L22.5689 40.8985L22.5788 37.4984Z" fill="#866D62"/>
<path d="M21.3333 36.7794L21.6274 36.6084L22.8729 37.3274L22.5788 37.4984L21.3333 36.7794Z" fill="#9B7F72"/>
<path d="M21.1855 36.5238L21.4799 36.3528L23.0214 37.2429L22.7273 37.4139L21.1855 36.5238Z" fill="#471A14"/>
<path d="M22.5689 40.8985L22.5787 37.4984L21.3333 36.7793L21.3235 40.1792L22.5689 40.8985ZM21.1855 36.5238L22.7273 37.4139L22.7166 41.1541L21.1749 40.264L21.1855 36.5238Z" fill="#762219"/>
<path d="M22.7273 37.4139L23.0214 37.2429L23.0108 40.9831L22.7166 41.1541L22.7273 37.4139Z" fill="#3D1914"/>
<path d="M23.2847 37.0352L23.5788 36.8642L23.5487 47.5149L23.2543 47.6859L23.2847 37.0352Z" fill="#833C2C"/>
<path d="M22.7128 42.5328L22.7156 41.5587L18.6815 39.2295L18.6788 40.2038L22.7128 42.5328ZM20.2085 45.2387L20.2191 41.4985L18.6776 40.6085L18.667 44.3487L20.2085 45.2387ZM22.701 46.6776L22.7115 42.9374L21.1699 42.0473L21.1593 45.7876L22.701 46.6776ZM18.6932 35.0849L18.6827 38.8251L20.2244 39.7152L20.2347 35.975L18.6932 35.0849ZM22.7166 41.1541L22.7273 37.4139L21.1855 36.5238L21.1749 40.264L22.7166 41.1541ZM18.14 34.0649L23.2847 37.0352L23.2543 47.6859L18.1097 44.7276L18.14 34.0649Z" fill="#EE6947"/>
<path d="M18.14 34.0649L18.4342 33.8939L23.5788 36.8642L23.2847 37.0352L18.14 34.0649Z" fill="#984431"/>
<path d="M18.1414 33.5426L18.4358 33.3716L23.5804 36.3419L23.2861 36.5129L18.1414 33.5426Z" fill="#9D9D9C"/>
<path d="M23.2921 34.4163L23.5862 34.2453L23.5804 36.3419L23.2861 36.5129L23.2921 34.4163Z" fill="#336481"/>
<path d="M18.1474 31.446L18.4415 31.275L23.5862 34.2453L23.292 34.4163L18.1474 31.446Z" fill="#3B7593"/>
<path d="M23.2861 36.5129L23.2921 34.4163L18.1474 31.4463L18.1414 33.5426L23.2861 36.5129ZM17.7045 30.679L23.7377 34.1623L23.6986 47.9423L23.2543 47.6859L23.2847 37.0352L18.14 34.0649L18.1097 44.7156L17.6653 44.4589L17.7045 30.679Z" fill="#FAFAFA"/>
<path d="M17.7045 30.679L17.9988 30.508L24.0319 33.9913L23.7377 34.1624L17.7045 30.679Z" fill="#9D9D9C"/>
<path d="M23.7377 34.1623L24.0319 33.9913L23.9927 47.7713L23.6986 47.9423L23.7377 34.1623Z" fill="#888A89"/>
<path d="M12.5786 36.3849L12.8731 36.2139L12.8682 37.8815L12.5741 38.0525L12.5786 36.3849Z" fill="#888A89"/>
<path d="M12.5741 38.0322L12.8682 37.8612L14.3856 38.7374L14.0912 38.9084L12.5741 38.0322Z" fill="#9D9D9C"/>
<path d="M14.0961 37.2606L14.3902 37.0896L14.3856 38.7572L14.0912 38.9282L14.0961 37.2606Z" fill="#336481"/>
<path d="M12.5786 36.3849L12.8731 36.2139L14.3902 37.0896L14.0961 37.2606L12.5786 36.3849Z" fill="#3B7593"/>
<path d="M12.5839 34.547L12.8783 34.376L12.8734 36.0436L12.5793 36.2146L12.5839 34.547Z" fill="#888A89"/>
<path d="M12.4884 34.4921L12.7828 34.3211L12.8783 34.376L12.5839 34.547L12.4884 34.4921Z" fill="#9D9D9C"/>
<path d="M12.5793 36.2146L12.8734 36.0436L14.3908 36.9198L14.0964 37.0908L12.5793 36.2146Z" fill="#9D9D9C"/>
<path d="M12.489 34.3218L12.7833 34.1508L12.7828 34.3211L12.4884 34.4921L12.489 34.3218Z" fill="#888A89"/>
<path d="M14.318 37.389L14.6124 37.218L14.6075 38.8856L14.3134 39.0566L14.318 37.389Z" fill="#888A89"/>
<path d="M12.5935 34.3821L12.8876 34.2111V34.2211L12.5932 34.3921L12.5935 34.3821Z" fill="#888A89"/>
<path d="M12.489 34.3218L12.7833 34.1508L12.8876 34.2111L12.5935 34.3821L12.489 34.3218Z" fill="#9D9D9C"/>
<path d="M14.3134 39.0364L14.6075 38.8654L16.1249 39.7415L15.8305 39.9125L14.3134 39.0364Z" fill="#9D9D9C"/>
<path d="M16.3616 41.2786L16.3596 41.9456L11.1083 38.9138L11.1102 38.2468L16.2732 40.6793L16.3616 41.2786Z" fill="#FAFAFA"/>
<path d="M16.3616 41.2786L17.1205 40.8277L17.1189 41.4947L16.3596 41.9456L16.3616 41.2786Z" fill="#888A89"/>
<path d="M12.4225 38.1151L11.8695 37.7959L11.1103 38.2468L16.3616 41.2786L17.1205 40.8277L12.4225 38.1151Z" fill="#9D9D9C"/>
<path d="M12.5839 34.547L12.8783 34.376L14.3955 35.2521L14.1013 35.4231L12.5839 34.547Z" fill="#3B7593"/>
<path d="M14.1013 35.4231L14.3955 35.2521L14.3908 36.9198L14.0964 37.0908L14.1013 35.4231Z" fill="#336481"/>
<path d="M12.5981 32.7245L12.8922 32.5535L12.8876 34.2111L12.5935 34.3821L12.5981 32.7245Z" fill="#888A89"/>
<path d="M15.8352 38.2449L16.1295 38.0739L16.125 39.7415L15.8305 39.9125L15.8352 38.2449Z" fill="#336481"/>
<path d="M14.318 37.389L14.6124 37.218L16.1296 38.0941L15.8352 38.2651L14.318 37.389Z" fill="#3B7593"/>
<path d="M12.5932 34.3921L12.8876 34.2211L14.4048 35.097L14.1103 35.268L12.5932 34.3921Z" fill="#9D9D9C"/>
<path d="M14.1103 35.2579L14.4048 35.0869V35.097L14.1103 35.268V35.2579Z" fill="#336481"/>
<path d="M14.3232 35.5511L14.6176 35.3801L14.6127 37.0478L14.3186 37.2188L14.3232 35.5511Z" fill="#888A89"/>
<path d="M14.1013 35.4231L14.3955 35.2521L14.6177 35.3801L14.3232 35.5511L14.1013 35.4231Z" fill="#9D9D9C"/>
<path d="M14.3186 37.2188L14.6127 37.0478L16.1301 37.9239L15.8357 38.0949L14.3186 37.2188Z" fill="#9D9D9C"/>
<path d="M14.1103 35.2579L14.4048 35.0869L14.627 35.2152L14.3328 35.3862L14.1103 35.2579Z" fill="#9D9D9C"/>
<path d="M14.3328 35.3862L14.627 35.2152V35.2253L14.3325 35.3963L14.3328 35.3862Z" fill="#888A89"/>
<path d="M14.1152 33.6006L14.4093 33.4296L14.4048 35.0869L14.1103 35.2579L14.1152 33.6006Z" fill="#336481"/>
<path d="M12.5981 32.7245L12.8922 32.5535L14.4094 33.4296L14.1152 33.6006L12.5981 32.7245Z" fill="#3B7593"/>
<path d="M12.5943 30.8714L12.8887 30.7004L12.8838 32.368L12.5897 32.539L12.5943 30.8714Z" fill="#888A89"/>
<path d="M15.8407 36.4273L16.1348 36.2563L16.1301 37.9239L15.8357 38.0949L15.8407 36.4273Z" fill="#336481"/>
<path d="M14.3232 35.5511L14.6177 35.3801L16.1348 36.2563L15.8407 36.4273L14.3232 35.5511Z" fill="#3B7593"/>
<path d="M12.5897 32.539L12.8838 32.368L14.4012 33.2441L14.1068 33.4151L12.5897 32.539Z" fill="#9D9D9C"/>
<path d="M15.8407 36.4273L16.1348 36.2563L16.2302 36.3113L15.9359 36.4823L15.8407 36.4273Z" fill="#9D9D9C"/>
<path d="M14.3374 33.729L14.6315 33.558L14.627 35.2152L14.3328 35.3862L14.3374 33.729Z" fill="#888A89"/>
<path d="M14.3325 35.3963L14.627 35.2253L16.1441 36.1011L15.8496 36.2721L14.3325 35.3963Z" fill="#9D9D9C"/>
<path d="M15.8496 36.262L16.1441 36.091V36.1011L15.8496 36.2721V36.262Z" fill="#336481"/>
<path d="M15.8496 36.262L16.1441 36.091L16.2307 36.1411L15.9364 36.3121L15.8496 36.262Z" fill="#9D9D9C"/>
<path d="M15.9364 36.3121L16.2307 36.1411L16.2302 36.3113L15.9359 36.4823L15.9364 36.3121Z" fill="#888A89"/>
<path d="M14.1117 31.7475L14.4058 31.5764L14.4012 33.2441L14.1068 33.4151L14.1117 31.7475Z" fill="#336481"/>
<path d="M12.5942 30.8714L12.8887 30.7004L14.4058 31.5765L14.1117 31.7475L12.5942 30.8714Z" fill="#3B7593"/>
<path d="M15.8545 34.6047L16.1487 34.4337L16.1441 36.091L15.8496 36.262L15.8545 34.6047Z" fill="#336481"/>
<path d="M14.3374 33.729L14.6315 33.558L16.1487 34.4337L15.8545 34.6047L14.3374 33.729Z" fill="#3B7593"/>
<path d="M14.3336 31.8755L14.628 31.7045L14.6231 33.3722L14.329 33.5432L14.3336 31.8755Z" fill="#888A89"/>
<path d="M14.329 33.5432L14.6231 33.3722L16.1406 34.2483L15.8461 34.4193L14.329 33.5432Z" fill="#9D9D9C"/>
<mask id="mask0_6_1619" style="mask-type:luminance" maskUnits="userSpaceOnUse" x="12" y="30" width="4" height="10">
<path d="M12.5628 30.8684H15.8735V39.9521H12.5628V30.8684Z" fill="white"/>
</mask>
<g mask="url(#mask0_6_1619)">
<mask id="mask1_6_1619" style="mask-type:luminance" maskUnits="userSpaceOnUse" x="12" y="30" width="4" height="10">
<path d="M15.851 32.7516L12.5962 30.8714L12.5741 38.0525L15.8305 39.9327L15.851 32.7516Z" fill="white"/>
</mask>
<g mask="url(#mask1_6_1619)">
<mask id="mask2_6_1619" style="mask-type:luminance" maskUnits="userSpaceOnUse" x="12" y="30" width="4" height="10">
<path d="M15.851 32.7516L12.5962 30.8714L12.5741 38.0525L15.8305 39.9327L15.851 32.7516Z" fill="white"/>
</mask>
<g mask="url(#mask2_6_1619)">
<path d="M8.65038 37.6674L15.0318 41.3517L19.7747 33.1368L13.3933 29.4525L8.65038 37.6674Z" fill="url(#paint0_linear_6_1619)"/>
</g>
</g>
</g>
<path d="M15.9364 36.3121L15.9359 36.4822L15.8407 36.4273L14.3232 35.5511L14.1013 35.4231L12.5839 34.547L12.4884 34.4921L12.489 34.3218L12.5935 34.3821L12.5932 34.3921L14.1103 35.268V35.2578L14.3328 35.3862L14.3325 35.3962L15.8496 36.2721V36.262L15.9364 36.3121Z" fill="#FAFAFA"/>
<path d="M14.3336 31.8755L14.628 31.7045L16.1451 32.5806L15.851 32.7516L14.3336 31.8755Z" fill="#3B7593"/>
<path d="M15.851 32.7516L16.1451 32.5806L16.1405 34.2483L15.8461 34.4193L15.851 32.7516Z" fill="#336481"/>
<path d="M15.9359 36.4603L15.8407 36.4054L15.8379 37.3416L15.8357 38.073L14.3186 37.1969L14.3232 35.5293L14.1013 35.4013L14.0964 37.0689L12.5793 36.1928V36.1706L12.5839 34.5251L12.4884 34.4701L12.489 34.3L12.5935 34.3602L12.5981 32.7026L14.1152 33.5787L14.1103 35.2359L14.3328 35.3643L14.335 34.5426L14.3374 33.707L15.8546 34.5829L15.8496 36.2404L15.9364 36.2902V36.2905L15.9359 36.4603ZM15.8305 39.9107L14.3134 39.0347L14.318 37.3758V37.3671L15.8352 38.2431L15.8305 39.9107ZM14.0912 38.9066L12.5741 38.0306V38.021L12.5786 36.3629L14.0961 37.239L14.0912 38.9066ZM12.5943 30.8495L12.5979 30.8517V30.8495L14.1152 31.7255L14.1106 33.3932L14.1068 33.391V33.3932L12.5897 32.5172L12.5943 30.8495ZM14.3336 31.8539V31.8537L15.851 32.7298L15.8477 33.8316L15.8461 34.3974L14.329 33.5215L14.3336 31.8539ZM12.1516 30.0826L12.1284 38.2845L16.2735 40.6777L16.2965 32.4758L12.1516 30.0826Z" fill="#FAFAFA"/>
<path d="M12.1516 30.1044L12.4457 29.9334L16.5908 32.3267L16.2965 32.4977L12.1516 30.1044Z" fill="#9D9D9C"/>
<path d="M16.2965 32.4977L16.5908 32.3267L16.5676 40.5067L16.2735 40.6777L16.2965 32.4977Z" fill="#888A89"/>
<path d="M5.99327 32.5122L6.2874 32.3412L6.2827 34.0089L5.98836 34.1799L5.99327 32.5122Z" fill="#888A89"/>
<path d="M5.98836 34.1596L6.2827 33.9886L7.79993 34.8647L7.50581 35.0355L5.98836 34.1596Z" fill="#9D9D9C"/>
<path d="M7.51041 33.388L7.80454 33.217L7.79994 34.8847L7.50581 35.0557L7.51041 33.388Z" fill="#336481"/>
<path d="M5.99327 32.5122L6.2874 32.3412L7.80452 33.217L7.5104 33.388L5.99327 32.5122Z" fill="#3B7593"/>
<path d="M5.9984 30.6744L6.29253 30.5034L6.28793 32.171L5.99348 32.342L5.9984 30.6744Z" fill="#888A89"/>
<path d="M5.90297 30.6192L6.1971 30.4482L6.29254 30.5034L5.99841 30.6744L5.90297 30.6192Z" fill="#9D9D9C"/>
<path d="M5.99348 32.342L6.28793 32.171L7.80506 33.0469L7.51093 33.2179L5.99348 32.342Z" fill="#9D9D9C"/>
<path d="M5.9035 30.449L6.19763 30.278L6.1971 30.4482L5.90297 30.6192L5.9035 30.449Z" fill="#888A89"/>
<path d="M7.73261 33.5164L8.02673 33.3454L8.02203 35.013L7.72769 35.184L7.73261 33.5164Z" fill="#888A89"/>
<path d="M6.0078 30.5094L6.30192 30.3384V30.3485L6.0078 30.5195V30.5094Z" fill="#888A89"/>
<path d="M5.9035 30.449L6.19763 30.278L6.30194 30.3384L6.00782 30.5094L5.9035 30.449Z" fill="#9D9D9C"/>
<path d="M7.72769 35.1637L8.02203 34.9927L9.53916 35.8689L9.24503 36.0399L7.72769 35.1637Z" fill="#9D9D9C"/>
<path d="M9.77589 37.406L9.77396 38.073L4.52264 35.0412L4.52457 34.3741L9.68782 36.8067L9.77589 37.406Z" fill="#FAFAFA"/>
<path d="M9.77588 37.406L10.5351 36.9551L10.5332 37.6221L9.77396 38.073L9.77588 37.406Z" fill="#888A89"/>
<path d="M5.83702 34.2425L5.28382 33.9232L4.52457 34.3741L9.77589 37.406L10.5351 36.9551L5.83702 34.2425Z" fill="#9D9D9C"/>
<path d="M5.99841 30.6744L6.29254 30.5034L7.80977 31.3793L7.51565 31.5503L5.99841 30.6744Z" fill="#3B7593"/>
<path d="M7.51564 31.5502L7.80977 31.3792L7.80507 33.0469L7.51094 33.2179L7.51564 31.5502Z" fill="#336481"/>
<path d="M6.01239 28.8519L6.30684 28.6809L6.30192 30.3384L6.0078 30.5094L6.01239 28.8519Z" fill="#888A89"/>
<path d="M9.24974 34.3722L9.54387 34.2012L9.53917 35.8689L9.24504 36.0399L9.24974 34.3722Z" fill="#336481"/>
<path d="M7.7326 33.5164L8.02673 33.3454L9.54386 34.2212L9.24973 34.3922L7.7326 33.5164Z" fill="#3B7593"/>
<path d="M6.0078 30.5195L6.30192 30.3485L7.81905 31.2244L7.52492 31.3954L6.0078 30.5195Z" fill="#9D9D9C"/>
<path d="M7.52493 31.3852L7.81906 31.2142V31.2244L7.52493 31.3954V31.3852Z" fill="#336481"/>
<path d="M7.73773 31.6785L8.03186 31.5075L8.02727 33.1751L7.73282 33.3461L7.73773 31.6785Z" fill="#888A89"/>
<path d="M7.51564 31.5502L7.80998 31.3792L8.03186 31.5075L7.73773 31.6785L7.51564 31.5502Z" fill="#9D9D9C"/>
<path d="M7.73282 33.3461L8.02727 33.1751L9.54439 34.0512L9.25027 34.2222L7.73282 33.3461Z" fill="#9D9D9C"/>
<path d="M7.52493 31.3852L7.81906 31.2142L8.04115 31.3425L7.74702 31.5135L7.52493 31.3852Z" fill="#9D9D9C"/>
<path d="M7.74704 31.5135L8.04117 31.3425V31.3527L7.74704 31.5237V31.5135Z" fill="#888A89"/>
<path d="M7.52953 29.7277L7.82398 29.5567L7.81906 31.2143L7.52493 31.3853L7.52953 29.7277Z" fill="#336481"/>
<path d="M6.01242 28.8519L6.30687 28.6809L7.824 29.5567L7.52955 29.7277L6.01242 28.8519Z" fill="#3B7593"/>
<path d="M6.00888 26.9988L6.30301 26.8278L6.29831 28.4954L6.00397 28.6664L6.00888 26.9988Z" fill="#888A89"/>
<path d="M9.25496 32.5546L9.54909 32.3836L9.54439 34.0512L9.25026 34.2222L9.25496 32.5546Z" fill="#336481"/>
<path d="M7.73773 31.6785L8.03186 31.5075L9.54909 32.3836L9.25497 32.5546L7.73773 31.6785Z" fill="#3B7593"/>
<path d="M6.00397 28.6664L6.29831 28.4954L7.81543 29.3715L7.52131 29.5425L6.00397 28.6664Z" fill="#9D9D9C"/>
<path d="M9.25497 32.5546L9.5491 32.3836L9.64454 32.4386L9.35042 32.6097L9.25497 32.5546Z" fill="#9D9D9C"/>
<path d="M7.75174 29.8561L8.04619 29.6851L8.04117 31.3425L7.74704 31.5135L7.75174 29.8561Z" fill="#888A89"/>
<path d="M7.74704 31.5237L8.04117 31.3527L9.5584 32.2285L9.26427 32.3995L7.74704 31.5237Z" fill="#9D9D9C"/>
<path d="M9.26427 32.3894L9.55839 32.2184V32.2285L9.26427 32.3995V32.3894Z" fill="#336481"/>
<path d="M9.26427 32.3894L9.55839 32.2184L9.64507 32.2685L9.35073 32.4395L9.26427 32.3894Z" fill="#9D9D9C"/>
<path d="M9.35074 32.4395L9.64508 32.2685L9.64455 32.4386L9.35042 32.6096L9.35074 32.4395Z" fill="#888A89"/>
<path d="M7.526 27.8746L7.82045 27.7036L7.81543 29.3715L7.5213 29.5425L7.526 27.8746Z" fill="#336481"/>
<path d="M6.0089 26.9988L6.30302 26.8278L7.82047 27.7035L7.52602 27.8745L6.0089 26.9988Z" fill="#3B7593"/>
<path d="M9.26886 30.7321L9.56331 30.5611L9.55839 32.2184L9.26427 32.3894L9.26886 30.7321Z" fill="#336481"/>
<path d="M7.75172 29.8561L8.04617 29.6851L9.5633 30.5611L9.26885 30.7321L7.75172 29.8561Z" fill="#3B7593"/>
<path d="M7.7482 28.0029L8.04233 27.8319L8.03763 29.4995L7.74329 29.6705L7.7482 28.0029Z" fill="#888A89"/>
<path d="M7.74329 29.6705L8.03763 29.4995L9.55475 30.3756L9.26063 30.5466L7.74329 29.6705Z" fill="#9D9D9C"/>
<mask id="mask3_6_1619" style="mask-type:luminance" maskUnits="userSpaceOnUse" x="5" y="26" width="5" height="11">
<path d="M5.9689 26.9832H9.27954V36.0669H5.9689V26.9832Z" fill="white"/>
</mask>
<g mask="url(#mask3_6_1619)">
<mask id="mask4_6_1619" style="mask-type:luminance" maskUnits="userSpaceOnUse" x="5" y="26" width="5" height="11">
<path d="M9.26545 28.8791L6.0106 26.9989L5.98848 34.18L9.24515 36.0602L9.26545 28.8791Z" fill="white"/>
</mask>
<g mask="url(#mask4_6_1619)">
<mask id="mask5_6_1619" style="mask-type:luminance" maskUnits="userSpaceOnUse" x="5" y="26" width="5" height="11">
<path d="M9.26545 28.8791L6.0106 26.9989L5.98848 34.18L9.24515 36.0602L9.26545 28.8791Z" fill="white"/>
</mask>
<g mask="url(#mask5_6_1619)">
<path d="M2.06467 33.7947L8.44611 37.4791L13.189 29.2641L6.80757 25.5798L2.06467 33.7947Z" fill="url(#paint1_linear_6_1619)"/>
</g>
</g>
</g>
<path d="M9.35073 32.4395L9.35041 32.6096L9.25497 32.5546L7.73774 31.6785L7.51564 31.5503L5.99841 30.6744L5.90297 30.6192L5.9035 30.449L6.00782 30.5094V30.5195L7.52494 31.3954V31.3853L7.74703 31.5135V31.5237L9.26427 32.3995V32.3894L9.35073 32.4395Z" fill="#FAFAFA"/>
<path d="M7.74821 28.0029L8.04234 27.8319L9.55968 28.708L9.26534 28.879L7.74821 28.0029Z" fill="#3B7593"/>
<path d="M9.26534 28.879L9.55968 28.708L9.55476 30.3756L9.26064 30.5466L9.26534 28.879Z" fill="#336481"/>
<path d="M9.35041 32.5877L9.25496 32.5327L9.25218 33.469L9.25026 34.2004L7.73281 33.3243L7.73773 31.6566L7.51564 31.5286L7.51094 33.1962L5.99349 32.3201L5.99381 32.298L5.9984 30.6525L5.90296 30.5975V30.5972L5.9035 30.4273L6.00781 30.4875L6.01241 28.83L7.52953 29.7061L7.52494 31.3633L7.74703 31.4917L7.74927 30.67L7.75173 29.8341L9.26886 30.7102L9.26426 32.3674L9.35073 32.4176H9.35094L9.35041 32.5877ZM9.24502 36.0381L7.72768 35.1621L7.73228 33.5032L7.7326 33.4945L9.24973 34.3705L9.24502 36.0381ZM7.50581 35.034L5.98836 34.158V34.1483L5.99327 32.4903L7.5104 33.3661L7.50581 35.034ZM6.00888 26.9769L6.01241 26.9791V26.9769L7.52953 27.8529L7.52494 29.5205L7.5213 29.5184V29.5205L6.00396 28.6445L6.00888 26.9769ZM7.7482 27.981L9.26533 28.857L9.26234 29.959L9.26063 30.5248L7.74329 29.6487L7.7482 27.981ZM5.56587 26.2099L5.54268 34.4119L9.68782 36.8051L9.71101 28.6032L5.56587 26.2099Z" fill="#FAFAFA"/>
<path d="M5.56587 26.2318L5.86032 26.0608L10.0051 28.4538L9.71101 28.6248L5.56587 26.2318Z" fill="#9D9D9C"/>
<path d="M9.71101 28.6248L10.0051 28.4538L9.98195 36.6341L9.68782 36.8051L9.71101 28.6248Z" fill="#888A89"/>
<path d="M36.2512 41.7427L35.957 41.5717L35.9616 43.2393L36.2561 43.4103L36.2512 41.7427Z" fill="#888A89"/>
<path d="M36.2561 43.39L35.9616 43.219L34.4445 44.0951L34.7386 44.2661L36.2561 43.39Z" fill="#9D9D9C"/>
<path d="M34.7339 42.6184L34.4396 42.4474L34.4445 44.115L34.7386 44.286L34.7339 42.6184Z" fill="#336481"/>
<path d="M36.2512 41.7427L35.957 41.5717L34.4396 42.4474L34.7339 42.6184L36.2512 41.7427Z" fill="#3B7593"/>
<path d="M36.2459 39.9048L35.9518 39.7338L35.9565 41.4014L36.2508 41.5724L36.2459 39.9048Z" fill="#888A89"/>
<path d="M36.3414 39.8495L36.0472 39.6785L35.9518 39.7338L36.2459 39.9048L36.3414 39.8495Z" fill="#9D9D9C"/>
<path d="M36.2508 41.5724L35.9565 41.4014L34.4393 42.2772L34.7334 42.4482L36.2508 41.5724Z" fill="#9D9D9C"/>
<path d="M36.3408 39.6794L36.0467 39.5084L36.0472 39.6785L36.3414 39.8495L36.3408 39.6794Z" fill="#888A89"/>
<path d="M34.5118 42.7467L34.2177 42.5757L34.2223 44.2434L34.5168 44.4144L34.5118 42.7467Z" fill="#888A89"/>
<path d="M36.2366 39.7398L35.9422 39.5688L35.9425 39.5789L36.2366 39.7499V39.7398Z" fill="#888A89"/>
<path d="M36.3408 39.6794L36.0467 39.5084L35.9422 39.5688L36.2366 39.7398L36.3408 39.6794Z" fill="#9D9D9C"/>
<path d="M34.5168 44.3941L34.2223 44.2231L32.7052 45.0992L32.9993 45.2702L34.5168 44.3941Z" fill="#9D9D9C"/>
<path d="M32.4685 46.6364L32.4705 47.3034L37.7215 44.2716L37.7199 43.6045L32.5566 46.0371L32.4685 46.6364Z" fill="#FAFAFA"/>
<path d="M32.4685 46.6363L31.7093 46.1854L31.7112 46.8524L32.4705 47.3034L32.4685 46.6363Z" fill="#888A89"/>
<path d="M36.4073 43.4729L36.9606 43.1536L37.7199 43.6044L32.4685 46.6363L31.7093 46.1854L36.4073 43.4729Z" fill="#9D9D9C"/>
<path d="M36.2459 39.9048L35.9518 39.7338L34.4343 40.6096L34.7288 40.7806L36.2459 39.9048Z" fill="#3B7593"/>
<path d="M34.7288 40.7807L34.4343 40.6096L34.4393 42.2773L34.7334 42.4483L34.7288 40.7807Z" fill="#336481"/>
<path d="M36.2319 38.0823L35.9376 37.9113L35.9422 39.5688L36.2366 39.7398L36.2319 38.0823Z" fill="#888A89"/>
<path d="M32.9947 43.6026L32.7003 43.4316L32.7052 45.0993L32.9993 45.2703L32.9947 43.6026Z" fill="#336481"/>
<path d="M34.5118 42.7467L34.2177 42.5757L32.7003 43.4515L32.9947 43.6225L34.5118 42.7467Z" fill="#3B7593"/>
<path d="M36.2366 39.7499L35.9425 39.5789L34.4254 40.4548L34.7195 40.6258L36.2366 39.7499Z" fill="#9D9D9C"/>
<path d="M34.7195 40.6156L34.4251 40.4446L34.4254 40.4548L34.7195 40.6258V40.6156Z" fill="#336481"/>
<path d="M34.5066 40.9089L34.2125 40.7379L34.2172 42.4056L34.5115 42.5766L34.5066 40.9089Z" fill="#888A89"/>
<path d="M34.7288 40.7807L34.4343 40.6096L34.2125 40.7379L34.5066 40.9089L34.7288 40.7807Z" fill="#9D9D9C"/>
<path d="M34.5115 42.5766L34.2172 42.4056L32.6999 43.2817L32.9941 43.4527L34.5115 42.5766Z" fill="#9D9D9C"/>
<path d="M34.7195 40.6156L34.4251 40.4446L34.203 40.573L34.4973 40.744L34.7195 40.6156Z" fill="#9D9D9C"/>
<path d="M34.4973 40.744L34.203 40.573L34.2032 40.583L34.4973 40.754V40.744Z" fill="#888A89"/>
<path d="M34.7148 38.9582L34.4205 38.7872L34.4251 40.4446L34.7195 40.6156L34.7148 38.9582Z" fill="#336481"/>
<path d="M36.2319 38.0823L35.9376 37.9113L34.4205 38.7872L34.7148 38.9582L36.2319 38.0823Z" fill="#3B7593"/>
<path d="M36.2355 36.2292L35.9414 36.0582L35.946 37.7258L36.2401 37.8968L36.2355 36.2292Z" fill="#888A89"/>
<path d="M32.9895 41.785L32.695 41.614L32.7 43.2817L32.9941 43.4527L32.9895 41.785Z" fill="#336481"/>
<path d="M34.5066 40.9089L34.2125 40.7379L32.695 41.614L32.9895 41.785L34.5066 40.9089Z" fill="#3B7593"/>
<path d="M36.2401 37.8968L35.946 37.7258L34.4289 38.6018L34.723 38.7728L36.2401 37.8968Z" fill="#9D9D9C"/>
<path d="M32.9895 41.785L32.695 41.614L32.5998 41.669L32.8939 41.84L32.9895 41.785Z" fill="#9D9D9C"/>
<path d="M34.4927 39.0864L34.1983 38.9154L34.203 40.573L34.4973 40.744L34.4927 39.0864Z" fill="#888A89"/>
<path d="M34.4973 40.754L34.2032 40.583L32.6861 41.4589L32.9802 41.6299L34.4973 40.754Z" fill="#9D9D9C"/>
<path d="M32.9802 41.6197L32.6861 41.4487V41.4589L32.9802 41.6299V41.6197Z" fill="#336481"/>
<path d="M32.9802 41.6197L32.6861 41.4487L32.5993 41.4989L32.8934 41.6699L32.9802 41.6197Z" fill="#9D9D9C"/>
<path d="M32.8934 41.6698L32.5993 41.4988L32.5998 41.669L32.8939 41.84L32.8934 41.6698Z" fill="#888A89"/>
<path d="M34.7184 37.105L34.424 36.9342L34.4289 38.6018L34.723 38.7728L34.7184 37.105Z" fill="#336481"/>
<path d="M36.2356 36.2292L35.9414 36.0582L34.424 36.9342L34.7184 37.105L36.2356 36.2292Z" fill="#3B7593"/>
<path d="M32.9755 39.9625L32.6811 39.7915L32.6861 41.4487L32.9802 41.6198L32.9755 39.9625Z" fill="#336481"/>
<path d="M34.4927 39.0864L34.1983 38.9154L32.6811 39.7915L32.9755 39.9625L34.4927 39.0864Z" fill="#3B7593"/>
<path d="M34.4962 37.2333L34.2021 37.0623L34.2067 38.7299L34.5012 38.9009L34.4962 37.2333Z" fill="#888A89"/>
<path d="M34.5011 38.9009L34.2067 38.7299L32.6896 39.606L32.9837 39.777L34.5011 38.9009Z" fill="#9D9D9C"/>
<mask id="mask6_6_1619" style="mask-type:luminance" maskUnits="userSpaceOnUse" x="32" y="36" width="5" height="10">
<path d="M32.9739 36.2037H36.2571V45.3148H32.9739V36.2037Z" fill="white"/>
</mask>
<g mask="url(#mask6_6_1619)">
<mask id="mask7_6_1619" style="mask-type:luminance" maskUnits="userSpaceOnUse" x="32" y="36" width="5" height="10">
<path d="M32.9791 38.1093L36.2338 36.2292L36.2561 43.4103L32.9993 45.2904L32.9791 38.1093Z" fill="white"/>
</mask>
<g mask="url(#mask7_6_1619)">
<mask id="mask8_6_1619" style="mask-type:luminance" maskUnits="userSpaceOnUse" x="32" y="36" width="5" height="10">
<path d="M32.9791 38.1093L36.2338 36.2292L36.2561 43.4103L32.9993 45.2904L32.9791 38.1093Z" fill="white"/>
</mask>
<g mask="url(#mask8_6_1619)">
<path d="M40.1796 43.0252L33.7983 46.7095L29.0554 38.4945L35.4367 34.8102L40.1796 43.0252Z" fill="url(#paint2_linear_6_1619)"/>
</g>
</g>
</g>
<path d="M32.8934 41.6699L32.8939 41.84L32.9895 41.785L34.5066 40.9089L34.7288 40.7806L36.2459 39.9048L36.3414 39.8495L36.3408 39.6794L36.2366 39.7398V39.7499L34.7195 40.6258V40.6156L34.4973 40.744V40.754L32.9802 41.6299V41.6197L32.8934 41.6699Z" fill="#FAFAFA"/>
<path d="M34.4962 37.2333L34.2021 37.0623L32.6847 37.9383L32.9791 38.1093L34.4962 37.2333Z" fill="#3B7593"/>
<path d="M32.9791 38.1093L32.6847 37.9383L32.6896 39.606L32.9837 39.777L32.9791 38.1093Z" fill="#336481"/>
<path d="M32.8934 41.648L32.9802 41.5978L32.9755 39.9406L34.4927 39.0645L34.4948 39.9004L34.4973 40.7221L34.7195 40.5937L34.7148 38.9365L36.2319 38.0604L36.2366 39.718L36.3408 39.6577L36.3414 39.8276V39.8279L36.2459 39.8829L36.2506 41.5284L36.2508 41.5506L34.7334 42.4267L34.7288 40.7589L34.5066 40.8871L34.5115 42.5547L32.9941 43.4308L32.9923 42.6994L32.9895 41.7632L32.8939 41.8181L32.8934 41.648ZM32.9947 43.6009L34.5118 42.7249V42.7336L34.5168 44.3925L32.9993 45.2685L32.9947 43.6009ZM34.7339 42.5965L36.2512 41.7207L36.2561 43.3787V43.3883L34.7386 44.2642L34.7339 42.5965ZM36.2402 37.8749L34.723 38.751V38.7488L34.7195 38.751L34.7148 37.0833L36.2319 36.2072V36.2095L36.2356 36.2072L36.2402 37.8749ZM34.5012 38.8791L32.9837 39.7552L32.9821 39.1893L32.9791 38.0875L34.4962 37.2114L34.5012 38.8791ZM32.5333 37.8336L32.5566 46.0355L36.7014 43.6423L36.6782 35.4404L32.5333 37.8336Z" fill="#FAFAFA"/>
<path d="M36.6782 35.4622L36.3841 35.2912L32.239 37.6842L32.5333 37.8552L36.6782 35.4622Z" fill="#9D9D9C"/>
<path d="M32.5333 37.8552L32.239 37.6842L32.2622 45.8645L32.5566 46.0355L32.5333 37.8552Z" fill="#888A89"/>
<path d="M42.8369 37.8697L42.5424 37.6987L42.5473 39.3663L42.8415 39.5373L42.8369 37.8697Z" fill="#888A89"/>
<path d="M42.8414 39.5174L42.5473 39.3464L41.03 40.2222L41.3243 40.3932L42.8414 39.5174Z" fill="#9D9D9C"/>
<path d="M41.3194 38.7458L41.0253 38.5748L41.03 40.2424L41.3243 40.4134L41.3194 38.7458Z" fill="#336481"/>
<path d="M42.8368 37.8697L42.5424 37.6987L41.0253 38.5748L41.3194 38.7458L42.8368 37.8697Z" fill="#3B7593"/>
<path d="M42.8316 36.0318L42.5373 35.8608L42.5422 37.5286L42.8363 37.6996L42.8316 36.0318Z" fill="#888A89"/>
<path d="M42.9272 35.9769L42.6327 35.8059L42.5373 35.8608L42.8316 36.0318L42.9272 35.9769Z" fill="#9D9D9C"/>
<path d="M42.8363 37.6996L42.5422 37.5286L41.0247 38.4046L41.3192 38.5756L42.8363 37.6996Z" fill="#9D9D9C"/>
<path d="M42.9266 35.8067L42.6322 35.6357L42.6327 35.8059L42.9272 35.9769L42.9266 35.8067Z" fill="#888A89"/>
<path d="M41.0975 38.8742L40.8031 38.7032L40.808 40.3708L41.1021 40.5418L41.0975 38.8742Z" fill="#888A89"/>
<path d="M42.8221 35.867L42.528 35.696V35.706L42.8223 35.877L42.8221 35.867Z" fill="#888A89"/>
<path d="M42.9266 35.8067L42.6322 35.6357L42.528 35.6959L42.8221 35.8669L42.9266 35.8067Z" fill="#9D9D9C"/>
<path d="M41.1021 40.5215L40.808 40.3505L39.2906 41.2263L39.585 41.3973L41.1021 40.5215Z" fill="#9D9D9C"/>
<path d="M39.0539 42.7637L39.0558 43.4308L44.3072 40.3989L44.3052 39.7318L39.1423 42.1643L39.0539 42.7637Z" fill="#FAFAFA"/>
<path d="M39.0539 42.7638L38.2946 42.3128L38.2966 42.9799L39.0558 43.4308L39.0539 42.7638Z" fill="#888A89"/>
<path d="M42.9931 39.6003L43.546 39.2809L44.3052 39.7318L39.0539 42.7637L38.2946 42.3128L42.9931 39.6003Z" fill="#9D9D9C"/>
<path d="M42.8316 36.0318L42.5373 35.8608L41.02 36.7369L41.3142 36.9079L42.8316 36.0318Z" fill="#3B7593"/>
<path d="M41.3142 36.9079L41.02 36.7369L41.0247 38.4047L41.3192 38.5757L41.3142 36.9079Z" fill="#336481"/>
<path d="M42.8174 34.2097L42.5233 34.0387L42.528 35.6959L42.8221 35.8669L42.8174 34.2097Z" fill="#888A89"/>
<path d="M39.5804 39.7297L39.2859 39.5587L39.2906 41.2263L39.585 41.3973L39.5804 39.7297Z" fill="#336481"/>
<path d="M41.0975 38.8742L40.8031 38.7032L39.2859 39.5789L39.5804 39.7499L41.0975 38.8742Z" fill="#3B7593"/>
<path d="M42.8223 35.877L42.528 35.706L41.0107 36.5821L41.3052 36.7531L42.8223 35.877Z" fill="#9D9D9C"/>
<path d="M41.3052 36.743L41.0107 36.572V36.5821L41.3052 36.7531V36.743Z" fill="#336481"/>
<path d="M41.0923 37.0363L40.798 36.8653L40.8029 38.5329L41.097 38.7039L41.0923 37.0363Z" fill="#888A89"/>
<path d="M41.3142 36.9079L41.0201 36.7369L40.798 36.8653L41.0923 37.0363L41.3142 36.9079Z" fill="#9D9D9C"/>
<path d="M41.097 38.7039L40.8029 38.5329L39.2854 39.4088L39.5799 39.5798L41.097 38.7039Z" fill="#9D9D9C"/>
<path d="M41.3052 36.743L41.0107 36.572L40.7886 36.7003L41.083 36.8713L41.3052 36.743Z" fill="#9D9D9C"/>
<path d="M41.083 36.8713L40.7886 36.7003V36.7104L41.083 36.8814V36.8713Z" fill="#888A89"/>
<path d="M41.3003 35.0854L41.0061 34.9144L41.0107 36.572L41.3052 36.743L41.3003 35.0854Z" fill="#336481"/>
<path d="M42.8174 34.2097L42.5233 34.0387L41.0061 34.9145L41.3003 35.0855L42.8174 34.2097Z" fill="#3B7593"/>
<path d="M42.8212 32.3566L42.5268 32.1855L42.5317 33.8532L42.8258 34.0242L42.8212 32.3566Z" fill="#888A89"/>
<path d="M39.5749 37.9121L39.2808 37.7411L39.2854 39.4087L39.5799 39.5797L39.5749 37.9121Z" fill="#336481"/>
<path d="M41.0923 37.0363L40.7979 36.8653L39.2808 37.7412L39.5749 37.9122L41.0923 37.0363Z" fill="#3B7593"/>
<path d="M42.8258 34.0242L42.5317 33.8532L41.0144 34.729L41.3087 34.9L42.8258 34.0242Z" fill="#9D9D9C"/>
<path d="M39.575 37.9121L39.2809 37.7411L39.1853 37.7964L39.4798 37.9674L39.575 37.9121Z" fill="#9D9D9C"/>
<path d="M41.0781 35.2138L40.784 35.0428L40.7887 36.7003L41.0828 36.8713L41.0781 35.2138Z" fill="#888A89"/>
<path d="M41.083 36.8814L40.7887 36.7104L39.2715 37.5863L39.5659 37.7573L41.083 36.8814Z" fill="#9D9D9C"/>
<path d="M39.5657 37.7471L39.2715 37.5761V37.5863L39.5659 37.7573L39.5657 37.7471Z" fill="#336481"/>
<path d="M39.5657 37.7471L39.2715 37.5761L39.1848 37.6262L39.4792 37.7972L39.5657 37.7471Z" fill="#9D9D9C"/>
<path d="M39.4792 37.7972L39.1848 37.6262L39.1853 37.7964L39.4797 37.9674L39.4792 37.7972Z" fill="#888A89"/>
<path d="M41.3038 33.2323L41.0097 33.0613L41.0144 34.729L41.3087 34.9L41.3038 33.2323Z" fill="#336481"/>
<path d="M42.8212 32.3566L42.5268 32.1855L41.0097 33.0613L41.3038 33.2323L42.8212 32.3566Z" fill="#3B7593"/>
<path d="M39.5609 36.0896L39.2668 35.9186L39.2715 37.5761L39.5656 37.7471L39.5609 36.0896Z" fill="#336481"/>
<path d="M41.0781 35.2138L40.7839 35.0428L39.2668 35.9186L39.5609 36.0896L41.0781 35.2138Z" fill="#3B7593"/>
<path d="M41.0819 33.3607L40.7875 33.1897L40.7925 34.8573L41.0866 35.0283L41.0819 33.3607Z" fill="#888A89"/>
<path d="M41.0866 35.0282L40.7925 34.8572L39.2751 35.7333L39.5694 35.9043L41.0866 35.0282Z" fill="#9D9D9C"/>
<mask id="mask9_6_1619" style="mask-type:luminance" maskUnits="userSpaceOnUse" x="39" y="32" width="4" height="10">
<path d="M39.5404 32.3459H42.8511V41.4296H39.5404V32.3459Z" fill="white"/>
</mask>
<g mask="url(#mask9_6_1619)">
<mask id="mask10_6_1619" style="mask-type:luminance" maskUnits="userSpaceOnUse" x="39" y="32" width="4" height="10">
<path d="M39.5645 34.2365L42.8193 32.3565L42.8414 39.5373L39.585 41.4175L39.5645 34.2365Z" fill="white"/>
</mask>
<g mask="url(#mask10_6_1619)">
<mask id="mask11_6_1619" style="mask-type:luminance" maskUnits="userSpaceOnUse" x="39" y="32" width="4" height="10">
<path d="M39.5645 34.2365L42.8193 32.3565L42.8414 39.5373L39.585 41.4175L39.5645 34.2365Z" fill="white"/>
</mask>
<g mask="url(#mask11_6_1619)">
<path d="M46.765 39.1522L40.3838 42.8365L35.641 34.6218L42.0222 30.9375L46.765 39.1522Z" fill="url(#paint3_linear_6_1619)"/>
</g>
</g>
</g>
<path d="M39.4792 37.7972L39.4797 37.9674L39.575 37.9122L41.0923 37.0363L41.3142 36.9079L42.8316 36.0319L42.9272 35.9769L42.9266 35.8067L42.8221 35.867L42.8223 35.877L41.3052 36.7531V36.743L41.083 36.8713V36.8814L39.5659 37.7573L39.5657 37.7471L39.4792 37.7972Z" fill="#FAFAFA"/>
<path d="M41.0819 33.3607L40.7875 33.1897L39.2704 34.0655L39.5645 34.2365L41.0819 33.3607Z" fill="#3B7593"/>
<path d="M39.5645 34.2365L39.2704 34.0655L39.2751 35.7331L39.5694 35.9041L39.5645 34.2365Z" fill="#336481"/>
<path d="M39.4792 37.7753L39.5657 37.7252L39.561 36.068L41.0781 35.1919L41.0805 36.0278L41.0828 36.8495L41.3049 36.7211L41.3003 35.0635L42.8174 34.1878L42.8221 35.8452L42.9266 35.7849L42.9272 35.955L42.8316 36.0103L42.8363 37.6558V37.6779L41.3192 38.5537L41.3142 36.8861L41.0923 37.0144L41.097 38.682L39.5799 39.5582V39.5579L39.5776 38.8268L39.575 37.8905L39.4797 37.9455L39.4792 37.7753ZM39.5801 39.728L41.0975 38.8522V38.861L41.1021 40.5199L39.585 41.3957L39.5801 39.728ZM41.3194 38.7239L42.8369 37.8478V37.8481L42.8415 39.5061V39.5157L41.3243 40.3915L41.3194 38.7239ZM42.8259 34.0023L41.3087 34.8781V34.8762L41.3049 34.8781L41.3003 33.2105L42.8174 32.3346V32.3366L42.8213 32.3346L42.8259 34.0023ZM41.0866 35.0064L39.5694 35.8825L39.5678 35.3166L39.5645 34.2148L41.0819 33.3388L41.0866 35.0064ZM39.1188 33.9607L39.1421 42.1626L43.2872 39.7696L43.2639 31.5677L39.1188 33.9607Z" fill="#FAFAFA"/>
<path d="M43.2639 31.5896L42.9695 31.4186L38.8246 33.8116L39.1188 33.9826L43.2639 31.5896Z" fill="#9D9D9C"/>
<path d="M39.1188 33.9826L38.8246 33.8116L38.8479 41.9916L39.1421 42.1626L39.1188 33.9826Z" fill="#888A89"/>
<path d="M21.0432 31.5305L6.74345 22.3617L13.4359 19.7621L21.0432 31.5305Z" fill="#AEC0E7"/>
<path d="M4.76257 20.639L26.277 9.84644L13.7027 17.0797L4.76257 20.639Z" fill="#281E1A"/>
<path d="M13.7027 17.0797L26.277 9.84644L22.3388 30.8533L13.7027 17.0797Z" fill="#31241E"/>
<path d="M26.484 33.6914L26.4829 33.2616L22.3388 30.8533L13.7027 17.0797L4.76259 20.639L1.52588e-05 17.8715L0.00129779 18.3014L4.82447 21.1045L13.5161 17.6855L22.225 31.2169L22.6915 31.4977L22.6814 31.4815L26.484 33.6914Z" fill="#794F43"/>
<path d="M26.4905 36.0038L26.4839 33.6915L22.2277 31.2181L13.5161 17.6855L4.82468 21.1045L0.001297 18.3014L0.00781653 20.6136L4.64331 23.3076L7.01139 22.3751L6.98842 22.362L13.4359 19.7621L22.4053 33.6373L22.4048 33.6294L26.4905 36.0038Z" fill="#DFE2EB"/>
<defs>
<linearGradient id="paint0_linear_6_1619" x1="11.8418" y1="39.5099" x2="16.5847" y2="31.295" gradientUnits="userSpaceOnUse">
<stop stop-color="#63BDE3"/>
<stop offset="0.25" stop-color="#63BDE3"/>
<stop offset="0.3125" stop-color="#63BDE3"/>
<stop offset="0.34375" stop-color="#63BDE3"/>
<stop offset="0.359375" stop-color="#63BDE3"/>
<stop offset="0.363281" stop-color="#63BDE3"/>
<stop offset="0.367188" stop-color="#63BEE3"/>
<stop offset="0.371094" stop-color="#64BEE4"/>
<stop offset="0.375" stop-color="#64BFE4"/>
<stop offset="0.382812" stop-color="#64BFE4"/>
<stop offset="0.390625" stop-color="#65C0E4"/>
<stop offset="0.394531" stop-color="#66C1E5"/>
<stop offset="0.398438" stop-color="#67C1E5"/>
<stop offset="0.402344" stop-color="#67C1E5"/>
<stop offset="0.40625" stop-color="#68C2E5"/>
<stop offset="0.410156" stop-color="#68C2E5"/>
<stop offset="0.414062" stop-color="#69C3E5"/>
<stop offset="0.417969" stop-color="#6AC3E6"/>
<stop offset="0.421875" stop-color="#6AC4E6"/>
<stop offset="0.425781" stop-color="#6BC4E6"/>
<stop offset="0.429688" stop-color="#6BC4E6"/>
<stop offset="0.4375" stop-color="#6CC5E6"/>
<stop offset="0.445312" stop-color="#6CC6E6"/>
<stop offset="0.449219" stop-color="#6DC6E6"/>
<stop offset="0.453125" stop-color="#6EC6E6"/>
<stop offset="0.457031" stop-color="#6FC7E6"/>
<stop offset="0.460938" stop-color="#6FC8E6"/>
<stop offset="0.464844" stop-color="#70C8E7"/>
<stop offset="0.46875" stop-color="#70C9E7"/>
<stop offset="0.472656" stop-color="#71C9E7"/>
<stop offset="0.476562" stop-color="#71C9E7"/>
<stop offset="0.480469" stop-color="#72CAE7"/>
<stop offset="0.484375" stop-color="#73CAE7"/>
<stop offset="0.488281" stop-color="#73CBE7"/>
<stop offset="0.492188" stop-color="#74CBE8"/>
<stop offset="0.496094" stop-color="#74CCE8"/>
<stop offset="0.5" stop-color="#75CCE8"/>
<stop offset="0.503906" stop-color="#76CCE8"/>
<stop offset="0.507812" stop-color="#76CDE8"/>
<stop offset="0.511719" stop-color="#77CDE8"/>
<stop offset="0.515625" stop-color="#77CEE9"/>
<stop offset="0.519531" stop-color="#78CEE9"/>
<stop offset="0.523438" stop-color="#79CFE9"/>
<stop offset="0.527344" stop-color="#79CFE9"/>
<stop offset="0.53125" stop-color="#7ACFE9"/>
<stop offset="0.535156" stop-color="#7BCFE9"/>
<stop offset="0.539062" stop-color="#7BD0E9"/>
<stop offset="0.542969" stop-color="#7CD0E9"/>
<stop offset="0.546875" stop-color="#7CD1EA"/>
<stop offset="0.550781" stop-color="#7DD1EA"/>
<stop offset="0.554688" stop-color="#7ED1EA"/>
<stop offset="0.5625" stop-color="#7ED1EA"/>
<stop offset="0.566406" stop-color="#7FD2EA"/>
<stop offset="0.570312" stop-color="#80D2EA"/>
<stop offset="0.574219" stop-color="#81D3EA"/>
<stop offset="0.578125" stop-color="#81D3EA"/>
<stop offset="0.582031" stop-color="#82D3EA"/>
<stop offset="0.585938" stop-color="#83D3EA"/>
<stop offset="0.589844" stop-color="#83D4EA"/>
<stop offset="0.59375" stop-color="#84D4EA"/>
<stop offset="0.597656" stop-color="#84D5EB"/>
<stop offset="0.601562" stop-color="#85D5EB"/>
<stop offset="0.605469" stop-color="#86D5EB"/>
<stop offset="0.609375" stop-color="#86D6EB"/>
<stop offset="0.613281" stop-color="#87D6EB"/>
<stop offset="0.617188" stop-color="#87D6EB"/>
<stop offset="0.621094" stop-color="#88D7EB"/>
<stop offset="0.625" stop-color="#89D7EB"/>
<stop offset="0.628906" stop-color="#89D8EC"/>
<stop offset="0.632812" stop-color="#8AD8EC"/>
<stop offset="0.636719" stop-color="#8BD8EC"/>
<stop offset="0.640625" stop-color="#8BD8EC"/>
<stop offset="0.644531" stop-color="#8CD9EC"/>
<stop offset="0.648438" stop-color="#8DDAEC"/>
<stop offset="0.652344" stop-color="#8EDAEC"/>
<stop offset="0.65625" stop-color="#8FDAEC"/>
<stop offset="0.660156" stop-color="#8FDAEC"/>
<stop offset="0.664062" stop-color="#90DBEC"/>
<stop offset="0.667969" stop-color="#90DBEC"/>
<stop offset="0.671875" stop-color="#91DBEC"/>
<stop offset="0.675781" stop-color="#92DBEC"/>
<stop offset="0.679688" stop-color="#92DBEC"/>
<stop offset="0.683594" stop-color="#93DCEC"/>
<stop offset="0.6875" stop-color="#94DCEC"/>
<stop offset="0.691406" stop-color="#94DCED"/>
<stop offset="0.695312" stop-color="#95DCED"/>
<stop offset="0.699219" stop-color="#96DDED"/>
<stop offset="0.703125" stop-color="#96DDED"/>
<stop offset="0.707031" stop-color="#97DDED"/>
<stop offset="0.710938" stop-color="#97DDED"/>
<stop offset="0.714844" stop-color="#98DDEE"/>
<stop offset="0.71875" stop-color="#99DEEE"/>
<stop offset="0.722656" stop-color="#9BDEEE"/>
<stop offset="0.726562" stop-color="#9CDFEE"/>
<stop offset="0.730469" stop-color="#9CDFEE"/>
<stop offset="0.734375" stop-color="#9DDFEE"/>
<stop offset="0.738281" stop-color="#9EDFEE"/>
<stop offset="0.742188" stop-color="#9EDFEE"/>
<stop offset="0.746094" stop-color="#9FE0EE"/>
<stop offset="0.75" stop-color="#A0E0EE"/>
<stop offset="1" stop-color="#A0E0EE"/>
</linearGradient>
<linearGradient id="paint1_linear_6_1619" x1="5.2559" y1="35.6372" x2="9.99881" y2="27.4223" gradientUnits="userSpaceOnUse">
<stop stop-color="#63BDE3"/>
<stop offset="0.25" stop-color="#63BDE3"/>
<stop offset="0.3125" stop-color="#63BDE3"/>
<stop offset="0.34375" stop-color="#63BDE3"/>
<stop offset="0.359375" stop-color="#63BDE3"/>
<stop offset="0.363281" stop-color="#63BDE3"/>
<stop offset="0.367188" stop-color="#63BEE3"/>
<stop offset="0.371094" stop-color="#64BEE4"/>
<stop offset="0.375" stop-color="#64BFE4"/>
<stop offset="0.382812" stop-color="#64BFE4"/>
<stop offset="0.390625" stop-color="#65C0E4"/>
<stop offset="0.394531" stop-color="#66C1E5"/>
<stop offset="0.398438" stop-color="#67C1E5"/>
<stop offset="0.402344" stop-color="#67C1E5"/>
<stop offset="0.40625" stop-color="#68C2E5"/>
<stop offset="0.410156" stop-color="#68C2E5"/>
<stop offset="0.414062" stop-color="#69C3E5"/>
<stop offset="0.417969" stop-color="#6AC3E6"/>
<stop offset="0.421875" stop-color="#6AC4E6"/>
<stop offset="0.425781" stop-color="#6BC4E6"/>
<stop offset="0.429687" stop-color="#6BC4E6"/>
<stop offset="0.4375" stop-color="#6CC5E6"/>
<stop offset="0.445312" stop-color="#6CC6E6"/>
<stop offset="0.449219" stop-color="#6DC6E6"/>
<stop offset="0.453125" stop-color="#6EC6E6"/>
<stop offset="0.457031" stop-color="#6FC7E6"/>
<stop offset="0.460937" stop-color="#6FC8E6"/>
<stop offset="0.464844" stop-color="#70C8E7"/>
<stop offset="0.46875" stop-color="#70C9E7"/>
<stop offset="0.472656" stop-color="#71C9E7"/>
<stop offset="0.476562" stop-color="#71C9E7"/>
<stop offset="0.480469" stop-color="#72CAE7"/>
<stop offset="0.484375" stop-color="#73CAE7"/>
<stop offset="0.488281" stop-color="#73CBE7"/>
<stop offset="0.492188" stop-color="#74CBE8"/>
<stop offset="0.496094" stop-color="#74CBE8"/>
<stop offset="0.5" stop-color="#75CCE8"/>
<stop offset="0.503906" stop-color="#76CCE8"/>
<stop offset="0.507812" stop-color="#76CDE8"/>
<stop offset="0.511719" stop-color="#77CDE8"/>
<stop offset="0.515625" stop-color="#77CEE9"/>
<stop offset="0.519531" stop-color="#78CEE9"/>
<stop offset="0.523438" stop-color="#79CFE9"/>
<stop offset="0.527344" stop-color="#79CFE9"/>
<stop offset="0.53125" stop-color="#7ACFE9"/>
<stop offset="0.535156" stop-color="#7BCFE9"/>
<stop offset="0.539062" stop-color="#7BD0E9"/>
<stop offset="0.542969" stop-color="#7CD0E9"/>
<stop offset="0.546875" stop-color="#7CD1EA"/>
<stop offset="0.550781" stop-color="#7DD1EA"/>
<stop offset="0.554688" stop-color="#7ED1EA"/>
<stop offset="0.5625" stop-color="#7ED1EA"/>
<stop offset="0.566406" stop-color="#7FD2EA"/>
<stop offset="0.570312" stop-color="#80D2EA"/>
<stop offset="0.574219" stop-color="#81D3EA"/>
<stop offset="0.578125" stop-color="#81D3EA"/>
<stop offset="0.582031" stop-color="#82D3EA"/>
<stop offset="0.585938" stop-color="#83D3EA"/>
<stop offset="0.589844" stop-color="#83D4EA"/>
<stop offset="0.59375" stop-color="#84D4EA"/>
<stop offset="0.597656" stop-color="#84D5EB"/>
<stop offset="0.601562" stop-color="#85D5EB"/>
<stop offset="0.605469" stop-color="#86D5EB"/>
<stop offset="0.609375" stop-color="#86D6EB"/>
<stop offset="0.613281" stop-color="#87D6EB"/>
<stop offset="0.617188" stop-color="#87D6EB"/>
<stop offset="0.621094" stop-color="#88D7EB"/>
<stop offset="0.625" stop-color="#89D7EB"/>
<stop offset="0.628906" stop-color="#89D8EC"/>
<stop offset="0.632813" stop-color="#8AD8EC"/>
<stop offset="0.636719" stop-color="#8BD8EC"/>
<stop offset="0.640625" stop-color="#8BD8EC"/>
<stop offset="0.644531" stop-color="#8CD9EC"/>
<stop offset="0.648438" stop-color="#8DDAEC"/>
<stop offset="0.652344" stop-color="#8EDAEC"/>
<stop offset="0.65625" stop-color="#8FDAEC"/>
<stop offset="0.660156" stop-color="#8FDAEC"/>
<stop offset="0.664062" stop-color="#90DBEC"/>
<stop offset="0.667969" stop-color="#90DBEC"/>
<stop offset="0.671875" stop-color="#91DBEC"/>
<stop offset="0.675781" stop-color="#92DBEC"/>
<stop offset="0.679688" stop-color="#92DBEC"/>
<stop offset="0.683594" stop-color="#93DCEC"/>
<stop offset="0.6875" stop-color="#94DCEC"/>
<stop offset="0.691406" stop-color="#94DCED"/>
<stop offset="0.695313" stop-color="#95DCED"/>
<stop offset="0.699219" stop-color="#96DDED"/>
<stop offset="0.703125" stop-color="#96DDED"/>
<stop offset="0.707031" stop-color="#97DDED"/>
<stop offset="0.710938" stop-color="#97DDED"/>
<stop offset="0.714844" stop-color="#98DDEE"/>
<stop offset="0.71875" stop-color="#99DEEE"/>
<stop offset="0.722656" stop-color="#9BDEEE"/>
<stop offset="0.726562" stop-color="#9CDFEE"/>
<stop offset="0.730469" stop-color="#9CDFEE"/>
<stop offset="0.734375" stop-color="#9DDFEE"/>
<stop offset="0.738281" stop-color="#9EDFEE"/>
<stop offset="0.742188" stop-color="#9EDFEE"/>
<stop offset="0.746094" stop-color="#9FE0EE"/>
<stop offset="0.75" stop-color="#A0E0EE"/>
<stop offset="1" stop-color="#A0E0EE"/>
</linearGradient>
<linearGradient id="paint2_linear_6_1619" x1="36.9883" y1="44.8677" x2="32.2454" y2="36.6528" gradientUnits="userSpaceOnUse">
<stop stop-color="#63BDE3"/>
<stop offset="0.25" stop-color="#63BDE3"/>
<stop offset="0.3125" stop-color="#63BDE3"/>
<stop offset="0.34375" stop-color="#63BDE3"/>
<stop offset="0.359375" stop-color="#63BDE3"/>
<stop offset="0.363281" stop-color="#63BDE3"/>
<stop offset="0.367188" stop-color="#63BEE3"/>
<stop offset="0.371094" stop-color="#64BEE4"/>
<stop offset="0.375" stop-color="#64BFE4"/>
<stop offset="0.382812" stop-color="#64BFE4"/>
<stop offset="0.390625" stop-color="#65C0E4"/>
<stop offset="0.394531" stop-color="#66C1E5"/>
<stop offset="0.398438" stop-color="#67C1E5"/>
<stop offset="0.402344" stop-color="#67C1E5"/>
<stop offset="0.40625" stop-color="#68C2E5"/>
<stop offset="0.410156" stop-color="#68C2E5"/>
<stop offset="0.414062" stop-color="#69C3E5"/>
<stop offset="0.417969" stop-color="#6AC3E6"/>
<stop offset="0.421875" stop-color="#6AC4E6"/>
<stop offset="0.425781" stop-color="#6BC4E6"/>
<stop offset="0.429688" stop-color="#6BC4E6"/>
<stop offset="0.4375" stop-color="#6CC5E6"/>
<stop offset="0.445312" stop-color="#6CC6E6"/>
<stop offset="0.449219" stop-color="#6DC6E6"/>
<stop offset="0.453125" stop-color="#6EC6E6"/>
<stop offset="0.457031" stop-color="#6FC7E6"/>
<stop offset="0.460938" stop-color="#6FC8E6"/>
<stop offset="0.464844" stop-color="#70C8E7"/>
<stop offset="0.46875" stop-color="#70C9E7"/>
<stop offset="0.472656" stop-color="#71C9E7"/>
<stop offset="0.476562" stop-color="#71C9E7"/>
<stop offset="0.480469" stop-color="#72CAE7"/>
<stop offset="0.484375" stop-color="#73CAE7"/>
<stop offset="0.488281" stop-color="#73CBE7"/>
<stop offset="0.492188" stop-color="#74CBE8"/>
<stop offset="0.496094" stop-color="#74CBE8"/>
<stop offset="0.5" stop-color="#75CCE8"/>
<stop offset="0.503906" stop-color="#76CCE8"/>
<stop offset="0.507812" stop-color="#76CDE8"/>
<stop offset="0.511719" stop-color="#77CDE8"/>
<stop offset="0.515625" stop-color="#77CEE9"/>
<stop offset="0.519531" stop-color="#78CEE9"/>
<stop offset="0.523438" stop-color="#79CFE9"/>
<stop offset="0.527344" stop-color="#79CFE9"/>
<stop offset="0.53125" stop-color="#7ACFE9"/>
<stop offset="0.535156" stop-color="#7BCFE9"/>
<stop offset="0.539062" stop-color="#7BD0E9"/>
<stop offset="0.542969" stop-color="#7CD0E9"/>
<stop offset="0.546875" stop-color="#7CD1EA"/>
<stop offset="0.550781" stop-color="#7DD1EA"/>
<stop offset="0.554688" stop-color="#7ED1EA"/>
<stop offset="0.5625" stop-color="#7ED1EA"/>
<stop offset="0.566406" stop-color="#7FD2EA"/>
<stop offset="0.570312" stop-color="#80D2EA"/>
<stop offset="0.574219" stop-color="#81D3EA"/>
<stop offset="0.578125" stop-color="#81D3EA"/>
<stop offset="0.582031" stop-color="#82D3EA"/>
<stop offset="0.585938" stop-color="#83D3EA"/>
<stop offset="0.589844" stop-color="#83D4EA"/>
<stop offset="0.59375" stop-color="#84D4EA"/>
<stop offset="0.597656" stop-color="#84D5EB"/>
<stop offset="0.601562" stop-color="#85D5EB"/>
<stop offset="0.605469" stop-color="#86D5EB"/>
<stop offset="0.609375" stop-color="#86D6EB"/>
<stop offset="0.613281" stop-color="#87D6EB"/>
<stop offset="0.617188" stop-color="#87D6EB"/>
<stop offset="0.621094" stop-color="#88D7EB"/>
<stop offset="0.625" stop-color="#89D7EB"/>
<stop offset="0.628906" stop-color="#89D8EC"/>
<stop offset="0.632812" stop-color="#8AD8EC"/>
<stop offset="0.636719" stop-color="#8BD8EC"/>
<stop offset="0.640625" stop-color="#8BD8EC"/>
<stop offset="0.644531" stop-color="#8CD9EC"/>
<stop offset="0.648438" stop-color="#8DDAEC"/>
<stop offset="0.652344" stop-color="#8EDAEC"/>
<stop offset="0.65625" stop-color="#8FDAEC"/>
<stop offset="0.660156" stop-color="#8FDAEC"/>
<stop offset="0.664062" stop-color="#90DBEC"/>
<stop offset="0.667969" stop-color="#90DBEC"/>
<stop offset="0.671875" stop-color="#91DBEC"/>
<stop offset="0.675781" stop-color="#92DBEC"/>
<stop offset="0.679688" stop-color="#92DBEC"/>
<stop offset="0.683594" stop-color="#93DCEC"/>
<stop offset="0.6875" stop-color="#94DCEC"/>
<stop offset="0.691406" stop-color="#94DCED"/>
<stop offset="0.695312" stop-color="#95DCED"/>
<stop offset="0.699219" stop-color="#96DDED"/>
<stop offset="0.703125" stop-color="#96DDED"/>
<stop offset="0.707031" stop-color="#97DDED"/>
<stop offset="0.710938" stop-color="#97DDED"/>
<stop offset="0.714844" stop-color="#98DDEE"/>
<stop offset="0.71875" stop-color="#99DEEE"/>
<stop offset="0.722656" stop-color="#9BDEEE"/>
<stop offset="0.726562" stop-color="#9CDFEE"/>
<stop offset="0.730469" stop-color="#9CDFEE"/>
<stop offset="0.734375" stop-color="#9DDFEE"/>
<stop offset="0.738281" stop-color="#9EDFEE"/>
<stop offset="0.742188" stop-color="#9EDFEE"/>
<stop offset="0.746094" stop-color="#9FE0EE"/>
<stop offset="0.75" stop-color="#A0E0EE"/>
<stop offset="1" stop-color="#A0E0EE"/>
</linearGradient>
<linearGradient id="paint3_linear_6_1619" x1="43.5738" y1="40.9948" x2="38.831" y2="32.78" gradientUnits="userSpaceOnUse">
<stop stop-color="#63BDE3"/>
<stop offset="0.25" stop-color="#63BDE3"/>
<stop offset="0.3125" stop-color="#63BDE3"/>
<stop offset="0.34375" stop-color="#63BDE3"/>
<stop offset="0.359375" stop-color="#63BDE3"/>
<stop offset="0.363281" stop-color="#63BDE3"/>
<stop offset="0.367187" stop-color="#63BEE3"/>
<stop offset="0.371094" stop-color="#64BEE4"/>
<stop offset="0.375" stop-color="#64BFE4"/>
<stop offset="0.382813" stop-color="#64BFE4"/>
<stop offset="0.390625" stop-color="#65C0E4"/>
<stop offset="0.394531" stop-color="#66C1E5"/>
<stop offset="0.398437" stop-color="#67C1E5"/>
<stop offset="0.402344" stop-color="#67C1E5"/>
<stop offset="0.40625" stop-color="#68C2E5"/>
<stop offset="0.410156" stop-color="#68C2E5"/>
<stop offset="0.414063" stop-color="#69C3E5"/>
<stop offset="0.417969" stop-color="#6AC3E6"/>
<stop offset="0.421875" stop-color="#6AC4E6"/>
<stop offset="0.425781" stop-color="#6BC4E6"/>
<stop offset="0.429687" stop-color="#6BC4E6"/>
<stop offset="0.4375" stop-color="#6CC5E6"/>
<stop offset="0.445313" stop-color="#6CC6E6"/>
<stop offset="0.449219" stop-color="#6DC6E6"/>
<stop offset="0.453125" stop-color="#6EC6E6"/>
<stop offset="0.457031" stop-color="#6FC7E6"/>
<stop offset="0.460937" stop-color="#6FC8E6"/>
<stop offset="0.464844" stop-color="#70C8E7"/>
<stop offset="0.46875" stop-color="#70C9E7"/>
<stop offset="0.472656" stop-color="#71C9E7"/>
<stop offset="0.476563" stop-color="#71C9E7"/>
<stop offset="0.480469" stop-color="#72CAE7"/>
<stop offset="0.484375" stop-color="#73CAE7"/>
<stop offset="0.488281" stop-color="#73CBE7"/>
<stop offset="0.492187" stop-color="#74CBE8"/>
<stop offset="0.496094" stop-color="#74CBE8"/>
<stop offset="0.5" stop-color="#75CCE8"/>
<stop offset="0.503906" stop-color="#76CCE8"/>
<stop offset="0.507812" stop-color="#76CDE8"/>
<stop offset="0.511719" stop-color="#77CDE8"/>
<stop offset="0.515625" stop-color="#77CEE9"/>
<stop offset="0.519531" stop-color="#78CEE9"/>
<stop offset="0.523438" stop-color="#79CFE9"/>
<stop offset="0.527344" stop-color="#79CFE9"/>
<stop offset="0.53125" stop-color="#7ACFE9"/>
<stop offset="0.535156" stop-color="#7BCFE9"/>
<stop offset="0.539062" stop-color="#7BD0E9"/>
<stop offset="0.542969" stop-color="#7CD0E9"/>
<stop offset="0.546875" stop-color="#7CD1EA"/>
<stop offset="0.550781" stop-color="#7DD1EA"/>
<stop offset="0.554688" stop-color="#7ED1EA"/>
<stop offset="0.5625" stop-color="#7ED1EA"/>
<stop offset="0.566406" stop-color="#7FD2EA"/>
<stop offset="0.570312" stop-color="#80D2EA"/>
<stop offset="0.574219" stop-color="#81D3EA"/>
<stop offset="0.578125" stop-color="#81D3EA"/>
<stop offset="0.582031" stop-color="#82D3EA"/>
<stop offset="0.585938" stop-color="#83D3EA"/>
<stop offset="0.589844" stop-color="#83D4EA"/>
<stop offset="0.59375" stop-color="#84D4EA"/>
<stop offset="0.597656" stop-color="#84D5EB"/>
<stop offset="0.601562" stop-color="#85D5EB"/>
<stop offset="0.605469" stop-color="#86D5EB"/>
<stop offset="0.609375" stop-color="#86D6EB"/>
<stop offset="0.613281" stop-color="#87D6EB"/>
<stop offset="0.617188" stop-color="#87D6EB"/>
<stop offset="0.621094" stop-color="#88D7EB"/>
<stop offset="0.625" stop-color="#89D7EB"/>
<stop offset="0.628906" stop-color="#89D8EC"/>
<stop offset="0.632812" stop-color="#8AD8EC"/>
<stop offset="0.636719" stop-color="#8BD8EC"/>
<stop offset="0.640625" stop-color="#8BD8EC"/>
<stop offset="0.644531" stop-color="#8CD9EC"/>
<stop offset="0.648438" stop-color="#8DDAEC"/>
<stop offset="0.652344" stop-color="#8EDAEC"/>
<stop offset="0.65625" stop-color="#8FDAEC"/>
<stop offset="0.660156" stop-color="#8FDAEC"/>
<stop offset="0.664062" stop-color="#90DBEC"/>
<stop offset="0.667969" stop-color="#90DBEC"/>
<stop offset="0.671875" stop-color="#91DBEC"/>
<stop offset="0.675781" stop-color="#92DBEC"/>
<stop offset="0.679688" stop-color="#92DBEC"/>
<stop offset="0.683594" stop-color="#93DCEC"/>
<stop offset="0.6875" stop-color="#94DCEC"/>
<stop offset="0.691406" stop-color="#94DCED"/>
<stop offset="0.695312" stop-color="#95DCED"/>
<stop offset="0.699219" stop-color="#96DDED"/>
<stop offset="0.703125" stop-color="#96DDED"/>
<stop offset="0.707031" stop-color="#97DDED"/>
<stop offset="0.710938" stop-color="#97DDED"/>
<stop offset="0.714844" stop-color="#98DDEE"/>
<stop offset="0.71875" stop-color="#99DEEE"/>
<stop offset="0.722656" stop-color="#9BDEEE"/>
<stop offset="0.726562" stop-color="#9CDFEE"/>
<stop offset="0.730469" stop-color="#9CDFEE"/>
<stop offset="0.734375" stop-color="#9DDFEE"/>
<stop offset="0.738281" stop-color="#9EDFEE"/>
<stop offset="0.742188" stop-color="#9EDFEE"/>
<stop offset="0.746094" stop-color="#9FE0EE"/>
<stop offset="0.75" stop-color="#A0E0EE"/>
<stop offset="1" stop-color="#A0E0EE"/>
</linearGradient>
</defs>
</svg>
