<svg width="209" height="62" viewBox="0 0 209 62" fill="none" xmlns="http://www.w3.org/2000/svg">
<g clip-path="url(#clip0_31_10)">
<path d="M26.1622 30.7103H5.94595C2.66209 30.7103 0 33.3046 0 36.5047V56.2057C0 59.4058 2.66209 62 5.94595 62H26.1622C29.446 62 32.1081 59.4058 32.1081 56.2057V36.5047C32.1081 33.3046 29.446 30.7103 26.1622 30.7103Z" fill="#5185D4"/>
<path d="M26.162 0H9.51333C6.22947 0 3.56738 2.59424 3.56738 5.79439V22.0187C3.56738 25.2188 6.22947 27.8131 9.51333 27.8131H26.162C29.4458 27.8131 32.1079 25.2188 32.1079 22.0187V5.79439C32.1079 2.59424 29.4458 0 26.162 0Z" fill="#EF6565"/>
<path d="M48.1621 9.271H41.027C37.7431 9.271 35.0811 11.8652 35.0811 15.0654V22.0187C35.0811 25.2188 37.7431 27.8131 41.027 27.8131H48.1621C51.446 27.8131 54.1081 25.2188 54.1081 22.0187V15.0654C54.1081 11.8652 51.446 9.271 48.1621 9.271Z" fill="#30D854"/>
<path d="M54.4054 30.7103H41.027C37.7431 30.7103 35.0811 33.3046 35.0811 36.5047V49.5421C35.0811 52.7423 37.7431 55.3365 41.027 55.3365H54.4054C57.6892 55.3365 60.3513 52.7423 60.3513 49.5421V36.5047C60.3513 33.3046 57.6892 30.7103 54.4054 30.7103Z" fill="#FF9257"/>
<path fill-rule="evenodd" clip-rule="evenodd" d="M100.561 25.1431C102.064 25.1431 103.425 25.4582 104.643 26.0886C105.86 26.719 106.812 27.6277 107.497 28.8144C108.201 29.9825 108.553 31.3453 108.553 32.9029C108.553 32.9588 108.524 33.3482 108.467 34.0713H96.851C97.0603 34.9981 97.555 35.7308 98.3351 36.2685C99.1152 36.8063 100.086 37.0748 101.246 37.0748C102.045 37.0748 102.749 36.9636 103.358 36.7411C103.986 36.5 104.566 36.1292 105.099 35.6288L107.468 38.1317C106.022 39.7449 103.91 40.5515 101.132 40.5515C99.4006 40.5515 97.8689 40.227 96.537 39.578C95.2051 38.9105 94.1777 37.9927 93.4547 36.8245C92.7316 35.6564 92.3701 34.3306 92.3701 32.8472C92.3701 31.3824 92.7221 30.0659 93.4261 28.8978C94.1491 27.7111 95.129 26.7933 96.3658 26.1443C97.6216 25.4768 99.0201 25.1431 100.561 25.1431ZM100.59 28.425C99.5814 28.4251 98.7347 28.7031 98.0497 29.2593C97.3647 29.8156 96.9461 30.5758 96.7939 31.54H104.357C104.205 30.5944 103.786 29.8434 103.101 29.2872C102.416 28.7124 101.579 28.425 100.59 28.425Z" fill="#5185D4"/>
<path d="M136.244 25.6994H140.069V29.0372H136.244V35.128C136.244 35.7584 136.406 36.2498 136.729 36.6021C137.072 36.9358 137.547 37.1027 138.156 37.1027C138.86 37.1027 139.46 36.9176 139.955 36.5467L141.153 39.6059C140.715 39.9211 140.173 40.1621 139.526 40.329C138.899 40.4773 138.233 40.5515 137.529 40.5515C135.702 40.5515 134.284 40.0975 133.276 39.189C132.286 38.2804 131.792 36.9451 131.792 35.1836V29.0372H129.423V25.6994H131.792V22.0558H136.244V25.6994Z" fill="#5185D4"/>
<path fill-rule="evenodd" clip-rule="evenodd" d="M184.593 25.1431C186.097 25.1431 187.457 25.4582 188.675 26.0886C189.892 26.719 190.844 27.6277 191.529 28.8144C192.233 29.9825 192.585 31.3453 192.585 32.9029C192.585 32.9588 192.556 33.3482 192.499 34.0713H180.883C181.093 34.9981 181.587 35.7308 182.367 36.2685C183.147 36.8063 184.118 37.0748 185.278 37.0748C186.078 37.0748 186.782 36.9636 187.39 36.7411C188.018 36.5 188.599 36.1292 189.131 35.6288L191.501 38.1317C190.055 39.7449 187.942 40.5515 185.164 40.5515C183.433 40.5515 181.901 40.227 180.569 39.578C179.237 38.9105 178.21 37.9927 177.487 36.8245C176.764 35.6564 176.402 34.3306 176.402 32.8472C176.403 31.3824 176.754 30.0659 177.458 28.8978C178.181 27.7111 179.161 26.7933 180.398 26.1443C181.654 25.4768 183.052 25.1431 184.593 25.1431ZM184.622 28.425C183.614 28.4251 182.767 28.7031 182.082 29.2593C181.397 29.8156 180.978 30.5758 180.826 31.54H188.389C188.237 30.5944 187.819 29.8434 187.134 29.2872C186.449 28.7124 185.611 28.425 184.622 28.425Z" fill="#285FB1"/>
<path fill-rule="evenodd" clip-rule="evenodd" d="M201.324 25.1431C203.702 25.1431 205.529 25.6993 206.804 26.8118C208.079 27.9057 208.716 29.5656 208.716 31.7906V40.329H204.549V38.4658C203.712 39.8561 202.152 40.5515 199.868 40.5515C198.689 40.5515 197.662 40.3568 196.786 39.9674C195.93 39.578 195.274 39.0403 194.817 38.3542C194.36 37.6682 194.132 36.8894 194.132 36.0179C194.132 34.6273 194.665 33.5333 195.73 32.736C196.815 31.9387 198.48 31.54 200.725 31.54H204.264C204.264 30.5944 203.969 29.8712 203.379 29.3706C202.789 28.8514 201.904 28.592 200.725 28.592C199.907 28.592 199.098 28.7217 198.299 28.9812C197.519 29.2223 196.853 29.556 196.301 29.9825L194.703 26.951C195.54 26.3762 196.539 25.931 197.699 25.6158C198.879 25.3006 200.088 25.1431 201.324 25.1431ZM201.21 34.0713C199.384 34.0713 198.47 34.6551 198.47 35.8232C198.47 36.3795 198.689 36.8245 199.126 37.1583C199.583 37.4735 200.201 37.6314 200.982 37.6314C201.743 37.6314 202.418 37.4642 203.008 37.1304C203.598 36.7781 204.016 36.2682 204.264 35.6007V34.0713H201.21Z" fill="#285FB1"/>
<path fill-rule="evenodd" clip-rule="evenodd" d="M81.4857 20.8599C83.2552 20.8599 84.7869 21.1474 86.0807 21.7222C87.3936 22.297 88.4023 23.1127 89.1063 24.1696C89.8103 25.2264 90.162 26.4781 90.162 27.9243C90.162 29.3707 89.8005 30.6223 89.0775 31.6792C88.3735 32.7175 87.365 33.5151 86.0522 34.0714L90.5333 40.329H85.567L81.714 34.9055H77.4615V40.329H72.8379V20.8599H81.4857ZM77.4615 31.3179H81.2291C82.6178 31.3179 83.6738 31.0209 84.3968 30.4276C85.1198 29.8342 85.4814 28.9998 85.4814 27.9243C85.4814 26.8304 85.1198 25.996 84.3968 25.4212C83.6738 24.828 82.6178 24.5312 81.2291 24.5312H77.4615V31.3179Z" fill="#5185D4"/>
<path d="M120.849 25.1431C122.752 25.1431 124.283 25.6993 125.444 26.8118C126.624 27.9243 127.214 29.5746 127.214 31.7625V40.329H122.762V32.4303C122.762 31.2436 122.495 30.3626 121.962 29.7878C121.429 29.1944 120.659 28.8978 119.651 28.8978C118.528 28.8978 117.634 29.2408 116.968 29.9269C116.302 30.5944 115.969 31.5956 115.969 32.9307V40.329H111.517V25.3655H115.769V27.1179C116.359 26.4875 117.092 26.0053 117.967 25.6716C118.842 25.3193 119.803 25.1431 120.849 25.1431Z" fill="#5185D4"/>
<path fill-rule="evenodd" clip-rule="evenodd" d="M163.745 40.329H158.893L157.124 36.1571H147.848L146.079 40.329H141.341L150.245 20.8599H154.812L163.745 40.329ZM149.332 32.736H155.668L152.5 25.2823L149.332 32.736Z" fill="#285FB1"/>
<path d="M175.036 29.1481C174.542 29.111 174.209 29.0925 174.038 29.0925C172.763 29.0925 171.764 29.4448 171.041 30.1494C170.318 30.8354 169.956 31.8738 169.956 33.2644V40.329H165.504V25.3655H169.756V27.3403C170.289 26.6172 171.003 26.0701 171.897 25.6993C172.81 25.3285 173.857 25.1431 175.036 25.1431V29.1481Z" fill="#285FB1"/>
</g>
<defs>
<clipPath id="clip0_31_10">
<rect width="209" height="62" fill="white"/>
</clipPath>
</defs>
</svg>
