<svg width="28" height="27" viewBox="0 0 28 27" fill="none" xmlns="http://www.w3.org/2000/svg">
<path d="M1.50762 26.4139C1.84116 26.4139 2.18804 26.2938 2.61497 26.0537L9.40592 22.3982L16.7839 26.534C17.2642 26.8008 17.7845 26.9343 18.2781 26.9343C18.7451 26.9343 19.2121 26.8142 19.6124 26.5874L26.5901 22.6249C27.3905 22.1846 27.7508 21.5443 27.7508 20.6504V2.67905C27.7508 1.69176 27.2037 1.14475 26.2432 1.14475C25.9095 1.14475 25.5627 1.25149 25.1225 1.49164L18.0514 5.42744L10.8068 0.984653C10.3932 0.744501 9.92623 0.611084 9.45928 0.611084C8.97898 0.611084 8.49867 0.744501 8.08508 0.984653L1.14739 4.9338C0.360226 5.38741 0 6.02782 0 6.92171V24.8663C0 25.8537 0.547011 26.4139 1.50762 26.4139ZM8.5387 20.2767L2.52158 23.5855C2.45488 23.6122 2.38817 23.6522 2.32146 23.6522C2.21472 23.6522 2.14802 23.5721 2.14802 23.4388V7.44204C2.14802 7.12183 2.2681 6.89503 2.58829 6.70825L8.0584 3.50624C8.23184 3.41284 8.37859 3.3328 8.5387 3.2394V20.2767ZM10.6867 20.4903V3.51958C10.8201 3.59963 10.9802 3.67967 11.1137 3.75973L17.064 7.38868V24.0659C16.8772 23.959 16.6771 23.8657 16.477 23.759L10.6867 20.4903ZM19.2121 24.306V7.25526L25.2292 3.9732C25.2959 3.93317 25.3627 3.90649 25.4159 3.90649C25.536 3.90649 25.6027 3.98653 25.6027 4.11996V20.1166C25.6027 20.4502 25.4694 20.677 25.1625 20.8638L19.8125 23.9724C19.6124 24.0925 19.4122 24.2126 19.2121 24.306Z" fill="#1B86FF"/>
</svg>
