<svg width="58" height="49" viewBox="0 0 58 49" fill="none" xmlns="http://www.w3.org/2000/svg">
<path d="M44.3636 22.2835C43.9274 22.0314 43.3812 22.0248 43.2449 22.074C42.8665 22.2089 42.5542 22.924 42.7321 23.3377C42.7709 23.4286 43.0067 23.793 43.4673 23.9236C43.7002 23.9886 44.3636 22.2835 44.3636 22.2835Z" fill="#C5C7C8"/>
<path d="M43.2013 23.4659C43.2013 23.8877 43.4998 24.058 43.868 23.8457C44.2359 23.6328 44.5343 23.1182 44.5343 22.6958C44.5343 22.2735 44.2359 22.1037 43.868 22.3161C43.4998 22.5289 43.2013 23.0431 43.2013 23.4659Z" fill="#FF9517"/>
<path d="M43.3563 23.4367C43.3563 23.7921 43.6079 23.9355 43.9173 23.7567C44.2278 23.5773 44.4789 23.1444 44.4789 22.7886C44.4789 22.4327 44.2278 22.2897 43.9173 22.4686C43.6079 22.6475 43.3563 23.0808 43.3563 23.4367Z" fill="#FFB317"/>
<path d="M43.4677 23.197C43.4677 23.3616 43.5834 23.4276 43.7269 23.3448C43.8694 23.2625 43.9862 23.0621 43.9862 22.8976C43.9862 22.7335 43.8694 22.6675 43.7269 22.7503C43.5834 22.8325 43.4677 23.033 43.4677 23.197Z" fill="#FFD817"/>
<path d="M40.1578 4.1387L39.1893 3.50496L41.2814 1.04266L41.2818 1.04314C41.3215 0.965176 41.4134 0.913528 41.5468 0.908267C41.8113 0.89631 42.0667 1.16703 42.2078 1.38848C42.2772 1.49801 42.2887 1.59941 42.2504 1.67546H42.2509L42.249 1.6788L42.2485 1.67976L40.1578 4.1387Z" fill="#474747"/>
<path d="M40.1182 3.84745C40.2593 4.06938 40.1593 4.25832 39.8948 4.27027C39.6299 4.28127 39.3749 4.01151 39.2334 3.7891C39.0918 3.56717 39.1917 3.37824 39.4567 3.36628C39.7212 3.35528 39.9766 3.62504 40.1182 3.84745Z" fill="#696969"/>
<path d="M35.1515 36.0302C35.0563 36.0302 34.9645 36.0154 34.876 35.9853C33.4928 35.5213 18.5637 27.429 17.2265 25.5249C16.3441 24.2698 16.0336 21.8798 15.7332 19.5681C15.5706 18.3179 15.417 17.1369 15.1853 16.2114L16.1218 15.9766C16.3674 16.9566 16.5244 18.1653 16.6907 19.4438C16.9625 21.5368 17.2708 23.9092 18.0159 24.9696C19.15 26.5829 33.7467 34.5882 35.1835 35.0703C36.2415 35.0191 40.3578 28.8318 40.4171 27.6103C40.4774 26.3963 39.9675 25.2905 39.9627 25.2795L40.8361 24.8677C40.861 24.9217 41.4536 26.1959 41.3818 27.6576C41.3153 29.0117 37.83 34.4614 36.0034 35.7079C35.6882 35.9236 35.4064 36.0302 35.1515 36.0302Z" fill="#323037"/>
<path d="M35.1467 32.5052C35.1467 33.821 34.2174 34.3505 33.0704 33.689C31.9239 33.027 30.9946 31.4233 30.9946 30.108C30.9946 28.7922 31.9239 28.2622 33.0704 28.9247C34.2174 29.5866 35.1467 31.1894 35.1467 32.5052Z" fill="#8D8F91"/>
<path d="M34.59 33.8071L31.7872 35.4257L28.6993 30.4624L31.6446 28.7515L34.2772 32.4024L34.59 33.8071Z" fill="#8D8F91"/>
<path d="M32.4496 34.3635C32.1698 34.3635 31.2204 34.0884 17.1406 25.9334L16.6361 25.6412L17.0886 24.8577L17.5946 25.15C29.6846 32.1523 32.044 33.3074 32.4702 33.4504C32.9193 33.2964 34.5063 31.6037 35.4571 30.1324C36.2703 28.8721 36.5558 27.7218 36.5596 27.5257L37.465 27.5262C37.465 27.9323 37.0991 29.2567 36.2167 30.6236C35.8474 31.1962 33.5875 34.318 32.4783 34.3625L32.4496 34.3635Z" fill="#AEB1B3"/>
<path d="M51.3549 31.6548C51.6213 31.8299 49.9707 31.7362 49.3704 31.9442C48.7701 32.1528 48.42 33.1558 47.8198 33.3834C47.219 33.6111 45.819 33.1467 45.435 34.0157C45.0514 34.8853 44.8017 35.9265 44.4181 36.1839C44.0345 36.4407 43.8341 34.1631 44.618 32.0896C45.4019 30.0167 47.153 30.1085 47.903 30.1597C48.653 30.2099 49.9372 30.7217 51.3549 31.6548Z" fill="#7555B8"/>
<path d="M47.0282 30.4643L46.1835 30.8302L50.967 39.8232L51.8117 39.4568L47.0282 30.4643Z" fill="#8D8F91"/>
<path d="M49.4163 34.0955L47.0626 29.5995L45.456 30.4031L47.8097 34.8991C47.8643 35.0086 48.2689 34.9182 48.7123 34.6963C49.1557 34.4743 49.4709 34.2055 49.4163 34.0955Z" fill="#767C80"/>
<path d="M45.456 30.4031C45.511 30.5126 45.9152 30.4222 46.359 30.2003C46.8024 29.9784 47.1181 29.7091 47.0626 29.5996C47.0076 29.4895 46.6034 29.5804 46.1601 29.8023C45.7162 30.0243 45.4015 30.2931 45.456 30.4031Z" fill="#BABDBF"/>
<path d="M46.4508 29.9941C46.3839 30.0487 46.2868 30.0979 46.2356 30.1195C46.094 30.1783 46.0142 30.1836 45.9448 30.0525C45.9161 29.9985 45.8869 29.9449 45.8587 29.8904C45.7932 29.7679 45.7281 29.6464 45.6631 29.524C45.5076 29.2313 45.3522 28.939 45.1967 28.6468C44.8112 27.9222 44.4262 27.1975 44.0407 26.4729C43.6102 25.6641 43.1798 24.8553 42.7498 24.0465C42.3394 23.275 41.9295 22.504 41.5186 21.733C41.1939 21.1217 40.8686 20.5109 40.5438 19.9001C40.3688 19.571 40.1942 19.2425 40.0191 18.9134L39.978 18.8359L40.5386 18.5929C40.6462 18.7967 40.7548 19 40.8629 19.2037C41.1436 19.7318 41.4249 20.2603 41.7061 20.7883C42.095 21.5192 42.4833 22.25 42.8727 22.9809C43.3036 23.7911 43.7346 24.6018 44.166 25.4125C44.574 26.1802 44.9829 26.9479 45.3909 27.7155C45.7114 28.3182 46.0318 28.9209 46.3523 29.523C46.3949 29.6024 46.4374 29.6813 46.4791 29.7612C46.5073 29.8143 46.5408 29.8554 46.5173 29.9152L46.4508 29.9941Z" fill="#8D8F91"/>
<path d="M25.6668 23.6739L22.1151 21.6234C22.1151 21.6234 19.0383 19.847 18.4634 19.7441C17.8879 19.6423 17.3876 19.4969 17.1624 20.5721C16.9373 21.6478 17.0373 22.7675 17.5128 23.5586C17.9879 24.3492 19.0136 25.3431 19.364 25.8324C19.7137 26.3217 26.1169 29.7315 26.1169 29.7315C26.1169 29.7315 27.8431 29.6373 28.1435 29.8104C28.4434 29.9841 28.043 26.4231 28.043 26.4231L25.6668 23.6739Z" fill="#2E2C33"/>
<path d="M8.99494 21.0882C6.28356 19.5232 4.08543 15.7312 4.08543 12.6194C4.08543 9.50761 6.28356 8.25494 8.99494 9.82042C11.7068 11.3859 13.9046 15.1774 13.9046 18.2882C13.9046 21.4 11.7068 22.6537 8.99494 21.0882ZM8.99494 8.41757C5.60758 6.46181 2.86262 8.02727 2.86262 11.913C2.86262 15.8001 5.60758 20.5358 8.99494 22.4915C12.3819 24.4463 15.1274 22.8813 15.1274 18.9947C15.1274 15.108 12.3819 10.3729 8.99494 8.41757Z" fill="#413D49"/>
<path d="M4.65849 9.56885C2.33424 9.85056 1.6308 10.7837 1.57006 14.139C1.50936 17.4938 3.34034 19.7184 5.23111 21.7349C7.12187 23.7509 10.2804 23.716 11.1656 23.1301C12.0506 22.5442 10.039 21.908 10.039 21.908C10.039 21.908 8.68907 22.1381 6.55581 19.8217C4.42307 17.5043 3.67721 15.483 3.39788 14.0146C3.11894 12.5463 3.92325 10.2327 3.92325 10.2327L4.65849 9.56885Z" fill="#18161C"/>
<path d="M8.74416 20.2875C6.4885 18.9851 4.65996 15.8312 4.65996 13.2432C4.65996 10.6546 6.4885 9.61239 8.74416 10.9143C10.9997 12.2167 12.8278 15.3706 12.8278 17.9587C12.8278 20.5473 10.9997 21.59 8.74416 20.2875ZM8.74363 9.96728C6.03225 8.40181 2.53655 10.6862 2.53655 13.798C2.53655 16.9098 4.73467 20.7003 7.44605 22.2663C10.158 23.8322 13.6537 21.5469 13.6537 18.4356C13.6537 15.3238 11.4561 11.5323 8.74363 9.96728Z" fill="#8D8F91"/>
<path d="M11.3743 20.7376C11.2827 20.8433 11.1833 20.938 11.0763 21.0203C9.93843 20.365 9.14589 19.0396 8.30456 17.6535C7.81507 18.0601 7.20093 19.661 7.38628 20.7376C7.27751 20.6668 7.17046 20.5922 7.0649 20.5138C6.54604 18.9799 6.90386 17.005 7.04434 15.7049C6.61181 15.2998 6.18306 15.3132 5.82673 15.3701C5.43194 15.4333 5.07193 15.5801 4.72908 15.7571C4.68049 15.616 4.63605 15.4744 4.59588 15.3328C5.21059 14.5522 5.942 13.8731 7.00325 13.9443C6.567 12.9165 5.23206 12.3712 4.44641 11.6236C4.53795 11.517 4.63754 11.4218 4.74534 11.339C5.88561 11.9938 7.60074 12.6022 8.42041 13.985C8.90951 13.5789 8.80582 12.4152 8.62086 11.3385C8.72962 11.4093 8.83763 11.4849 8.94352 11.5638C9.46444 13.0987 9.83531 14.6536 9.68025 15.9341C10.1128 16.3387 10.5419 16.3258 10.8979 16.2689C11.2926 16.2057 11.6527 16.0584 11.9961 15.8814C12.0441 16.0221 12.0885 16.1627 12.1281 16.3033C11.5112 17.0791 10.7844 17.742 9.72172 17.6942C10.1576 18.7225 10.5882 19.9891 11.3743 20.7376Z" fill="#A3A5A6"/>
<path d="M9.49934 16.4754C9.49934 17.1962 8.99024 17.4866 8.36247 17.124C7.73471 16.7615 7.22556 15.8833 7.22556 15.163C7.22556 14.4422 7.73471 14.1523 8.36247 14.5149C8.99024 14.8774 9.49934 15.7556 9.49934 16.4754Z" fill="#636669"/>
<path d="M11.3743 20.7376C11.2828 20.8433 11.1834 20.938 11.0763 21.0203C9.93846 20.365 8.12858 19.627 7.28725 18.2414C6.79776 18.6474 7.20097 19.661 7.38631 20.7376C7.27754 20.6668 7.1705 20.5922 7.06494 20.5138C6.54608 18.9799 5.88603 17.5923 6.02708 16.2923C5.59455 15.8872 5.16537 15.9006 4.80947 15.957C4.41468 16.0206 4.05467 16.1675 3.71182 16.3444C3.66323 16.2033 3.61836 16.0613 3.57823 15.9197C4.19328 15.1391 4.92474 14.4609 5.98594 14.5317C5.54969 13.5043 5.2321 12.3712 4.44644 11.6236C4.53799 11.517 4.63757 11.4218 4.74538 11.339C5.88564 11.9938 6.58348 13.1896 7.4031 14.5723C7.89225 14.1663 8.54748 12.8452 8.36252 11.7685C8.47143 11.8389 8.57923 11.9144 8.68537 11.9934C9.20662 13.5282 8.818 15.241 8.66294 16.5214C9.09546 16.9265 9.52464 16.9127 9.88054 16.8562C10.2753 16.7926 11.2127 16.2713 11.5561 16.0943C11.6041 16.2344 11.6486 16.3746 11.6882 16.5157C11.0717 17.2915 9.76714 18.3289 8.70441 18.282C9.14033 19.3094 10.5883 19.9891 11.3743 20.7376Z" fill="#C5C7C8"/>
<path d="M8.48207 17.0633C8.48207 17.7836 7.97292 18.0739 7.34515 17.7114C6.71705 17.3493 6.20828 16.4711 6.20828 15.7504C6.20828 15.03 6.71705 14.7397 7.34515 15.1018C7.97292 15.4643 8.48207 16.3425 8.48207 17.0633Z" fill="#83888B"/>
<path d="M8.30419 17.18C8.30419 17.9008 7.79509 18.1907 7.16732 17.8286C6.53955 17.4661 6.0304 16.5879 6.0304 15.8671C6.0304 15.1468 6.53955 14.8565 7.16732 15.219C7.79509 15.5816 8.30419 16.4592 8.30419 17.18Z" fill="#ADB0B2"/>
<path d="M6.96494 21.3135C4.70948 20.0111 2.88074 16.8567 2.88074 14.2686C2.88074 11.6806 4.70948 10.6379 6.96494 11.9403C9.2206 13.2427 11.0492 16.3961 11.0492 18.9852C11.0492 21.5732 9.2206 22.6154 6.96494 21.3135ZM6.96494 10.9932C4.25361 9.42777 2.05549 10.6804 2.05549 13.7918C2.05549 16.9036 4.25361 20.6951 6.96494 22.2601C9.67685 23.8265 11.875 22.5729 11.875 19.4615C11.875 16.3497 9.67685 12.5587 6.96494 10.9932Z" fill="#AEB1B3"/>
<path d="M5.14516 7.75412C3.65201 8.26112 1.80644 9.3416 1.2618 10.3967C0.717737 11.4519 2.79198 10.072 4.18019 9.98109C5.56798 9.89069 6.71461 10.0122 8.16314 11.294C9.61147 12.5763 12.124 15.405 12.2819 19.3352C12.4398 23.2659 9.74564 24.6859 10.5462 24.4774C11.3468 24.2689 13.1707 23.2314 13.799 22.602C14.4278 21.972 14.7024 20.4568 14.5473 17.8419C14.3922 15.2266 12.5538 12.2281 11.2861 10.8631C10.0188 9.49848 5.8277 7.95979 5.8277 7.95979L5.14516 7.75412Z" fill="#413D49"/>
<path d="M6.16725 10.5249L6.18503 10.5125L6.14382 10.5441L6.16725 10.5249Z" fill="#B855B8"/>
<path d="M8.93607 19.7544L9.03989 19.8217L8.98957 19.7895L8.93607 19.7544Z" fill="#B855B8"/>
<path d="M9.50578 10.8281L9.55933 10.8632L9.4555 10.7959L9.50578 10.8281Z" fill="#B855B8"/>
<path d="M51.0784 45.3853C48.3674 43.8194 46.1687 40.0279 46.1687 36.9161C46.1687 33.8048 48.3674 32.5516 51.0784 34.1171C53.7904 35.6835 55.9882 39.474 55.9882 42.5854C55.9882 45.6977 53.7904 46.9503 51.0784 45.3853ZM51.0784 32.7142C47.6921 30.7589 44.9457 32.3239 44.9457 36.2106C44.9457 40.0973 47.6921 44.8329 51.0784 46.7882C54.4653 48.7435 57.2107 47.178 57.2107 43.2913C57.2107 39.4052 54.4653 34.669 51.0784 32.7142Z" fill="#413D49"/>
<path d="M46.4399 34.2113C44.3368 35.065 43.0301 35.6902 43.694 39.6428C44.3579 43.596 46.5155 46.1003 48.4315 47.0813C50.3471 48.0614 51.9465 48.2164 52.9275 47.3774C53.9081 46.538 52.874 46.7781 51.2109 46.0922C49.5479 45.4063 47.9059 43.3994 47.0598 41.5288C46.2137 39.6581 45.9119 38.7829 45.8061 38.0137C45.7009 37.2442 45.8061 35.144 45.8061 35.144L46.4399 34.2113Z" fill="#18161C"/>
<path d="M50.8268 44.5842C48.5716 43.2818 46.7426 40.1283 46.7426 37.5393C46.7426 34.9512 48.5716 33.909 50.8268 35.2109C53.0825 36.5133 54.911 39.6673 54.911 42.2558C54.911 44.8439 53.0825 45.8866 50.8268 44.5842ZM50.8263 34.2639C48.1149 32.6984 44.7773 34.7011 44.7773 37.8129C44.7773 40.9242 46.9755 44.7152 49.687 46.2807C52.399 47.8466 55.7366 45.844 55.7366 42.7322C55.7366 39.6204 53.5388 35.8294 50.8263 34.2639Z" fill="#8D8F91"/>
<path d="M53.9903 40.8669L53.9774 40.8377C53.9386 40.654 53.8908 40.4732 53.8435 40.2929C53.5713 40.4173 53.2867 40.5167 52.9816 40.566C52.6257 40.6229 52.1967 40.6358 51.7638 40.2307C51.9188 38.9508 51.5481 37.3954 51.0267 35.8605C50.921 35.7816 50.8129 35.706 50.7044 35.6357C50.889 36.7123 50.9933 37.876 50.504 38.2816C49.6842 36.8994 48.056 36.2015 46.9162 35.5467C46.8086 35.6295 46.7091 35.7247 46.6173 35.8308C47.4032 36.5794 48.651 37.2136 49.0868 38.2415C48.0254 38.1702 47.2941 38.8489 46.6795 39.63C46.7197 39.7711 46.7637 39.9126 46.8125 40.0537C47.1559 39.8768 47.516 39.7304 47.9106 39.6673C48.2665 39.6104 48.6955 39.5965 49.1284 40.0016C48.9873 41.3021 48.7491 43.4181 49.268 44.952C49.3737 45.0304 49.4809 45.1051 49.5895 45.1754C49.4044 44.0987 49.8989 42.3572 50.3877 41.9507C50.8723 43.3459 51.9078 44.5498 53.0457 45.2055C53.1528 45.1228 53.2523 45.0281 53.3432 44.9219C52.5578 44.1738 52.2412 43.0192 51.8049 41.9913C52.7434 42.0334 53.4197 41.5212 53.9903 40.8669Z" fill="#A3A5A6"/>
<path d="M51.9059 40.6679C51.9059 41.4336 51.3649 41.7421 50.6982 41.3571C50.0309 40.9716 49.49 40.0389 49.49 39.2731C49.49 38.5079 50.0309 38.1994 50.6982 38.5844C51.3649 38.9699 51.9059 39.9026 51.9059 40.6679Z" fill="#636669"/>
<path d="M53.1945 44.8133C53.1031 44.919 53.0036 45.0137 52.8969 45.0964C51.7591 44.4407 50.2118 43.9236 49.3704 42.5385C48.8816 42.9441 49.4044 44.0987 49.5895 45.1754C49.4809 45.105 49.3738 45.0304 49.2681 44.952C48.7491 43.4181 47.97 41.889 48.1111 40.5889C47.6782 40.1843 47.2492 40.1972 46.8933 40.2541C46.4987 40.3173 46.4256 40.2073 46.0821 40.3842C46.0338 40.2426 45.9894 40.1011 45.9492 39.9595C46.5638 39.1789 47.0081 38.7575 48.0695 38.8288C47.6337 37.8009 47.254 36.5794 46.4676 35.8308C46.56 35.7246 46.6594 35.6295 46.7666 35.5467C47.9069 36.2015 48.6669 37.4867 49.4867 38.8695C49.976 38.4629 49.8717 37.2997 49.6871 36.2235C49.7957 36.2938 49.9037 36.3689 50.0095 36.4478C50.5303 37.9827 50.9015 39.5376 50.7465 40.8185C51.1794 41.2236 51.6084 41.2098 51.9643 41.1529C52.3593 41.0897 52.719 40.9434 53.062 40.7664C53.1103 40.9065 53.1548 41.0467 53.1945 41.1873C52.5779 41.9631 51.8504 42.626 50.7876 42.5787C51.2239 43.6065 52.4086 44.0652 53.1945 44.8133Z" fill="#C5C7C8"/>
<path d="M50.6364 41.4011C50.6364 42.1664 50.0959 42.4753 49.4287 42.0898C48.7615 41.7043 48.2205 40.7716 48.2205 40.0064C48.2205 39.2406 48.7615 38.9326 49.4287 39.3176C50.0959 39.7026 50.6364 40.6353 50.6364 41.4011Z" fill="#83888B"/>
<path d="M50.3562 41.6211C50.3562 42.3864 49.8157 42.6949 49.1485 42.3099C48.4812 41.9244 47.9403 40.9917 47.9403 40.2264C47.9403 39.4606 48.4812 39.1526 49.1485 39.5372C49.8157 39.9227 50.3562 40.8554 50.3562 41.6211Z" fill="#ADB0B2"/>
<path d="M55.9188 46.8666C54.934 47.8127 52.6864 48.755 52.6864 48.755C52.6864 48.755 53.5235 46.8322 53.8631 46.0856C54.2022 45.3385 53.8363 41.7589 53.4646 40.3278C53.0935 38.8958 51.2879 36.4445 49.6688 35.4186C48.0493 34.3926 42.6192 35.7079 43.4318 34.5595C44.2449 33.4106 46.5522 32.2025 47.3711 32.0049C48.1899 31.8074 51.5294 32.9567 53.2795 35.0928C55.0296 37.2289 55.628 38.3845 56.0503 39.8964C56.4731 41.4083 56.5033 43.2431 56.2316 44.6794C55.9599 46.1157 55.9188 46.8666 55.9188 46.8666Z" fill="#413D49"/>
<path d="M49.0485 45.6101C46.7924 44.3077 44.9643 41.1538 44.9643 38.5657C44.9643 35.9772 46.7924 34.9345 49.0485 36.2369C51.3037 37.5388 53.1322 40.6932 53.1322 43.2813C53.1322 45.8693 51.3037 46.912 49.0485 45.6101ZM49.048 35.2894C46.3365 33.7244 44.1383 34.977 44.1383 38.0889C44.1383 41.2007 46.3365 44.9917 49.048 46.5571C51.76 48.1231 53.9578 46.8695 53.9578 43.7577C53.9578 40.6468 51.76 36.8553 49.048 35.2894Z" fill="#AEB1B3"/>
<path d="M51.0196 44.051L51.1234 44.1178L51.0725 44.0861L51.0196 44.051Z" fill="#B855B8"/>
<path d="M48.2506 34.8222L48.274 34.8055L48.2234 34.8446L48.2506 34.8222Z" fill="#B855B8"/>
<path d="M51.589 35.1247L51.6423 35.1598L51.539 35.0925L51.589 35.1247Z" fill="#B855B8"/>
<path d="M50.019 43.2373C50.096 43.3119 50.1739 43.3846 50.2524 43.455C50.1735 43.3846 50.096 43.3129 50.019 43.2373Z" fill="#B855B8"/>
<path d="M50.3853 43.5707C50.4647 43.6381 50.5451 43.7036 50.6254 43.7672C50.5451 43.7041 50.4642 43.6386 50.3853 43.5707Z" fill="#B855B8"/>
<path d="M11.2846 8.57773C9.65635 7.22223 8.64986 6.69275 7.76611 6.39286C6.8824 6.09297 8.0165 7.45612 8.9002 7.98512C9.78396 8.5146 11.1011 9.14117 12.6018 11.6341C14.1027 14.127 14.7697 15.2007 15.6534 16.0942C16.5371 16.9872 17.788 16.8097 17.788 16.8097C17.788 16.8097 15.1032 13.0785 14.7196 12.4357C14.3362 11.7933 13.2357 10.2011 11.2846 8.57773Z" fill="#719C1A"/>
<path d="M7.5821 6.36373C6.2531 6.20255 4.62483 7.42938 4.65941 7.99043C4.69174 8.52182 7.63534 9.55925 8.94784 11.294C10.2604 13.0288 13.1049 17.191 13.1049 17.191C13.1049 17.191 14.2503 18.3772 15.0013 18.4188C15.7518 18.4604 17.8926 17.1207 17.788 16.8098C16.567 16.2574 15.2844 14.1906 15.2844 14.1906C15.2844 14.1906 12.8101 10.2074 11.0899 8.88007C9.37008 7.55183 7.5821 6.36373 7.5821 6.36373Z" fill="#719C1A"/>
<path d="M51.3549 31.6548C52.3918 32.5368 49.6909 33.533 48.5248 33.3398C47.0798 33.1016 41.4015 34.7809 41.9888 33.3355C42.5752 31.8906 44.7672 30.2194 46.999 30.1639C49.2307 30.1075 51.3549 31.6548 51.3549 31.6548Z" fill="#719C1A"/>
<path d="M47.5318 39.0015C47.5519 39.0761 47.5729 39.1512 47.5954 39.2253L47.5643 39.1187L47.5318 39.0015Z" fill="#B855B8"/>
<path d="M47.8742 40.0159C47.9154 40.1197 47.9603 40.224 48.0067 40.3278C47.9603 40.2244 47.9154 40.1197 47.8742 40.0159Z" fill="#B855B8"/>
<path d="M12.9498 15.5816C12.9708 15.6495 12.9909 15.7165 13.0106 15.7844C12.9909 15.7165 12.9708 15.649 12.9498 15.5816Z" fill="#B855B8"/>
<path d="M13.0152 15.8016L13.0106 15.7843L13.0128 15.7925L13.0152 15.8016Z" fill="#B855B8"/>
<path d="M35.2213 23.7083L30.9946 19.8699L30.1691 20.3511L28.4434 25.8511L33.4459 30.4327L35.5217 24.6568L35.2213 23.7083Z" fill="#4D4F51"/>
<path d="M29.619 26.0707L25.6922 25.8406V26.4437L29.7439 31.4812L32.6204 30.6733L33.0704 29.5847L29.619 26.0707Z" fill="#8D8F91"/>
<path d="M30.169 20.3512L27.3825 21.9602L30.6588 32.0413L33.4459 30.4328L34.2255 24.0326L30.169 20.3512Z" fill="#4D4F51"/>
<path d="M24.0406 17.9009L23.7909 18.3141L26.3422 26.3314L29.9438 26.6313L27.7431 18.9502L27.2175 18.3409L24.0406 17.9009Z" fill="#4D4F51"/>
<path d="M24.0406 17.9008L21.2541 19.5098L27.1572 28.2402L29.9438 26.6312L25.6922 18.7919L24.0406 17.9008Z" fill="#4D4F51"/>
<path d="M21.1146 21.7348C18.5133 19.7733 17.638 19.526 17.3876 20.9605C17.1378 22.3944 17.7379 23.4012 19.7389 24.5568C19.7389 24.5568 23.8909 27.4419 24.1411 26.2084C24.3912 24.9753 24.0909 24.6869 23.5159 24.0393C22.9404 23.3912 21.1146 21.7348 21.1146 21.7348Z" fill="#8D8F91"/>
<path d="M22.1024 20.7529C22.1024 21.4407 21.6163 21.7181 21.0165 21.3718C20.4167 21.0255 19.9304 20.1866 19.9304 19.4988C19.9304 18.8105 20.4167 18.5331 21.0165 18.8794C21.6163 19.2257 22.1024 20.0641 22.1024 20.7529Z" fill="#8D8F91"/>
<path d="M24.5299 27.7988C23.6948 27.7988 22.5644 27.1349 21.7679 26.6666L21.5079 26.5145L14.8042 22.6441L15.0185 22.273L21.9852 26.2969C22.7681 26.757 24.2252 27.6122 24.8398 27.3095C25.0144 27.2243 25.1163 27.0397 25.1541 26.7456C25.3086 25.5359 24.683 24.1651 24.2267 23.164C24.043 22.7608 23.8842 22.4126 23.8096 22.1472C23.6269 21.4962 23.6594 20.993 23.9033 20.6927C24.0186 20.5506 24.2386 20.3875 24.6303 20.4138L24.6016 20.8414C24.4304 20.829 24.3118 20.8696 24.2362 20.9629C24.088 21.1451 24.0827 21.535 24.2219 22.0319C24.2879 22.2648 24.44 22.5992 24.617 22.9861C25.0948 24.0341 25.7491 25.469 25.5788 26.7996C25.5229 27.2415 25.3378 27.5429 25.0293 27.694C24.881 27.7672 24.7126 27.7988 24.5299 27.7988Z" fill="#8D8F91"/>
<path d="M22.8801 25.2829L19.3284 23.2319C19.3284 23.2319 16.2516 21.456 15.6761 21.3537C15.1013 21.2508 14.6009 21.1054 14.3758 22.1811C14.1507 23.2568 14.2506 24.3765 14.7261 25.1671C15.2012 25.9587 16.227 26.9526 16.5767 27.4414C16.927 27.9307 23.3304 31.341 23.3304 31.341C23.3304 31.341 25.0565 31.2463 25.3559 31.4199C25.6563 31.5931 25.256 28.0326 25.256 28.0326L22.8801 25.2829Z" fill="#4E4A55"/>
<path d="M6.71274 22.4059C4.00083 20.84 1.80271 17.0495 1.80271 13.9372C1.80271 10.8258 4.00083 9.57268 6.71274 11.1386C9.42427 12.7036 11.6224 16.4951 11.6224 19.606C11.6224 22.7183 9.42427 23.9714 6.71274 22.4059ZM6.71274 9.73578C3.32538 7.77953 0.579842 9.34501 0.579842 13.2317C0.579842 17.1179 3.32538 21.854 6.71274 23.8088C10.0997 25.7641 12.8447 24.1991 12.8447 20.3124C12.8447 16.4258 10.0997 11.6911 6.71274 9.73578Z" fill="#36323E"/>
<path d="M3.38057 12.1339L3.39796 12.1215L3.35719 12.1531L3.38057 12.1339Z" fill="#DA65DA"/>
<path d="M6.14938 21.3629L6.25325 21.4306L6.20254 21.3984L6.14938 21.3629Z" fill="#DA65DA"/>
<path d="M6.71919 12.4366L6.77212 12.4721L6.66887 12.4048L6.71919 12.4366Z" fill="#DA65DA"/>
<path d="M47.2324 44.8463C47.3094 44.9209 47.3873 44.9931 47.4658 45.0634C47.3869 44.9936 47.3094 44.9214 47.2324 44.8463Z" fill="#DA65DA"/>
<path d="M47.5983 45.1796C47.6777 45.2475 47.7576 45.3121 47.8389 45.3757C47.7576 45.3131 47.6772 45.248 47.5983 45.1796Z" fill="#DA65DA"/>
<path d="M8.49793 10.1863C6.86965 8.83127 5.86316 8.30226 4.97941 8.00237C4.0957 7.70248 5.22923 9.06467 6.11351 9.59463C6.99726 10.1236 8.31445 10.7502 9.81511 13.2436C11.316 15.7365 11.983 16.8103 12.8667 17.7032C13.7504 18.5957 15.0013 18.4188 15.0013 18.4188C15.0013 18.4188 12.3165 14.6871 11.9329 14.0447C11.5495 13.4029 10.4485 11.8106 8.49793 10.1863Z" fill="#88BE1E"/>
<path d="M10.1632 17.191C10.1841 17.258 10.2043 17.3259 10.2233 17.3933C10.2043 17.3254 10.1841 17.258 10.1632 17.191Z" fill="#DA65DA"/>
<path d="M10.2286 17.4106L10.2233 17.3933L10.2262 17.4014L10.2286 17.4106Z" fill="#DA65DA"/>
<path d="M10.2703 17.5636C10.2571 17.5122 10.2431 17.4608 10.2286 17.4098C10.2431 17.4612 10.2571 17.5122 10.2703 17.5636Z" fill="#DA65DA"/>
<path d="M32.3645 37.6393C32.2693 37.6393 32.1775 37.6245 32.0894 37.5948C30.7062 37.1304 15.7776 29.038 14.4393 27.1344C13.5571 25.8793 13.2464 23.4888 12.9461 21.1772C12.7836 19.9269 12.6304 18.746 12.3987 17.8205L13.3348 17.5856C13.5808 18.5661 13.7378 19.7738 13.9037 21.0528C14.1755 23.1463 14.4838 25.5187 15.2292 26.5786C16.3637 28.1924 30.9607 36.1972 32.3965 36.6798C33.4545 36.6282 37.5708 30.4414 37.6305 29.2193C37.6903 28.0049 37.1805 26.8995 37.1752 26.8885L38.0491 26.4772C38.0744 26.5308 38.667 27.8045 38.5948 29.2667C38.5288 30.6212 35.0429 36.0705 33.2173 37.3169C32.9011 37.5326 32.6194 37.6393 32.3645 37.6393Z" fill="#524F59"/>
<path d="M32.4348 25.3174L28.2076 21.479L27.3825 21.9602L25.6563 27.4597L30.6589 32.0413L32.7347 26.2653L32.4348 25.3174Z" fill="#6F7376"/>
<path d="M25.9141 27.7035L27.5179 22.5943L27.956 22.3389L31.8862 25.908L32.1124 26.624L30.2858 31.7069L25.9141 27.7035Z" fill="#83888B"/>
<path d="M21.2542 19.5098L21.0044 19.9231L23.5556 27.9403L27.1572 28.2402L24.9561 20.5592L24.4309 19.9499L21.2542 19.5098Z" fill="#6F7376"/>
<path d="M23.6556 27.9308L21.2407 20.3416L21.2597 20.3091L24.0263 20.6927L24.396 21.1208L26.4125 28.1604L23.6556 27.9308Z" fill="#83888B"/>
<path d="M18.3279 23.3434C15.7266 21.3824 14.8509 21.1356 14.6009 22.5695C14.3506 24.0039 14.9509 25.0103 16.9523 26.1654C16.9523 26.1654 21.1043 29.0505 21.3541 27.8174C21.6044 26.5844 21.3042 26.2964 20.7292 25.6483C20.1537 25.0007 18.3279 23.3434 18.3279 23.3434Z" fill="#B7BABC"/>
<path d="M20.703 28.091C19.9702 28.091 18.0303 26.9335 16.9803 26.2036C14.9008 25.0017 14.6056 24.0905 14.7952 23.0053C14.8967 22.4213 15.0568 22.4213 15.1424 22.4213C15.6836 22.4213 16.8934 23.2812 17.887 24.0298H17.8864C17.8842 24.0298 19.6763 25.6579 20.2293 26.2806L20.2832 26.3409C20.7895 26.9101 20.9623 27.1043 20.7656 28.0867L20.703 28.091Z" fill="#CCCFD1"/>
<path d="M26.832 27.6792L22.9049 27.45V28.0527L26.9568 33.0901L29.8338 32.2823L30.2839 31.1937L26.832 27.6792Z" fill="#B7BABC"/>
<path d="M23.1053 28.2785V28.2407L26.4541 28.4363L29.6128 31.652L29.3382 32.3168L26.9032 33.0003L23.1053 28.2785Z" fill="#CCCFD1"/>
<path d="M32.3597 34.1142C32.3597 35.4295 31.4304 35.96 30.2839 35.298C29.1374 34.6355 28.2076 33.0328 28.2076 31.717C28.2076 30.4016 29.1374 29.8712 30.2839 30.5332C31.4304 31.1951 32.3597 32.7984 32.3597 34.1142Z" fill="#B7BABC"/>
<path d="M31.0152 35.5491C30.799 35.5491 30.546 35.4692 30.2834 35.318C29.267 34.7307 28.408 33.2499 28.408 32.0838C28.408 31.7624 28.4802 31.0153 29.1522 31.0153C29.3679 31.0153 29.6209 31.0952 29.8835 31.2468C30.9004 31.8341 31.7594 33.3145 31.7594 34.481C31.7594 34.8024 31.6872 35.5491 31.0152 35.5491Z" fill="#CCCFD1"/>
<path d="M19.3157 22.3614C19.3157 23.0502 18.8296 23.3271 18.2298 22.9808C17.6301 22.634 17.1438 21.7956 17.1438 21.1078C17.1438 20.4195 17.6301 20.1421 18.2298 20.4884C18.8296 20.8347 19.3157 21.6736 19.3157 22.3614Z" fill="#B7BABC"/>
<path d="M18.5176 23.0966C18.4385 23.0966 18.3367 23.0626 18.2299 23.0009C17.7575 22.7287 17.3437 22.0151 17.3437 21.4746C17.3437 21.3364 17.3698 21.1064 17.5423 21.1064C17.6211 21.1064 17.723 21.1398 17.8295 21.2015C18.3018 21.4747 18.7156 22.1878 18.7156 22.7287C18.7156 22.866 18.6898 23.0966 18.5176 23.0966Z" fill="#CCCFD1"/>
<path d="M21.7371 29.6488C20.9305 29.6488 19.9173 29.1016 18.8632 28.4822L18.6016 28.3301L12.329 24.708C12.0773 24.5626 11.9596 24.2622 12.0455 23.9838L12.0661 23.9183C12.1885 23.5232 12.655 23.3544 13.0016 23.5806L19.3213 27.7016C19.9575 28.0752 21.4484 28.95 21.9482 28.7046C22.0431 28.6578 22.1042 28.5305 22.1304 28.3244C22.2767 27.1822 21.6676 25.8473 21.2233 24.872C21.0355 24.4602 20.8729 24.1039 20.7935 23.8207C20.5886 23.0918 20.6366 22.5145 20.9314 22.1519C21.0822 21.9664 21.3649 21.753 21.8604 21.7851L21.7987 22.6886C21.7414 22.6843 21.6629 22.6872 21.634 22.7221C21.5807 22.7886 21.5181 23.0516 21.6652 23.5758C21.7255 23.792 21.8744 24.1187 22.0468 24.497C22.5364 25.5703 23.2071 27.0411 23.0287 28.4392C22.945 29.0945 22.612 29.3872 22.3471 29.5168C22.1618 29.6077 21.9572 29.6488 21.7371 29.6488Z" fill="#AEB1B3"/>
<path d="M40.7639 20.9538C39.063 17.9625 36.0794 17.1585 33.3282 16.4501C30.5766 15.7417 26.5919 15.6169 24.0746 16.2296C23.4224 16.3884 21.1435 16.9011 20.7007 17.8568C20.3807 18.5474 23.6589 17.7382 24.8083 17.8204C26.3589 17.9309 29.5937 18.0577 33.8457 22.1007C37.1962 25.2862 35.7795 27.9958 36.8724 27.5945C38.7349 26.9091 40.1158 25.8315 40.4659 25.6358C42.1165 24.7137 40.7639 20.9538 40.7639 20.9538Z" fill="#719C1A"/>
<path d="M34.5513 18.3504C34.0897 18.6154 33.3278 18.6288 32.8499 18.3811C32.3721 18.1323 32.3592 17.7162 32.8208 17.4512C33.2823 17.1863 34.0443 17.1724 34.5221 17.4211C34.9994 17.6694 35.0128 18.0855 34.5513 18.3504Z" fill="#AEB1B3"/>
<path d="M43.074 21.7664C41.8238 21.0441 39.0018 20.2019 38.5187 21.8549C38.0294 23.5323 40.4247 25.6172 40.9877 25.5832C41.5507 25.5492 43.074 21.7664 43.074 21.7664Z" fill="#C5C7C8"/>
<path d="M40.3693 24.5181C40.3693 25.5015 41.0638 25.8975 41.9209 25.4025C42.7775 24.9079 43.472 23.7098 43.472 22.7269C43.472 21.7435 42.7775 21.3475 41.9209 21.842C41.0638 22.3366 40.3693 23.5347 40.3693 24.5181Z" fill="#E1E3E5"/>
<path d="M40.8428 24.3856C40.8428 25.1418 41.3775 25.446 42.0361 25.0653C42.6947 24.685 43.2295 23.7638 43.2295 23.0076C43.2295 22.2514 42.6947 21.9467 42.0361 22.327C41.3775 22.7077 40.8428 23.6289 40.8428 24.3856Z" fill="#A0A1A1"/>
<path d="M37.3292 22.9861C35.6279 19.9953 32.6433 18.9416 29.8921 18.2333C27.1405 17.5249 24.275 17.2881 21.7568 17.9008C20.8702 18.1166 20.732 17.622 20.7008 17.8568C20.6438 18.2883 21.0165 19.3577 22.0211 19.4295C23.5719 19.5405 26.8071 19.6667 31.0592 23.7098C35.3113 27.7533 36.0283 28.1671 37.6793 27.2449C39.33 26.3227 37.3292 22.9861 37.3292 22.9861Z" fill="#88BE1E"/>
<path d="M48.7955 46.7026C46.0845 45.1371 43.8858 41.3456 43.8858 38.2338C43.8858 35.1229 46.0845 33.8703 48.7955 35.4353C51.508 37.0007 53.7058 40.7917 53.7058 43.9036C53.7058 47.0154 51.508 48.2685 48.7955 46.7026ZM48.7955 34.0319C45.4087 32.0771 42.6637 33.6421 42.6637 37.5283C42.6637 41.4154 45.4087 46.1501 48.7955 48.1054C52.1824 50.0612 54.9288 48.4962 54.9288 44.6091C54.9288 40.7233 52.1824 35.9872 48.7955 34.0319Z" fill="#36323E"/>
<path d="M48.233 45.66L48.3358 45.7273L48.2858 45.6951L48.233 45.66Z" fill="#DA65DA"/>
<path d="M45.4641 36.4306L45.4871 36.4138L45.4368 36.4531L45.4641 36.4306Z" fill="#DA65DA"/>
<path d="M48.8024 36.7337L48.8553 36.7688L48.752 36.7015L48.8024 36.7337Z" fill="#DA65DA"/>
<path d="M48.5683 33.2638C48.8338 33.4388 47.1841 33.3446 46.5834 33.5531C45.9831 33.7612 45.633 34.7647 45.0327 34.9919C44.4325 35.2195 43.032 34.7551 42.6484 35.6247C42.2648 36.4937 42.0152 37.5359 41.6311 37.7928C41.2475 38.0496 41.0476 35.772 41.8315 33.6985C42.6149 31.6251 44.366 31.7179 45.1164 31.7681C45.8664 31.8188 47.1507 32.3306 48.5683 33.2638Z" fill="#88BE1E"/>
<path d="M44.7452 40.6105C44.7653 40.6851 44.7859 40.7597 44.8083 40.8343L44.7773 40.7277L44.7452 40.6105Z" fill="#DA65DA"/>
<path d="M45.0868 41.6245C45.1289 41.7288 45.1738 41.8325 45.2202 41.9363C45.1738 41.833 45.1289 41.7288 45.0868 41.6245Z" fill="#DA65DA"/>
<path d="M44.2416 32.0733L43.3964 32.4392L48.1804 41.4317L49.025 41.0658L44.2416 32.0733Z" fill="#AEB1B3"/>
<path d="M46.9593 36.3436L44.6061 31.8476L42.999 32.6511L45.3527 37.1471C45.4072 37.2571 45.8118 37.1663 46.2557 36.9443C46.6996 36.7224 47.0143 36.4536 46.9593 36.3436Z" fill="#767C80"/>
<path d="M42.999 32.6511C43.054 32.7606 43.4581 32.6702 43.902 32.4483C44.3459 32.2264 44.661 31.9575 44.606 31.8475C44.551 31.7375 44.1469 31.8284 43.703 32.0503C43.2596 32.2723 42.9444 32.5411 42.999 32.6511Z" fill="#BABDBF"/>
<path d="M44.099 32.135L43.5389 32.3775L37.1914 20.4449L37.7515 20.2019L44.099 32.135Z" fill="#AEB1B3"/>
<path d="M21.4017 17.2407C21.3793 17.1719 21.3476 17.1087 21.3154 17.0623C21.1981 16.8925 21.0156 16.7777 20.8282 16.6902C20.3153 16.4487 19.7582 16.3956 19.2191 16.244C18.7076 16.1 18.1887 16.0737 17.7095 15.8078C16.8809 15.3486 15.9421 13.9644 15.905 13.4454C15.8683 12.9265 14.6529 11.4026 14.3586 11.3089C14.0638 11.2151 13.7691 11.294 13.7691 11.294C13.7691 11.294 10.7303 12.2746 10.9825 12.903C11.6784 13.3106 12.4893 15.7145 13.3179 16.6902C14.1466 17.666 15.3941 18.2495 16.8486 18.6111C18.3031 18.9727 19.4886 18.4838 19.8202 18.4647C19.9338 18.458 20.0562 18.382 20.1546 18.3322C20.3489 18.2351 20.5377 18.1275 20.7254 18.0185C20.8394 17.9525 20.953 17.8855 21.0664 17.8176C21.1519 17.7664 21.3036 17.7104 21.3696 17.6382C21.4578 17.5402 21.4475 17.379 21.4017 17.2407Z" fill="#3C2320"/>
<path d="M19.8202 18.4648C19.5073 18.1118 18.2738 17.9736 17.5003 17.8903C16.7268 17.8081 15.7509 17.876 14.9223 17.4168C14.0943 16.9572 13.1548 15.5735 13.1181 15.055C13.0816 14.536 11.8662 13.0112 11.5714 12.9179C11.2771 12.8247 10.9825 12.9031 10.9825 12.9031C10.9825 12.9031 11.3827 13.6564 11.5533 14.2275C11.7597 14.9196 12.2076 16.0848 13.0362 17.0605C13.8648 18.0362 15.0116 18.3098 16.4661 18.6714C17.9207 19.033 19.8202 18.4648 19.8202 18.4648Z" fill="#3C2320"/>
<path d="M29.6626 35.9724C29.3818 35.9724 28.4319 35.6969 14.3366 27.5328L14.1441 27.4208C13.9607 27.3151 13.8433 27.1219 13.834 26.91C13.8112 26.4064 14.3642 26.0854 14.7897 26.3552L15.3221 26.6924C27.427 33.7043 29.257 34.9163 29.6836 35.0593C30.1327 34.9058 31.7202 33.2126 32.6696 31.7413C33.4832 30.482 32.7309 28.8352 32.7347 28.6386L33.6406 28.6396C33.6406 29.0456 34.3121 30.8665 33.4301 32.2325C33.0614 32.8046 30.8024 35.926 29.6922 35.9714L29.6626 35.9724Z" fill="#AEB1B3"/>
<path d="M35.7901 21.3106C34.7263 21.3106 33.6851 20.819 33.0121 19.9092L27.5432 12.5147C27.2577 12.1292 26.7105 12.0441 26.3216 12.3248L25.7922 11.5906C26.5814 11.021 27.6934 11.1956 28.2707 11.9762L33.7396 19.3711C34.5111 20.4143 35.9393 20.7113 37.0628 20.0623L41.0408 17.7664C42.0998 17.1542 42.5757 15.8729 42.1725 14.7182L38.9334 5.45311C38.6642 4.68162 38.9157 3.82594 39.56 3.32372L39.8719 3.6547L40.1493 4.01199C39.7786 4.30088 39.6466 4.75001 39.7877 5.15417L43.0267 14.4198C43.5734 15.9838 42.9292 17.7215 41.4938 18.5499L37.5153 20.8467C36.9734 21.1595 36.3779 21.3106 35.7901 21.3106Z" fill="#C5C7C8"/>
<path d="M23.1842 13.8267L22.9185 12.7672L25.9634 11.3084C26.049 11.2907 26.1461 11.3299 26.2341 11.4309C26.4091 11.6298 26.5115 11.9053 26.4268 12.154C26.3852 12.277 26.313 12.3487 26.2303 12.3669V12.3674L26.2264 12.3678H26.2255L23.1842 13.8267Z" fill="#474747"/>
<path d="M23.3865 13.6129C23.3015 13.8625 23.0913 13.9032 22.917 13.7037C22.7423 13.5043 22.6395 13.2288 22.7242 12.9796C22.8092 12.7304 23.0193 12.6897 23.1935 12.8887C23.3682 13.0882 23.471 13.3641 23.3865 13.6129Z" fill="#696969"/>
<path d="M40.8428 24.3856C40.8428 25.1418 41.3775 25.446 42.0361 25.0653C42.6947 24.685 43.2295 23.7638 43.2295 23.0076C43.2295 22.2514 42.6947 21.9467 42.0361 22.327C41.3775 22.7077 40.8428 23.6289 40.8428 24.3856Z" fill="#E5DDC2"/>
<path d="M41.0796 23.8762C41.0796 24.2258 41.3264 24.366 41.6306 24.1904C41.9353 24.0144 42.1816 23.5892 42.1816 23.24C42.1816 22.8909 41.9353 22.7502 41.6306 22.9258C41.3264 23.1013 41.0796 23.527 41.0796 23.8762Z" fill="#FFF0FF"/>
<path d="M40.1301 24.4416C39.6934 24.189 39.1472 24.1828 39.0114 24.2311C38.6326 24.3665 38.3212 25.082 38.4982 25.4957C38.5369 25.5861 38.7732 25.9511 39.2338 26.0807C39.4667 26.1467 40.1301 24.4416 40.1301 24.4416Z" fill="#C5C7C8"/>
<path d="M38.9679 25.6234C38.9679 26.0458 39.2663 26.216 39.6346 26.0032C40.0029 25.7908 40.3014 25.2762 40.3014 24.8538C40.3014 24.4315 40.0029 24.2612 39.6346 24.4736C39.2663 24.686 38.9679 25.2011 38.9679 25.6234Z" fill="#FF9517"/>
<path d="M39.1228 25.5943C39.1228 25.9502 39.3739 26.0936 39.6843 25.9143C39.9938 25.7354 40.2449 25.3025 40.2449 24.9462C40.2449 24.5908 39.9938 24.4473 39.6843 24.6262C39.3739 24.8051 39.1228 25.2389 39.1228 25.5943Z" fill="#FFB317"/>
<path d="M39.2343 25.3551C39.2343 25.5196 39.35 25.5851 39.493 25.5024C39.6365 25.4201 39.7523 25.2202 39.7523 25.0557C39.7523 24.8916 39.6365 24.8251 39.493 24.9079C39.35 24.9906 39.2343 25.1905 39.2343 25.3551Z" fill="#FFD817"/>
</svg>
