<svg width="25" height="24" viewBox="0 0 25 24" fill="none" xmlns="http://www.w3.org/2000/svg">
<path d="M10.8078 17.1994H16.6181C17.4055 17.1994 17.8768 16.7706 17.8768 16.0217V14.9813C17.8768 14.9527 17.8947 14.9412 17.9186 14.9412H18.6284C18.6583 14.9412 18.6702 14.9527 18.6702 14.9813V15.6216C18.6702 16.2676 19.1176 16.662 19.8454 16.662H20.3405C21.0623 16.662 21.5097 16.2733 21.5097 15.6216V11.494C21.5097 10.8423 21.0623 10.4536 20.3405 10.4536H19.8454C19.1176 10.4536 18.6702 10.848 18.6702 11.494V12.0257C18.6702 12.0486 18.6583 12.0657 18.6284 12.0657H17.9186C17.8947 12.0657 17.8768 12.0486 17.8768 12.0257V11.0538C17.8768 10.3449 17.4175 9.91618 16.6539 9.91618H16.1826L15.1804 8.87001C14.9478 8.62418 14.7092 8.52699 14.4169 8.52699H9.78179C9.4835 8.52699 9.24488 8.63561 9.01224 8.87001L8.01006 9.91618H7.35387C6.60223 9.91618 6.13694 10.3449 6.13694 11.0538V14.6611C6.13694 15.3757 6.59626 15.8045 7.35387 15.8045H9.03611L10.0443 16.8564C10.2769 17.0965 10.4917 17.1994 10.8078 17.1994ZM10.9331 16.279C10.8138 16.279 10.778 16.2618 10.7004 16.1875L9.45368 14.8841H7.35983C7.1928 14.8841 7.09735 14.7926 7.09735 14.6211V11.0996C7.09735 10.9281 7.1928 10.8366 7.35983 10.8366H8.43957L9.67439 9.5503C9.75195 9.46456 9.7937 9.4474 9.89512 9.4474H14.2976C14.4049 9.4474 14.4527 9.46456 14.5242 9.5503L15.765 10.8366H16.6479C16.8149 10.8366 16.9164 10.9338 16.9164 11.0996V12.7403C16.9164 12.8946 17.0118 12.9861 17.1669 12.9861H19.386C19.5411 12.9861 19.6366 12.8946 19.6366 12.7403V11.534C19.6366 11.4311 19.7082 11.374 19.8573 11.374H20.3345C20.4777 11.374 20.5493 11.4369 20.5493 11.534V15.5758C20.5493 15.6787 20.4777 15.7416 20.3345 15.7416H19.8573C19.7082 15.7416 19.6366 15.6845 19.6366 15.5758V14.261C19.6366 14.1066 19.5411 14.0151 19.386 14.0151H17.1669C17.0118 14.0151 16.9164 14.1066 16.9164 14.261V15.9874C16.9164 16.1761 16.8149 16.279 16.6121 16.279H10.9331ZM4.80069 15.1242C5.06913 15.1242 5.28389 14.907 5.28389 14.6611V13.3234H6.55451V12.403H5.28389V11.0595C5.28389 10.808 5.06317 10.6022 4.80069 10.6022C4.53822 10.6022 4.32346 10.8137 4.32346 11.0595V14.6611C4.32346 14.9127 4.54418 15.1242 4.80069 15.1242ZM12.0784 9.10439H13.0448V7.71521H14.918C15.1804 7.71521 15.3952 7.49797 15.3952 7.25214C15.3952 7.00061 15.1804 6.7948 14.918 6.7948H10.1934C9.93091 6.7948 9.71616 7.00632 9.71616 7.25786C9.71616 7.5094 9.93687 7.71521 10.1934 7.71521H12.0784V9.10439Z" fill="#1B86FF"/>
</svg>
