<svg width="25" height="24" viewBox="0 0 25 24" fill="none" xmlns="http://www.w3.org/2000/svg">
<path d="M7.57952 18.5667H8.58928L8.5956 6.5756C8.5956 6.18431 8.78494 5.97605 9.18885 5.97605H14.4902C14.8815 5.97605 15.0897 6.178 15.0897 6.5756V18.5667H16.1058V6.56298C16.1058 5.52796 15.5441 4.95996 14.5091 4.95996H9.1699C8.12858 4.95996 7.57952 5.52796 7.57952 6.56298V18.5667ZM9.57381 10.6778H14.1052C14.3198 10.6778 14.4776 10.52 14.4776 10.3055V6.96058C14.4776 6.746 14.3198 6.58823 14.1052 6.58823H9.57381C9.35926 6.58823 9.20147 6.746 9.20147 6.96058V10.3055C9.20147 10.52 9.35926 10.6778 9.57381 10.6778ZM6.57605 18.5225C6.57605 18.8065 6.80325 19.04 7.08094 19.04H16.5981C16.8758 19.04 17.103 18.8065 17.103 18.5225C17.103 18.2511 16.8758 18.0239 16.5981 18.0239H7.08094C6.80956 18.0239 6.57605 18.2448 6.57605 18.5225ZM18.4914 17.4559C19.64 17.4559 20.2901 16.686 20.2901 15.3228C20.2901 13.7387 19.9808 11.9148 19.3939 9.04325L19.2551 8.38058C19.1225 7.75579 18.9332 7.2509 18.5608 6.78387L17.8477 5.894C17.5258 5.49009 16.9073 5.95712 17.2544 6.39258L18.1443 7.50965C18.2011 7.58538 18.2074 7.68636 18.1569 7.77471L17.6268 8.75924C17.488 9.02431 17.5132 9.20102 17.7341 9.44716L18.9079 10.6967C19.3056 12.4891 19.5264 14.0795 19.5264 15.3228C19.5264 16.2 19.1541 16.686 18.4914 16.686C17.9108 16.686 17.5321 16.3073 17.5321 15.6825C17.5321 14.7548 17.6836 13.5241 17.6836 12.3944C17.6836 11.29 17.1408 10.4506 15.8092 10.0088L15.4999 10.7031C16.516 11.0123 16.9199 11.6371 16.9199 12.3944C16.9199 13.4042 16.7685 14.6349 16.7685 15.6825C16.7685 16.7743 17.4438 17.4559 18.4914 17.4559Z" fill="#1B86FF"/>
</svg>
