<svg width="25" height="24" viewBox="0 0 25 24" fill="none" xmlns="http://www.w3.org/2000/svg">
<path d="M4.47272 16.4625H5.28038C5.65314 16.4625 5.83952 16.2899 5.94514 16.0339C7.08208 13.3308 8.23143 10.6218 9.37457 7.9187C9.46155 7.72222 9.36215 7.54956 9.14471 7.54956H8.74087C8.52344 7.54956 8.38675 7.65078 8.29355 7.82939C6.87084 10.4848 5.46055 13.1403 4.03783 15.8016C3.86387 16.1053 3.98812 16.4625 4.47272 16.4625ZM20.5513 16.4625H21.3652C21.8436 16.4625 21.9678 16.1053 21.7939 15.8016C20.3836 13.1403 18.9609 10.4848 17.5443 7.82939C17.4449 7.65078 17.3083 7.54956 17.0908 7.54956H16.687C16.4695 7.54956 16.3764 7.72222 16.4571 7.9187C17.6003 10.6218 18.7496 13.3308 19.8865 16.0339C19.9922 16.2899 20.1786 16.4625 20.5513 16.4625ZM12.773 9.17497H13.0463C13.301 9.17497 13.4998 8.9904 13.4998 8.74034C13.4998 8.49027 13.4998 8.23426 13.4998 7.98419C13.4998 7.73413 13.301 7.54956 13.0463 7.54956H12.773C12.5182 7.54956 12.3194 7.73413 12.3194 7.98419C12.3194 8.23426 12.3194 8.49027 12.3194 8.74034C12.3194 8.9904 12.5182 9.17497 12.773 9.17497ZM12.773 12.5687H13.0463C13.301 12.5687 13.4998 12.3901 13.4998 12.14C13.4998 11.7232 13.4998 11.2946 13.4998 10.8778C13.4998 10.6277 13.301 10.4491 13.0463 10.4491H12.773C12.5182 10.4491 12.3194 10.6277 12.3194 10.8778C12.3194 11.2946 12.3194 11.7232 12.3194 12.14C12.3194 12.3901 12.5182 12.5687 12.773 12.5687ZM12.773 16.4625H13.0463C13.301 16.4625 13.4998 16.278 13.4998 16.0279C13.4998 15.4623 13.4998 14.8907 13.4998 14.3191C13.4998 14.0691 13.301 13.8905 13.0463 13.8905H12.773C12.5182 13.8905 12.3194 14.0691 12.3194 14.3191C12.3194 14.8907 12.3194 15.4623 12.3194 16.0279C12.3194 16.278 12.5182 16.4625 12.773 16.4625Z" fill="#1B86FF"/>
</svg>
