<svg width="18" height="9" viewBox="0 0 18 9" fill="none" xmlns="http://www.w3.org/2000/svg">
<path d="M0.509524 8.91294H1.31718C1.68994 8.91294 1.87632 8.74034 1.98194 8.48434C3.11888 5.78124 4.26823 3.07224 5.41137 0.36914C5.49835 0.17266 5.39895 0 5.18151 0H4.77767C4.56024 0 4.42355 0.10122 4.33035 0.27983C2.90764 2.93524 1.49735 5.59074 0.0746336 8.25204C-0.0993264 8.55574 0.0249239 8.91294 0.509524 8.91294ZM16.5881 8.91294H17.402C17.8804 8.91294 18.0046 8.55574 17.8307 8.25204C16.4204 5.59074 14.9977 2.93524 13.5811 0.27983C13.4817 0.10122 13.3451 0 13.1276 0H12.7238C12.5063 0 12.4132 0.17266 12.4939 0.36914C13.6371 3.07224 14.7864 5.78124 15.9233 8.48434C16.029 8.74034 16.2154 8.91294 16.5881 8.91294ZM8.8098 1.62541H9.0831C9.3378 1.62541 9.5366 1.44084 9.5366 1.19078C9.5366 0.94071 9.5366 0.6847 9.5366 0.43463C9.5366 0.18457 9.3378 0 9.0831 0H8.8098C8.555 0 8.3562 0.18457 8.3562 0.43463C8.3562 0.6847 8.3562 0.94071 8.3562 1.19078C8.3562 1.44084 8.555 1.62541 8.8098 1.62541ZM8.8098 5.01914H9.0831C9.3378 5.01914 9.5366 4.84054 9.5366 4.59044C9.5366 4.17364 9.5366 3.74504 9.5366 3.32824C9.5366 3.07814 9.3378 2.89954 9.0831 2.89954H8.8098C8.555 2.89954 8.3562 3.07814 8.3562 3.32824C8.3562 3.74504 8.3562 4.17364 8.3562 4.59044C8.3562 4.84054 8.555 5.01914 8.8098 5.01914ZM8.8098 8.91294H9.0831C9.3378 8.91294 9.5366 8.72844 9.5366 8.47834C9.5366 7.91274 9.5366 7.34114 9.5366 6.76954C9.5366 6.51954 9.3378 6.34094 9.0831 6.34094H8.8098C8.555 6.34094 8.3562 6.51954 8.3562 6.76954C8.3562 7.34114 8.3562 7.91274 8.3562 8.47834C8.3562 8.72844 8.555 8.91294 8.8098 8.91294Z" fill="#1B86FF"/>
</svg>
