<svg width="25" height="24" viewBox="0 0 25 24" fill="none" xmlns="http://www.w3.org/2000/svg">
<path d="M12.1545 20.0138H13.6695C14.247 20.0138 14.697 19.6613 14.8245 19.1062L15.147 17.7038L15.387 17.6213L16.6095 18.3713C17.097 18.6713 17.6595 18.6038 18.072 18.1913L19.122 17.1488C19.5345 16.7362 19.602 16.1662 19.302 15.6862L18.537 14.4713L18.627 14.2462L20.0295 13.9162C20.577 13.7888 20.937 13.3313 20.937 12.7613V11.2762C20.937 10.7062 20.5845 10.2562 20.0295 10.1213L18.642 9.78376L18.5445 9.54376L19.3095 8.32876C19.6095 7.84876 19.5495 7.28625 19.1295 6.86625L18.0795 5.81626C17.6745 5.41126 17.112 5.33626 16.6245 5.63626L15.402 6.38625L15.147 6.28876L14.8245 4.88626C14.697 4.33126 14.247 3.97876 13.6695 3.97876H12.1545C11.577 3.97876 11.127 4.33126 10.9995 4.88626L10.6695 6.28876L10.4145 6.38625L9.19949 5.63626C8.71198 5.33626 8.14198 5.41126 7.73698 5.81626L6.69448 6.86625C6.27448 7.28625 6.20698 7.84876 6.51448 8.32876L7.27198 9.54376L7.18198 9.78376L5.79448 10.1213C5.23948 10.2562 4.88698 10.7062 4.88698 11.2762V12.7613C4.88698 13.3313 5.24698 13.7888 5.79448 13.9162L7.19698 14.2462L7.27948 14.4713L6.52198 15.6862C6.21448 16.1662 6.28948 16.7362 6.70198 17.1488L7.74447 18.1913C8.15698 18.6038 8.72698 18.6713 9.21447 18.3713L10.4295 17.6213L10.6695 17.7038L10.9995 19.1062C11.127 19.6613 11.577 20.0138 12.1545 20.0138ZM12.2745 18.8438C12.147 18.8438 12.0795 18.7913 12.057 18.6713L11.607 16.8113C11.1495 16.6988 10.722 16.5188 10.3995 16.3162L8.76447 17.3213C8.67447 17.3888 8.56949 17.3813 8.48698 17.2838L7.60198 16.3988C7.51949 16.3162 7.51198 16.2262 7.57198 16.1213L8.57698 14.5013C8.40447 14.1862 8.20949 13.7588 8.08949 13.3013L6.22948 12.8588C6.10948 12.8362 6.05698 12.7688 6.05698 12.6413V11.3888C6.05698 11.2538 6.10198 11.1938 6.22948 11.1713L8.08198 10.7213C8.20198 10.2338 8.42698 9.79127 8.56198 9.51376L7.56447 7.89376C7.49698 7.78127 7.50447 7.69127 7.58698 7.60127L8.47949 6.73127C8.56949 6.64127 8.65198 6.63376 8.76447 6.69376L10.3845 7.67625C10.707 7.49625 11.1645 7.30876 11.6145 7.18127L12.057 5.32126C12.0795 5.20126 12.147 5.14876 12.2745 5.14876H13.5495C13.677 5.14876 13.7445 5.20126 13.7595 5.32126L14.217 7.19625C14.682 7.31625 15.087 7.50376 15.4245 7.68376L17.052 6.69376C17.172 6.63376 17.247 6.64127 17.3445 6.73127L18.2295 7.60127C18.3195 7.69127 18.3195 7.78127 18.252 7.89376L17.2545 9.51376C17.397 9.79127 17.6145 10.2338 17.7345 10.7213L19.5945 11.1713C19.7145 11.1938 19.767 11.2538 19.767 11.3888V12.6413C19.767 12.7688 19.707 12.8362 19.5945 12.8588L17.727 13.3013C17.607 13.7588 17.4195 14.1862 17.2395 14.5013L18.2445 16.1213C18.3045 16.2262 18.3045 16.3162 18.2145 16.3988L17.337 17.2838C17.247 17.3813 17.1495 17.3888 17.052 17.3213L15.417 16.3162C15.0945 16.5188 14.6745 16.6988 14.217 16.8113L13.7595 18.6713C13.7445 18.7913 13.677 18.8438 13.5495 18.8438H12.2745ZM12.912 14.8538C14.4945 14.8538 15.7695 13.5788 15.7695 11.9962C15.7695 10.4138 14.4945 9.13876 12.912 9.13876C11.3295 9.13876 10.0545 10.4138 10.0545 11.9962C10.0545 13.5788 11.3295 14.8538 12.912 14.8538ZM12.912 13.6913C11.9745 13.6913 11.217 12.9338 11.217 11.9962C11.217 11.0588 11.9745 10.3013 12.912 10.3013C13.8495 10.3013 14.607 11.0588 14.607 11.9962C14.607 12.9338 13.8495 13.6913 12.912 13.6913Z" fill="#1B86FF"/>
</svg>
